<svg width="70" height="57" fill="none" xmlns="http://www.w3.org/2000/svg"><g opacity=".7" fill="#F6A6BF"><path d="M46.5.2c-5.6 1.4-9 8.4-6.6 13.7 3 6.6 12 5.8 15.4-1.5.7-1.5.7-1.9.7-4.1 0-2.3 0-2.7-.6-4-.8-1.5-2-2.8-3.7-3.6a9.8 9.8 0 0 0-5.2-.5Zm3.8 4.3a4 4 0 0 1 2 3.2c.4 5.5-6.3 9.2-8.7 4.7-2.4-4.1 3-10.5 6.7-8ZM18.7.6a9 9 0 0 0-4.1 4c-.6 1.3-.7 1.7-.7 3.9 0 2.3 0 2.6.8 4.2a9.6 9.6 0 0 0 8 5.8c2.3.1 3.8-.4 5.4-1.8C32 13.2 31.7 7 27.8 3A8.1 8.1 0 0 0 21.7.3c-1.3 0-2.3 0-3 .3Zm4.8 4c2 1 3.2 3 3.4 5.4.4 5.6-6.3 6.3-8.7.9-1-2.3-.5-5 1.1-6.1 1.1-.8 2.9-.8 4.2-.2ZM60.2 16.9a10 10 0 0 0-6.9 5.6c-.9 1.7-1 2-1 4.1 0 1.9.2 2.5.6 3.4.8 1.5 2 2.8 3.6 3.6 1.1.6 1.5.7 3.6.7 2.2 0 2.4 0 4.1-.9 7-3.5 7.9-12.7 1.7-15.8a8.2 8.2 0 0 0-5.7-.7Zm4.2 4.3c1.6 1.2 2 3 1.4 5-1 3.2-5 5.2-7.7 3.8-2.6-1.3-2.6-5 0-7.6 1.8-1.7 4.8-2.3 6.3-1.2ZM5 17.8a7.5 7.5 0 0 0-5 7.5c0 2 0 2.2 1 4 3.3 7 12.6 8 15.9 1.5.6-1 .6-1.5.6-3.6 0-2 0-2.5-.7-3.7-1.4-3-4.2-5.3-7.1-6a7.8 7.8 0 0 0-4.6.3Zm5.3 4.1c2.8 1.4 4.2 5 3 7.3-.5 1-2.2 2-3.6 2-2.9 0-6-3.2-6-6.2 0-1.3 1.1-2.9 2.5-3.4.8-.4 3-.2 4 .3ZM31.6 23.4a13 13 0 0 0-7.9 6.8c-.8 1.8-.9 1.8-2.6 2.7a12.7 12.7 0 0 0 2.5 23.8c3.2.8 7.4 0 10.1-2l1.3-.9 1.2 1c2.7 1.9 6.7 2.7 10 1.9A12.7 12.7 0 0 0 49 32.9c-1.8-1-1.9-1-2.7-2.7-1.5-3.3-4.9-6.1-8.3-7-1.6-.3-4.8-.2-6.3.2Zm6.4 4.1c2.4 1 4.6 3.4 5.3 6 .4 1.4.8 1.9 2.1 2.3 1.9.6 3 1.2 4.3 2.6 1.7 1.9 2.2 3.1 2.2 5.8a7 7 0 0 1-.6 3.7c-1 2-2.2 3.3-4.1 4.2-1.5.8-1.8.8-3.8.8-2 0-2.4 0-3.6-.6a14 14 0 0 1-2.7-2.1c-1.8-1.8-2.4-1.8-4.3 0-.7.8-2 1.7-2.7 2-1.2.6-1.6.7-3.5.7s-2.5 0-3.6-.6c-2-1-3.2-2.2-4.2-4.2-.7-1.5-.8-1.8-.8-3.9 0-2.7.5-4 2.3-5.8 1.2-1.4 2.3-2 4.2-2.6 1.4-.4 1.7-.9 2.2-2.4.7-2.5 2.8-5 5.2-5.9 1.7-.7 4.3-.7 6 0Z"/></g></svg>
