<svg width="541" height="395" viewBox="0 0 541 395" fill="none" xmlns="http://www.w3.org/2000/svg">
<path d="M181.62 62.0535L404.226 81.2724C476.509 87.5276 530.01 151.2 523.756 223.488C517.493 295.797 453.841 349.331 381.571 343.091L158.926 323.826C86.664 317.573 33.1562 253.9 39.3968 181.603C45.673 109.303 109.333 55.7627 181.62 62.0535Z" fill="#FAF7F5"/>
<path d="M384.811 357.451C380.589 367.651 385.607 379.408 395.989 383.74C406.371 388.071 418.239 383.25 422.464 373.03C426.688 362.809 421.667 351.073 411.285 346.748C400.902 342.424 389.034 347.238 384.811 357.451Z" fill="#FFFEF1"/>
<path d="M405.752 370.599C410.154 371.026 414.576 370.033 418.373 367.765C422.17 365.498 425.142 362.075 426.856 357.996C427.896 355.476 428.421 352.772 428.399 350.046C428.376 347.319 427.807 344.625 426.726 342.122C425.118 338.34 422.437 335.113 419.014 332.84C415.592 330.567 411.578 329.347 407.47 329.333C403.362 329.318 399.339 330.509 395.9 332.758C392.461 335.007 389.756 338.216 388.121 341.986C386.059 347.101 386.107 352.825 388.256 357.903C390.405 362.982 394.479 367 399.585 369.078C401.552 369.893 403.632 370.406 405.752 370.599ZM408.44 338.036C409.687 338.153 410.91 338.456 412.068 338.935C415.079 340.163 417.483 342.531 418.756 345.524C419.385 346.971 419.715 348.531 419.727 350.109C419.739 351.687 419.433 353.251 418.826 354.707C418.006 356.835 416.609 358.692 414.793 360.07C412.977 361.448 410.813 362.293 408.544 362.509C406.275 362.726 403.991 362.306 401.947 361.297C399.904 360.287 398.182 358.728 396.975 356.794C395.767 354.86 395.123 352.628 395.113 350.347C395.103 348.067 395.728 345.829 396.918 343.884C398.108 341.94 399.817 340.365 401.851 339.337C403.886 338.309 406.166 337.868 408.437 338.064L408.44 338.036Z" fill="#28AFC9"/>
<path d="M80.2443 77.2019C62.1453 65.3538 38.7824 69.0306 28.0549 85.4212C17.3274 101.812 23.3005 124.712 41.3995 136.56C59.4985 148.408 82.8627 144.717 93.5889 128.341C104.315 111.964 98.3426 89.057 80.2443 77.2019Z" fill="#FFFEF1"/>
<path d="M71.7932 153.664C85.1984 154.9 98.354 149.435 105.723 138.17C116.722 121.36 110.744 97.9018 92.3987 85.8898C83.8246 80.1651 73.4255 77.8422 63.2307 79.3744C53.0849 80.9731 44.5355 86.3758 39.1635 94.5844C33.7915 102.793 32.2547 112.795 34.8515 122.734C37.5301 132.691 43.8204 141.291 52.4951 146.859C58.274 150.673 64.9005 153.01 71.7932 153.664ZM87.6361 93.1522C101.982 102.551 106.835 120.611 98.4565 133.413C90.0781 146.215 71.6178 148.989 57.2513 139.588C50.3814 135.198 45.3913 128.407 43.2532 120.537C41.2886 113 42.4142 105.466 46.4303 99.3346C50.4464 93.2034 56.8877 89.1595 64.5776 87.9484C72.6457 86.7584 80.8674 88.6136 87.6431 93.1529L87.6361 93.1522Z" fill="#28AFC9"/>
<path d="M460.366 84.5992L477.98 88.6234C479.833 89.0464 481.585 89.8304 483.135 90.9307C484.685 92.031 486.003 93.426 487.014 95.0361C488.026 96.6461 488.71 98.4398 489.028 100.314C489.346 102.189 489.292 104.108 488.869 105.962L483.709 128.542C483.286 130.396 482.502 132.148 481.402 133.699C480.302 135.25 478.908 136.569 477.298 137.581C475.689 138.593 473.896 139.278 472.022 139.597C470.148 139.915 468.229 139.861 466.376 139.438L448.762 135.414C444.561 134.458 440.216 134.311 435.96 134.982L373.124 144.874L396.324 43.2433L448.636 79.4304C452.181 81.8856 456.162 83.64 460.366 84.5992Z" fill="#FFFEF1"/>
<path d="M367.458 150.162L436.631 139.273C440.349 138.685 444.145 138.815 447.814 139.654L465.429 143.679C470.292 144.781 475.394 143.91 479.618 141.256C483.841 138.602 486.84 134.382 487.96 129.52L493.113 106.933C494.216 102.067 493.346 96.9627 490.694 92.738C488.042 88.5134 483.824 85.513 478.964 84.3942L461.342 80.3763C457.674 79.5523 454.198 78.0337 451.1 75.9024L393.514 36.0169L367.458 150.162ZM444.726 130.383C441.578 130.091 438.406 130.195 435.284 130.692L378.777 139.6L399.124 50.462L446.166 83.0361C450.166 85.8122 454.661 87.794 459.408 88.8737L477.026 92.8559C479.643 93.459 481.915 95.0749 483.343 97.35C484.772 99.625 485.241 102.374 484.648 104.995L479.495 127.582C478.893 130.201 477.278 132.475 475.003 133.905C472.729 135.335 469.98 135.804 467.36 135.209L449.746 131.185C448.092 130.807 446.415 130.54 444.726 130.383Z" fill="#EA4385"/>
<path d="M489.206 104.532L493.435 105.494C494.548 105.748 495.599 106.218 496.529 106.879C497.46 107.539 498.251 108.376 498.857 109.343C499.464 110.31 499.875 111.386 500.065 112.511C500.256 113.637 500.223 114.789 499.968 115.901L498.034 124.406C497.516 126.649 496.13 128.595 494.18 129.817C492.23 131.039 489.874 131.436 487.632 130.922L483.402 129.961L489.206 104.532Z" fill="#FAF7F5"/>
<path d="M488.379 135.431C491.52 135.715 494.658 134.85 497.211 132.997C499.764 131.144 501.559 128.429 502.264 125.353L504.196 116.884C504.577 115.216 504.626 113.49 504.34 111.803C504.054 110.116 503.439 108.503 502.529 107.054C501.62 105.605 500.434 104.35 499.04 103.36C497.645 102.37 496.069 101.664 494.402 101.284L485.937 99.3527L478.203 133.23L486.668 135.168C487.232 135.293 487.804 135.382 488.379 135.431ZM492.469 109.774C493.024 109.901 493.549 110.136 494.014 110.466C494.478 110.796 494.873 111.215 495.176 111.698C495.479 112.181 495.684 112.719 495.778 113.281C495.873 113.843 495.856 114.418 495.728 114.974L493.797 123.443C493.537 124.564 492.845 125.537 491.871 126.15C490.897 126.762 489.721 126.964 488.598 126.712L492.469 109.774Z" fill="#28AFC9"/>
<path d="M467.809 139.761L462.007 165.168C461.625 166.839 460.918 168.418 459.926 169.815C458.934 171.212 457.677 172.399 456.226 173.31C454.775 174.221 453.159 174.836 451.47 175.121C449.781 175.407 448.052 175.356 446.383 174.973C444.715 174.593 443.139 173.887 441.744 172.896C440.349 171.906 439.163 170.65 438.253 169.2C437.344 167.751 436.729 166.136 436.444 164.449C436.158 162.761 436.208 161.034 436.59 159.366L442.406 133.96L467.809 139.761Z" fill="white"/>
<path d="M447.722 179.572C451.911 179.954 456.097 178.803 459.504 176.333C462.91 173.862 465.307 170.241 466.249 166.139L473.006 136.492L439.145 128.76L432.388 158.407C431.368 162.899 432.171 167.612 434.621 171.512C437.071 175.412 440.967 178.18 445.455 179.208C446.202 179.38 446.959 179.502 447.722 179.572ZM462.603 143.022L457.77 164.192C457.224 166.403 455.832 168.31 453.894 169.505C451.956 170.699 449.627 171.084 447.408 170.578C445.189 170.072 443.258 168.715 442.029 166.798C440.801 164.881 440.374 162.559 440.84 160.33L445.672 139.16L462.603 143.022Z" fill="#F6A6BF"/>
<path d="M448.207 108.552C450.403 99.3174 451.045 89.7809 450.105 80.3353C453.266 82.3151 456.733 83.7561 460.366 84.5992L477.981 88.6234C479.834 89.0464 481.585 89.8304 483.135 90.9307C484.686 92.031 486.004 93.426 487.015 95.0361C488.026 96.6462 488.71 98.4398 489.029 100.315C489.347 102.189 489.293 104.108 488.87 105.962L483.71 128.542C483.287 130.396 482.503 132.148 481.403 133.699C480.303 135.25 478.908 136.569 477.299 137.581C475.689 138.593 473.896 139.278 472.022 139.597C470.148 139.915 468.23 139.862 466.377 139.438L448.763 135.414C445.113 134.597 441.354 134.386 437.636 134.791C442.59 126.692 446.163 117.824 448.207 108.552Z" fill="#FAF7F5"/>
<path d="M467.925 144.078C472.462 144.486 476.993 143.235 480.679 140.557C484.365 137.879 486.957 133.956 487.974 129.514L493.128 106.927C494.231 102.061 493.361 96.9567 490.709 92.7321C488.057 88.5074 483.839 85.507 478.979 84.3882L461.357 80.3703C458.182 79.6303 455.151 78.3706 452.387 76.642L444.798 71.9397L445.785 80.8194C446.679 89.7805 446.083 98.828 444.02 107.594C442.085 116.388 438.705 124.8 434.018 132.488L429.276 140.063L438.155 139.116C441.394 138.761 444.67 138.944 447.85 139.657L465.471 143.682C466.28 143.867 467.099 144 467.925 144.078ZM454.865 87.4874C456.35 88.0331 457.869 88.4844 459.411 88.8384L477.026 92.8557C479.643 93.4587 481.915 95.0746 483.344 97.3497C484.772 99.6248 485.241 102.374 484.649 104.994L479.495 127.581C478.895 130.202 477.28 132.477 475.005 133.907C472.73 135.337 469.98 135.805 467.361 135.209L449.746 131.185C448.202 130.832 446.637 130.579 445.06 130.428C451.592 117.061 454.948 102.365 454.865 87.4874Z" fill="#F6A6BF"/>
<path d="M352.118 86.6129C345.176 117.033 353.054 144.747 369.688 148.547C386.321 152.346 405.47 130.788 412.41 100.382C419.351 69.9755 411.481 42.2485 394.84 38.4483C378.2 34.648 359.057 56.2136 352.118 86.6129Z" fill="white"/>
<path d="M371.597 153.24C390.06 154.942 409.453 132.969 416.667 101.352C420.205 85.9507 420.209 70.6185 416.661 58.2908C412.885 44.9961 405.481 36.4566 395.806 34.2515C376.499 29.8313 355.477 52.4166 347.885 85.6783C344.347 101.08 344.344 116.412 347.888 128.782C351.664 142.069 359.068 150.609 368.735 152.82C369.679 153.022 370.635 153.162 371.597 153.24ZM392.16 42.4076C392.738 42.4619 393.312 42.5549 393.878 42.6859C400.318 44.1551 405.445 50.5293 408.31 60.6268C411.436 71.6379 411.399 85.4141 408.2 99.4422C401.911 126.986 384.711 147.531 370.675 144.338C364.235 142.868 359.108 136.494 356.237 126.389C353.111 115.378 353.154 101.602 356.354 87.5744C362.384 61.1432 378.454 41.1439 392.16 42.4076Z" fill="#F6A6BF"/>
<path d="M366.119 89.8088C361.49 110.079 364.973 128.161 373.901 130.199C382.829 132.236 393.81 117.457 398.441 97.1657C403.073 76.874 399.581 58.8124 390.66 56.7756C381.739 54.7389 370.735 69.5369 366.119 89.8088Z" fill="#F6A6BF"/>
<path d="M374.502 134.688C380.099 135.204 386.025 131.698 391.262 124.649C396.248 117.943 400.298 108.54 402.666 98.1695C405.034 87.7991 405.471 77.5542 403.915 69.342C402.096 59.9197 397.743 53.9487 391.639 52.5741C385.536 51.1995 379.035 54.6592 373.315 62.3558C368.322 69.0604 364.279 78.4646 361.904 88.8344C356.575 112.175 361.329 131.772 372.952 134.432C373.462 134.551 373.98 134.636 374.502 134.688ZM389.291 60.9698C389.425 60.9746 389.558 60.9869 389.69 61.0066C392.115 61.562 394.297 65.3704 395.369 70.9542C396.73 78.0047 396.312 86.9666 394.204 96.1963C392.097 105.426 388.583 113.679 384.298 119.439C380.906 124.005 377.297 126.495 374.871 125.94C370.035 124.831 365.826 110.564 370.357 90.7503C372.464 81.5206 375.985 73.2613 380.264 67.5002C383.467 63.2142 386.884 60.7479 389.291 60.9698Z" fill="#F6A6BF"/>
<path d="M371.289 89.6714C371.973 86.6577 373.357 83.8474 375.328 81.468C377.299 79.0885 379.802 77.2067 382.635 75.9749C385.468 74.7432 388.551 74.196 391.635 74.3778C394.718 74.5597 397.716 75.4653 400.384 77.0215C400.63 83.8002 399.966 90.5814 398.411 97.1841C397.142 102.85 395.25 108.357 392.768 113.606C389.636 113.98 386.459 113.595 383.507 112.484C380.555 111.373 377.914 109.568 375.805 107.221C373.697 104.874 372.183 102.055 371.392 99C370.602 95.9452 370.557 92.7449 371.261 89.6688L371.289 89.6714Z" fill="white"/>
<path d="M388.215 117.993C389.908 118.147 391.614 118.122 393.302 117.919L395.67 117.643L396.708 115.494C399.334 109.954 401.333 104.139 402.668 98.1554C404.312 91.1675 405.013 83.9907 404.75 76.8169L404.637 74.4557L402.596 73.251C399.335 71.3571 395.675 70.2564 391.911 70.0378C388.147 69.8192 384.384 70.4888 380.926 71.9925C377.468 73.4962 374.412 75.792 372.003 78.6946C369.595 81.5972 367.902 85.0254 367.061 88.7027C365.641 94.9236 366.747 101.454 370.137 106.858C373.527 112.263 378.923 116.1 385.139 117.526C386.153 117.751 387.18 117.907 388.215 117.993ZM389.946 109.4C387.808 109.325 385.709 108.805 383.785 107.871C381.86 106.938 380.151 105.612 378.768 103.979C377.385 102.347 376.359 100.443 375.755 98.3896C375.151 96.3366 374.982 94.1798 375.26 92.0577C375.538 89.9356 376.256 87.8949 377.368 86.0665C378.48 84.2381 379.962 82.6624 381.719 81.4404C383.475 80.2184 385.467 79.3772 387.568 78.9706C389.668 78.5639 391.83 78.601 393.915 79.0792C394.673 79.2487 395.416 79.4777 396.138 79.7642C396.113 85.3061 395.464 90.8276 394.203 96.2243C393.181 100.735 391.757 105.144 389.946 109.4Z" fill="#F6A6BF"/>
<path d="M202.017 355.16L288.524 362.642C289.671 362.748 290.813 362.394 291.699 361.657C292.584 360.921 293.141 359.863 293.247 358.715C293.353 357.568 292.999 356.426 292.263 355.54C291.527 354.654 290.469 354.097 289.323 353.991L202.815 346.509C201.669 346.403 200.527 346.758 199.641 347.494C198.755 348.231 198.198 349.289 198.092 350.436C197.987 351.583 198.341 352.726 199.077 353.612C199.813 354.498 200.87 355.055 202.017 355.16Z" fill="#EA4385"/>
<path d="M447.755 347.358C448.749 347.451 449.744 347.198 450.573 346.644C479.038 327.553 499.232 298.398 507.102 265.032C514.973 231.665 509.936 196.557 493.004 166.756C492.725 166.253 492.35 165.809 491.899 165.452C491.449 165.095 490.932 164.831 490.378 164.675C489.824 164.52 489.246 164.476 488.675 164.546C488.104 164.616 487.553 164.799 487.053 165.084C486.554 165.369 486.116 165.75 485.764 166.205C485.413 166.661 485.156 167.182 485.008 167.738C484.859 168.294 484.823 168.873 484.9 169.443C484.978 170.013 485.168 170.562 485.459 171.058C501.312 198.95 506.029 231.811 498.663 263.043C491.297 294.274 472.394 321.563 445.749 339.429C444.993 339.924 444.411 340.643 444.083 341.485C443.756 342.327 443.699 343.25 443.921 344.126C444.144 345.002 444.634 345.786 445.323 346.369C446.013 346.953 446.867 347.306 447.767 347.38L447.755 347.358Z" fill="#F6A6BF"/>
<path d="M123.792 90.6056C124.238 90.6474 124.688 90.6199 125.126 90.5239C137.671 87.7702 150.562 86.9403 163.356 88.0627C164.503 88.1684 165.645 87.8141 166.531 87.0776C167.416 86.3411 167.974 85.2828 168.079 84.1356C168.185 82.9883 167.831 81.846 167.095 80.96C166.359 80.074 165.301 79.5169 164.155 79.4111C150.486 78.2166 136.715 79.1033 123.312 82.041C122.304 82.2617 121.407 82.8347 120.782 83.657C120.158 84.4793 119.846 85.4973 119.904 86.5284C119.962 87.5594 120.385 88.5361 121.097 89.2833C121.81 90.0305 122.765 90.4993 123.792 90.6056Z" fill="#FFFEF1"/>
<path d="M139.919 349.788L140.688 349.859L167.989 352.221C169.109 352.279 170.208 351.901 171.056 351.167C171.903 350.432 172.434 349.398 172.538 348.281C172.641 347.164 172.308 346.05 171.609 345.173C170.909 344.296 169.898 343.724 168.786 343.576L141.487 341.207L140.787 341.143C71.3823 334.744 19.9256 273.236 25.9479 203.687C27.3698 186.929 32.1201 170.623 39.9203 155.723C40.4338 154.705 40.5262 153.525 40.1775 152.439C39.8288 151.353 39.0671 150.447 38.0568 149.919C37.0465 149.39 35.8688 149.28 34.778 149.612C33.6872 149.945 32.7709 150.693 32.2269 151.696C23.8748 167.599 18.7759 185.008 17.2284 202.904C10.7649 277.234 65.7775 342.952 139.919 349.788Z" fill="#F6A6BF"/>
<path fill-rule="evenodd" clip-rule="evenodd" d="M268.926 161.088L268.926 161.352C268.951 161.312 268.964 161.266 268.964 161.22C268.964 161.173 268.951 161.127 268.926 161.088Z" fill="#241D50"/>
<path fill-rule="evenodd" clip-rule="evenodd" d="M268.907 161.354C267.545 163.39 233.035 157.458 233.035 157.458C233.035 157.458 214.084 190.24 230.098 225.318C241.074 248.175 250.29 263.089 248.932 288.833C238.517 290.977 239.379 298.506 245.959 298.205C247.192 298.205 253.201 298.311 254.05 298.24C262.084 297.525 256.905 264.667 255.031 254.395C254.632 252.495 254.468 251.345 254.468 251.345C254.468 251.345 254.689 252.481 255.031 254.395C256.627 261.952 261.964 281.474 275.701 288.616C274.681 288.051 269.356 288.409 265.72 290.11C258.827 293.325 254.114 299.269 269.127 298.203C287.833 298.629 305.847 298.163 305.847 298.163C305.847 298.163 355.395 271.563 312.777 227.895C291.222 205.811 264.06 218.278 268.907 161.354Z" fill="#241D50"/>
<path fill-rule="evenodd" clip-rule="evenodd" d="M255.034 254.425C254.692 252.51 254.471 251.374 254.471 251.374C254.471 251.374 254.635 252.524 255.034 254.425Z" fill="#241D50"/>
<path d="M361.305 172.276C338.243 179.421 331.509 213.866 326.999 263.419C326.356 270.434 323.11 291.642 301.039 297.266C301.117 297.445 301.189 297.616 301.26 297.795C331.878 300.649 345.112 271.903 346.997 246.695C350.416 209.157 355.166 184.12 375.418 190.618C384.229 194.524 388.937 164.165 361.305 172.276Z" fill="#2A2460"/>
<path fill-rule="evenodd" clip-rule="evenodd" d="M292.127 133.818C286.181 134.498 275.88 135.849 274.782 137.192C265.923 126.764 248.187 125.873 243.09 125.845L221.214 107.461C220.869 107.169 220.454 106.972 220.01 106.89C219.567 106.808 219.109 106.844 218.683 106.993C218.256 107.142 217.876 107.4 217.58 107.742C217.284 108.083 217.082 108.497 216.994 108.94C215.496 116.498 212.571 131.406 212.814 131.849C187.624 168.609 236.91 185.676 256.343 183.888C279.048 179.535 284.359 171.985 286.998 164.598C290.043 156.026 288.803 154.512 288.803 154.512L294.899 137.368C295.053 136.945 295.097 136.488 295.026 136.043C294.955 135.597 294.773 135.177 294.496 134.822C294.218 134.467 293.855 134.189 293.441 134.013C293.026 133.838 292.574 133.77 292.127 133.818Z" fill="#2A2460"/>
<path d="M255.183 166.681C253.208 167.575 251.797 167.682 251.212 167.003C250.5 166.189 250.849 164.389 251.084 163.853L251.198 163.703C251.295 163.578 251.347 163.425 251.347 163.268C251.347 163.11 251.295 162.957 251.199 162.832C251.109 162.698 250.978 162.599 250.825 162.55C250.673 162.501 250.508 162.504 250.357 162.561C250.149 162.657 249.979 162.821 249.873 163.025C248.447 164.875 246.971 165.725 245.595 165.561C242.323 165.197 239.95 159.776 239.95 159.705C239.912 159.617 239.858 159.537 239.79 159.47C239.722 159.404 239.641 159.351 239.553 159.316C239.465 159.28 239.371 159.262 239.275 159.264C239.18 159.265 239.086 159.285 238.998 159.323C238.911 159.36 238.832 159.415 238.765 159.483C238.698 159.551 238.646 159.632 238.611 159.72C238.575 159.808 238.558 159.903 238.559 159.999C238.56 160.094 238.579 160.188 238.617 160.276C238.724 160.533 241.325 166.519 245.395 167.011C246.111 167.077 246.833 166.992 247.515 166.762C248.196 166.532 248.822 166.161 249.352 165.675C249.338 166.175 249.437 166.671 249.638 167.129C249.841 167.586 250.142 167.992 250.521 168.318C250.945 168.595 251.422 168.779 251.922 168.859C252.422 168.939 252.933 168.912 253.422 168.782C254.236 168.612 255.028 168.349 255.782 167.996C255.87 167.959 255.949 167.904 256.016 167.835C256.083 167.766 256.135 167.685 256.169 167.596C256.204 167.506 256.22 167.411 256.217 167.315C256.214 167.219 256.192 167.126 256.152 167.039C256.114 166.949 256.058 166.869 255.988 166.803C255.918 166.736 255.835 166.685 255.744 166.651C255.653 166.618 255.557 166.604 255.46 166.609C255.364 166.614 255.27 166.639 255.183 166.681Z" fill="white"/>
<path fill-rule="evenodd" clip-rule="evenodd" d="M252.282 158.196C252.425 158.196 244.249 151.518 250.913 163.103C250.913 163.103 262.441 157.438 252.282 158.196Z" fill="url(#paint0_linear_1117_49)"/>
<path fill-rule="evenodd" clip-rule="evenodd" d="M195.842 145.772C196.754 145.594 210.641 144.399 226.493 155.311C226.493 155.311 210.114 140.935 195.842 145.772Z" fill="white"/>
<path fill-rule="evenodd" clip-rule="evenodd" d="M195.084 156.915C195.868 156.479 208.236 151.299 225.793 156.661C225.793 156.661 206.775 148.278 195.084 156.915Z" fill="white"/>
<path fill-rule="evenodd" clip-rule="evenodd" d="M267.451 167.518C281.544 168.723 288.651 176.165 288.544 176.158C282.899 167.009 267.451 167.518 267.451 167.518Z" fill="white"/>
<path fill-rule="evenodd" clip-rule="evenodd" d="M267.23 168.575C279.726 173.759 284.06 182.673 283.967 182.637C281.445 172.559 267.23 168.575 267.23 168.575Z" fill="white"/>
<path opacity="0.21" fill-rule="evenodd" clip-rule="evenodd" d="M220.472 113.517C216.844 114.196 219.088 129.375 219.088 129.375C223.365 126.506 228.392 124.966 233.538 124.944C233.538 124.944 224.094 112.845 220.472 113.517Z" fill="white"/>
<path opacity="0.21" fill-rule="evenodd" clip-rule="evenodd" d="M288.005 138.77C285.575 138.056 278.025 140.914 278.025 140.914C282.794 141.756 285.609 147.592 285.609 147.592C285.609 147.592 290.443 139.47 288.005 138.77Z" fill="white"/>
<defs>
<linearGradient id="paint0_linear_1117_49" x1="248.297" y1="159.689" x2="256.467" y2="159.69" gradientUnits="userSpaceOnUse">
<stop stop-color="#EC6588"/>
<stop offset="1" stop-color="#E71A80"/>
</linearGradient>
</defs>
</svg>
