<svg width="193" height="158" viewBox="0 0 193 158" fill="none" xmlns="http://www.w3.org/2000/svg">
<g opacity="0.05">
<path d="M128.186 0.437904C112.735 4.47583 103.464 23.7758 109.98 38.2849C118.243 56.6267 143.1 54.2313 152.371 34.247C154.32 30.0038 154.521 29.0456 154.521 22.7492C154.521 16.6581 154.32 15.4946 152.64 12.0042C150.558 7.76093 146.997 4.06519 142.63 1.80669C139.473 0.164146 132.016 -0.520248 128.186 0.437904ZM138.734 12.2779C142.227 14.7418 143.638 17.1371 143.974 21.2435C145.183 36.5055 126.91 46.5661 120.124 34.3154C113.675 22.7492 128.455 5.22866 138.734 12.2779Z" fill="#F6A6BF"/>
<path d="M51.5948 1.60341C47.4968 3.10908 42.391 8.10516 40.174 12.6906C38.4945 16.181 38.293 17.3445 38.293 23.4356C38.293 29.732 38.4945 30.6902 40.4428 34.9334C44.8095 44.3781 53.2744 50.5376 62.6126 51.0167C68.9276 51.3589 73.16 49.9217 77.5268 45.9522C87.8727 36.5076 87.4024 19.3292 76.5191 8.24204C71.4805 3.10908 66.6434 0.919014 59.791 0.713696C56.2304 0.576817 53.4759 0.919014 51.5948 1.60341ZM64.6952 12.759C70.1369 15.6335 73.5631 21.0402 74.1006 27.542C75.3098 43.0777 56.7678 44.9256 50.1169 29.9374C47.4296 23.8462 48.8404 16.2495 53.3416 13.1012C56.3647 11.0481 61.1346 10.9112 64.6952 12.759Z" fill="#F6A6BF"/>
<path d="M165.939 46.5668C157.139 48.8938 150.824 53.9583 146.994 61.9657C144.576 66.8249 144.441 67.5777 144.441 73.3267C144.441 78.4596 144.71 80.1022 145.987 82.7029C148.002 86.8777 151.428 90.4365 155.728 92.7635C158.818 94.406 159.96 94.6113 165.671 94.6113C171.717 94.6113 172.322 94.4744 177.091 92.0791C196.104 82.4975 198.657 57.0381 181.593 48.4831C176.621 45.9509 170.911 45.2665 165.939 46.5668ZM177.629 58.5437C181.996 61.8288 183.272 66.5511 181.391 72.3001C178.569 81.0603 167.552 86.5355 160.229 82.7713C153.041 79.144 152.973 68.9465 160.162 61.8288C165.066 56.9696 173.464 55.3955 177.629 58.5437Z" fill="#F6A6BF"/>
<path d="M14.0409 49.0966C8.80074 50.8076 4.36678 54.7086 1.88107 59.91C0.268725 63.2636 0 64.6324 0 69.6969C0 75.0352 0.201544 75.9249 2.55289 80.7156C11.9583 100.152 37.4199 102.616 46.5566 85.0273C48.1689 82.016 48.3705 80.8525 48.3705 75.1036C48.3033 69.4231 48.1017 68.1228 46.4222 64.7008C42.5929 56.6249 34.7999 50.1916 26.6709 48.4806C21.7667 47.454 18.8107 47.5909 14.0409 49.0966ZM28.2833 60.4575C36.0091 64.2217 40.1072 74.0086 36.7481 80.5787C35.203 83.5216 30.6346 86.0539 26.8725 86.0539C18.8107 86.0539 10.4131 77.2937 10.4131 69.0125C10.4131 65.2483 13.3691 61.0051 17.1312 59.431C19.4154 58.4044 25.193 58.9519 28.2833 60.4575Z" fill="#F6A6BF"/>
<path d="M87.0714 64.566C78.2035 66.9614 69.4699 74.4213 65.3719 83.25C63.0205 88.1776 62.8862 88.3145 58.0491 90.7099C54.4885 92.4209 51.8013 94.4056 48.7109 97.6223C29.9002 117.128 38.7681 149.294 64.8344 156.206C73.7695 158.602 85.3919 156.343 92.9833 150.868L96.4096 148.336L99.8358 150.868C107.293 156.343 118.311 158.465 127.582 156.275C143.235 152.511 154.185 138.275 154.185 121.781C154.185 108.983 146.191 96.2535 134.703 90.6414C129.731 88.1776 129.664 88.1092 127.38 83.1815C123.282 74.1475 113.944 66.4139 104.471 64.2238C100.172 63.1972 91.371 63.4025 87.0714 64.566ZM104.74 75.8585C111.391 78.3223 117.37 85.0979 119.318 92.2156C120.46 96.3219 121.535 97.5538 125.298 98.6489C130.403 100.223 133.494 102.139 136.92 105.835C141.757 111.105 143.101 114.527 143.101 121.987C143.101 127.188 142.832 128.694 141.354 131.979C138.868 137.386 135.308 141.081 130.135 143.682C126.104 145.735 125.096 145.941 119.587 145.941C114.347 145.941 113.071 145.667 109.779 144.093C107.696 142.998 104.337 140.465 102.254 138.412C97.2158 133.348 95.6706 133.348 90.4976 138.412C88.415 140.534 84.9888 143.066 82.9733 144.093C79.7486 145.667 78.4722 145.941 73.2321 145.941C68.1263 145.941 66.5811 145.667 63.4236 144.161C58.1163 141.629 54.4885 138.002 51.9356 132.732C49.9202 128.557 49.7186 127.599 49.7186 121.987C49.7858 114.527 51.1295 111.036 55.8993 105.835C59.3256 102.139 62.4159 100.223 67.5217 98.6489C71.2838 97.5538 72.3587 96.3219 73.5008 92.2156C75.4491 85.1663 81.4282 78.3908 87.8776 75.8585C92.6474 74.0107 99.903 73.9422 104.74 75.8585Z" fill="#F6A6BF"/>
</g>
</svg>
