<svg width="225" height="160" viewBox="0 0 225 160" fill="none" xmlns="http://www.w3.org/2000/svg">
<g clip-path="url(#clip0_18_1128)">
<path d="M68.1765 25.936L166.733 25.3579C198.736 25.1766 224.816 51.1782 224.999 83.4326C225.179 115.696 199.39 141.992 167.393 142.179L68.8181 142.738C36.8244 142.92 10.7411 116.918 10.552 84.6606C10.3785 52.4 36.1705 26.1016 68.1765 25.936Z" fill="#FAF7F5"/>
<path d="M169.397 148.404C167.956 153.091 170.637 158.091 175.373 159.585C180.108 161.078 185.126 158.46 186.567 153.763C188.008 149.066 185.328 144.076 180.592 142.586C175.856 141.095 170.839 143.711 169.397 148.404Z" fill="#FFFEF1"/>
<path d="M179.13 153.369C181.08 153.379 182.983 152.758 184.558 151.6C186.134 150.441 187.301 148.804 187.888 146.929C188.243 145.771 188.364 144.553 188.244 143.347C188.124 142.141 187.765 140.971 187.188 139.908C186.329 138.299 185.02 136.98 183.425 136.113C181.829 135.247 180.017 134.871 178.212 135.032C176.407 135.193 174.688 135.885 173.269 137.021C171.849 138.157 170.791 139.687 170.226 141.423C169.527 143.771 169.781 146.303 170.93 148.463C172.08 150.624 174.032 152.236 176.359 152.947C177.256 153.228 178.191 153.37 179.13 153.369ZM178.99 138.845C179.543 138.846 180.093 138.93 180.621 139.095C181.993 139.516 183.145 140.466 183.825 141.739C184.16 142.354 184.368 143.03 184.438 143.728C184.507 144.426 184.436 145.131 184.228 145.801C183.954 146.776 183.416 147.655 182.674 148.339C181.932 149.023 181.016 149.486 180.028 149.674C179.04 149.863 178.02 149.77 177.081 149.407C176.143 149.043 175.323 148.423 174.715 147.616C174.106 146.81 173.733 145.848 173.636 144.839C173.539 143.83 173.723 142.814 174.167 141.904C174.611 140.995 175.297 140.228 176.149 139.69C177.001 139.152 177.985 138.864 178.99 138.858V138.845Z" fill="#28AFC9"/>
<path d="M24.2627 36.779C15.8327 32.273 5.71982 34.8541 1.67219 42.5474C-2.37544 50.2407 1.17632 60.1339 9.6063 64.6399C18.0363 69.1459 28.1491 66.5585 32.1968 58.8715C36.2444 51.1844 32.6927 41.2881 24.2627 36.779Z" fill="#FFFEF1"/>
<path d="M23.6497 70.9709C29.5879 70.9709 35.1449 68.0148 37.9249 62.7276C42.0748 54.8374 38.4983 44.6974 29.9536 40.1289C25.9555 37.9448 21.2937 37.3409 16.8778 38.4353C12.4862 39.5571 8.94991 42.2975 6.923 46.1504C4.89608 50.0033 4.62645 54.4937 6.16988 58.7872C7.75 63.0853 10.8615 66.6357 14.8974 68.746C17.5903 70.1986 20.5957 70.9625 23.6497 70.9709ZM28.156 43.5381C34.838 47.1129 37.7018 54.9093 34.5405 60.9183C31.3793 66.9273 23.3832 68.9085 16.6919 65.3337C13.4964 63.6708 11.0293 60.8681 9.77122 57.4717C8.6028 54.2156 8.79187 50.8345 10.3074 47.9566C11.8229 45.0786 14.4883 43.0256 17.8169 42.1757C21.3125 41.3196 24.999 41.8053 28.1591 43.5381H28.156Z" fill="#28AFC9"/>
<path d="M191.527 24.539L199.427 25.6015C200.258 25.7131 201.059 25.9886 201.785 26.4124C202.51 26.8362 203.146 27.3999 203.655 28.0714C204.165 28.7428 204.538 29.5088 204.754 30.3257C204.969 31.1426 205.024 31.9943 204.913 32.8323L203.562 43.0379C203.451 43.8759 203.178 44.6837 202.757 45.4151C202.337 46.1466 201.778 46.7874 201.112 47.301C200.446 47.8146 199.686 48.1909 198.876 48.4084C198.066 48.626 197.221 48.6805 196.39 48.5689L188.49 47.5064C186.606 47.2546 184.691 47.367 182.849 47.8377L155.65 54.781L161.722 8.84619L186.165 22.7298C187.822 23.6719 189.642 24.286 191.527 24.539Z" fill="#FFFEF1"/>
<path d="M153.375 57.3529L183.317 49.7096C184.926 49.2978 186.599 49.2002 188.245 49.4221L196.145 50.4846C198.326 50.7741 200.531 50.1803 202.279 48.8331C204.026 47.486 205.173 45.4954 205.467 43.2975L206.816 33.0887C207.103 30.8899 206.514 28.6659 205.178 26.904C203.841 25.1422 201.867 23.9862 199.687 23.6893L191.784 22.63C190.14 22.4149 188.551 21.8846 187.104 21.0676L160.193 5.76221L153.375 57.3529ZM186.512 45.4443C185.118 45.4433 183.729 45.6186 182.378 45.9661L157.919 52.2157L163.243 11.9275L185.226 24.4267C187.095 25.4924 189.15 26.1862 191.279 26.4704L199.179 27.5141C200.353 27.6742 201.416 28.2968 202.136 29.2456C202.856 30.1943 203.173 31.392 203.019 32.5763L201.671 42.785C201.513 43.9691 200.895 45.0416 199.954 45.7674C199.013 46.4932 197.825 46.813 196.65 46.6567L188.75 45.5942C188.008 45.4946 187.261 45.4445 186.512 45.4443Z" fill="#EA4385"/>
<path d="M205.003 32.1855L206.899 32.4387C207.398 32.5056 207.879 32.671 208.315 32.9254C208.75 33.1798 209.131 33.5182 209.437 33.9213C209.743 34.3243 209.967 34.7842 210.096 35.2745C210.225 35.7649 210.258 36.2761 210.191 36.779L209.686 40.6226C209.549 41.6366 209.019 42.5547 208.212 43.1751C207.405 43.7956 206.387 44.0677 205.381 43.9317L203.484 43.6786L205.003 32.1855Z" fill="#FAF7F5"/>
<path d="M205.891 45.8973C207.282 45.8947 208.625 45.3838 209.671 44.4594C210.717 43.535 211.396 42.2596 211.581 40.8695L212.086 37.0416C212.186 36.2877 212.138 35.5215 211.944 34.7865C211.75 34.0515 211.414 33.3623 210.956 32.7581C210.498 32.154 209.926 31.6468 209.273 31.2654C208.621 30.8841 207.9 30.6361 207.152 30.5357L203.356 30.0264L201.332 45.338L205.128 45.8504C205.381 45.8831 205.636 45.8987 205.891 45.8973ZM206.647 34.373C206.896 34.4065 207.136 34.4891 207.354 34.6163C207.571 34.7434 207.762 34.9125 207.914 35.1139C208.067 35.3153 208.178 35.5451 208.243 35.7901C208.307 36.0351 208.323 36.2904 208.29 36.5416L207.784 40.3695C207.716 40.8764 207.451 41.3353 207.048 41.6461C206.645 41.957 206.137 42.0945 205.634 42.0288L206.647 34.373Z" fill="#28AFC9"/>
<path d="M197.031 48.6532L195.513 60.1369C195.413 60.8919 195.166 61.6197 194.787 62.2786C194.408 62.9374 193.904 63.5145 193.303 63.9768C192.703 64.4391 192.018 64.7776 191.288 64.9728C190.558 65.1681 189.796 65.2163 189.048 65.1148C188.3 65.0143 187.579 64.7663 186.926 64.3848C186.273 64.0032 185.701 63.4957 185.243 62.8912C184.784 62.2867 184.449 61.5971 184.255 60.8618C184.061 60.1265 184.013 59.3599 184.114 58.6058L185.638 47.1221L197.031 48.6532Z" fill="white"/>
<path d="M189.822 67.0961C191.678 67.0939 193.47 66.4135 194.866 65.1811C196.262 63.9486 197.168 62.2476 197.415 60.3933L199.182 46.9941L183.995 44.9536L182.229 58.3528C181.963 60.3829 182.507 62.4365 183.741 64.0628C184.975 65.6891 186.799 66.7553 188.812 67.0273C189.146 67.0732 189.484 67.0961 189.822 67.0961ZM194.877 50.3096L193.612 59.8777C193.462 60.8785 192.928 61.7798 192.125 62.3876C191.322 62.9953 190.315 63.261 189.32 63.1275C188.324 62.994 187.421 62.472 186.804 61.6737C186.187 60.8754 185.905 59.8647 186.019 58.8591L187.284 49.2909L194.877 50.3096Z" fill="#F6A6BF"/>
<path d="M187.157 35.6383C187.748 31.4608 187.643 27.2131 186.847 23.0703C188.316 23.8177 189.897 24.314 191.527 24.539L199.427 25.6014C200.258 25.713 201.059 25.9886 201.785 26.4124C202.51 26.8361 203.146 27.3999 203.655 28.0713C204.165 28.7428 204.538 29.5088 204.754 30.3257C204.969 31.1426 205.024 31.9943 204.913 32.8322L203.562 43.0379C203.451 43.8758 203.178 44.6836 202.757 45.4151C202.337 46.1465 201.778 46.7874 201.112 47.3009C200.446 47.8145 199.686 48.1909 198.876 48.4084C198.066 48.6259 197.221 48.6804 196.39 48.5688L188.49 47.5064C186.854 47.2935 185.194 47.3537 183.578 47.6845C185.425 43.8971 186.635 39.8261 187.157 35.6383Z" fill="#FAF7F5"/>
<path d="M197.257 50.5594C199.266 50.5546 201.206 49.816 202.716 48.4802C204.227 47.1445 205.206 45.3021 205.473 43.2942L206.821 33.0854C207.109 30.8865 206.52 28.6625 205.183 26.9007C203.847 25.1389 201.873 23.9828 199.693 23.6859L191.79 22.6266C190.365 22.4286 188.983 21.9947 187.699 21.3423L184.175 19.5706L184.969 23.461C185.724 27.3912 185.829 31.4205 185.278 35.3853C184.785 39.3569 183.641 43.2184 181.894 46.8127L180.118 50.3594L183.98 49.5782C185.388 49.2886 186.834 49.2358 188.26 49.4219L196.163 50.4844C196.526 50.5333 196.891 50.5584 197.257 50.5594ZM189.227 26.042C189.902 26.223 190.587 26.3607 191.279 26.4545L199.179 27.5138C200.353 27.674 201.416 28.2966 202.136 29.2453C202.855 30.1941 203.173 31.3917 203.019 32.576L201.67 42.7848C201.513 43.9692 200.896 45.0422 199.955 45.7682C199.013 46.4941 197.825 46.8136 196.65 46.6565L188.75 45.594C188.057 45.5007 187.359 45.4527 186.661 45.4503C188.988 39.2667 189.866 32.6244 189.227 26.042Z" fill="#F6A6BF"/>
<path d="M144.062 29.8484C142.245 43.5976 146.829 55.5437 154.289 56.5468C161.749 57.5499 169.286 47.2255 171.103 33.4825C172.919 19.7396 168.338 7.78717 160.875 6.7841C153.412 5.78103 145.878 16.1086 144.062 29.8484Z" fill="white"/>
<path d="M155.318 58.5465C163.497 58.5465 171.125 48.0284 173.012 33.7386C173.942 26.7765 173.322 19.9894 171.264 14.6772C169.067 8.94628 165.469 5.46835 161.13 4.88714C152.47 3.71846 144.152 14.5741 142.165 29.6076C141.235 36.5697 141.855 43.3568 143.913 48.6877C146.111 54.4155 149.709 57.8934 154.045 58.4777C154.467 58.5285 154.893 58.5515 155.318 58.5465ZM159.859 8.64629C160.115 8.64676 160.371 8.66451 160.624 8.69942C163.513 9.08689 166.023 11.6992 167.691 16.0521C169.51 20.7987 170.052 26.8983 169.216 33.2386C167.57 45.6879 160.848 55.4842 154.553 54.6436C151.664 54.2561 149.154 51.6438 147.484 47.2878C145.664 42.5412 145.125 36.4415 145.962 30.1013C147.539 18.1551 153.787 8.64629 159.859 8.64629Z" fill="#F6A6BF"/>
<path d="M150.34 30.6919C149.128 39.8539 151.391 47.7159 155.395 48.2534C159.399 48.7908 163.624 41.8006 164.836 32.6293C166.047 23.4579 163.782 15.6053 159.781 15.0678C155.779 14.5303 151.546 21.5299 150.34 30.6919Z" fill="#F6A6BF"/>
<path d="M155.843 50.2157C158.322 50.2157 160.783 48.4221 162.798 45.0879C164.716 41.9162 166.114 37.5883 166.734 32.9011C167.354 28.2139 167.13 23.661 166.114 20.0894C164.933 15.9927 162.779 13.5273 160.042 13.1679C157.306 12.8086 154.591 14.6053 152.39 18.2457C150.469 21.4174 149.074 25.7453 148.451 30.4325C147.057 40.9819 149.939 49.4626 155.152 50.1657C155.381 50.1975 155.612 50.2142 155.843 50.2157ZM159.351 16.9802C159.41 16.9769 159.469 16.9769 159.528 16.9802C160.616 17.127 161.728 18.7238 162.426 21.1518C163.309 24.2173 163.489 28.2014 162.937 32.373C162.386 36.5447 161.177 40.3413 159.528 43.0662C158.223 45.2254 156.739 46.4753 155.651 46.3285C153.481 46.0347 151.055 39.8913 152.242 30.9356C152.793 26.764 154.005 22.9642 155.651 20.2394C156.884 18.2114 158.285 16.9802 159.351 16.9802Z" fill="#F6A6BF"/>
<path d="M152.607 30.4199C152.785 29.058 153.279 27.7575 154.048 26.6238C154.817 25.49 155.841 24.5549 157.035 23.894C158.23 23.2331 159.562 22.8651 160.923 22.8197C162.285 22.7743 163.638 23.0529 164.873 23.6328C165.256 26.6235 165.239 29.6524 164.824 32.6386C164.496 35.1983 163.888 37.7135 163.011 40.1381C161.65 40.4316 160.24 40.391 158.898 40.0196C157.556 39.6482 156.323 38.957 155.301 38.0043C154.28 37.0515 153.501 35.8651 153.03 34.5451C152.559 33.2252 152.409 31.8104 152.594 30.4199H152.607Z" fill="white"/>
<path d="M161.188 42.2663C161.938 42.2653 162.686 42.1847 163.419 42.0257L164.448 41.807L164.817 40.8133C165.746 38.254 166.388 35.5981 166.732 32.895C167.171 29.7346 167.188 26.5292 166.782 23.3643L166.636 22.3238L165.691 21.8738C164.182 21.1685 162.53 20.8306 160.868 20.8875C159.205 20.9444 157.58 21.3943 156.122 22.2011C154.664 23.0079 153.414 24.1489 152.474 25.532C151.534 26.9152 150.929 28.5018 150.709 30.1639C150.337 32.9756 151.088 35.8211 152.796 38.0752C154.504 40.3292 157.029 41.8075 159.818 42.1851C160.272 42.2433 160.73 42.2705 161.188 42.2663ZM161.6 38.3916C160.658 38.4459 159.715 38.3011 158.831 37.9665C157.948 37.6319 157.144 37.1148 156.47 36.4485C155.797 35.7821 155.269 34.9812 154.92 34.0971C154.572 33.213 154.41 32.2652 154.446 31.3144C154.482 30.3637 154.715 29.4311 155.129 28.5763C155.544 27.7216 156.131 26.9636 156.853 26.351C157.575 25.7384 158.416 25.2847 159.322 25.0189C160.228 24.7532 161.179 24.6814 162.114 24.808C162.454 24.8521 162.79 24.9231 163.118 25.0205C163.332 27.4747 163.271 29.9453 162.936 32.3857C162.67 34.4239 162.223 36.434 161.6 38.3916Z" fill="#F6A6BF"/>
<path d="M89.0164 154.85L127.317 154.632C127.825 154.632 128.312 154.428 128.671 154.066C129.031 153.704 129.232 153.213 129.232 152.7C129.232 152.188 129.031 151.697 128.671 151.335C128.312 150.973 127.825 150.769 127.317 150.769L89.0164 150.988C88.5084 150.988 88.0213 151.191 87.6621 151.554C87.3029 151.916 87.1011 152.407 87.1011 152.919C87.1011 153.431 87.3029 153.922 87.6621 154.285C88.0213 154.647 88.5084 154.85 89.0164 154.85Z" fill="#EA4385"/>
<path d="M196.637 141.367C197.077 141.367 197.504 141.215 197.846 140.936C209.575 131.323 217.263 117.593 219.368 102.502C221.472 87.4108 217.837 72.0755 209.192 59.5747C209.049 59.3632 208.867 59.1823 208.654 59.0426C208.442 58.9029 208.204 58.8072 207.954 58.7609C207.705 58.7146 207.449 58.7187 207.201 58.7731C206.953 58.8274 206.718 58.9308 206.511 59.0773C206.303 59.2238 206.126 59.4105 205.99 59.6265C205.854 59.8425 205.762 60.0835 205.72 60.3356C205.677 60.5877 205.685 60.8458 205.742 61.095C205.799 61.3442 205.904 61.5794 206.052 61.7871C214.146 73.4867 217.55 87.8405 215.58 101.966C213.611 116.091 206.414 128.943 195.434 137.939C195.122 138.189 194.896 138.531 194.786 138.917C194.676 139.303 194.689 139.714 194.822 140.093C194.955 140.471 195.202 140.798 195.529 141.028C195.855 141.259 196.245 141.38 196.643 141.376L196.637 141.367Z" fill="#F6A6BF"/>
<path d="M43.9344 40.935C44.1321 40.9353 44.3286 40.9047 44.517 40.8444C49.9159 39.1134 55.5444 38.2199 61.2097 38.1946C61.7176 38.1946 62.2048 37.9911 62.564 37.6289C62.9232 37.2668 63.125 36.7756 63.125 36.2634C63.125 35.7512 62.9232 35.26 62.564 34.8979C62.2048 34.5357 61.7176 34.3323 61.2097 34.3323C55.1575 34.3614 49.1447 35.3159 43.3765 37.1634C42.9425 37.3022 42.5718 37.5925 42.3308 37.982C42.0898 38.3715 41.9944 38.8348 42.0615 39.2888C42.1287 39.7429 42.3541 40.158 42.6973 40.4596C43.0405 40.7613 43.4791 40.9298 43.9344 40.935Z" fill="#FFFEF1"/>
<path d="M61.5227 155.007H61.8636L73.9507 154.938C74.445 154.918 74.9124 154.706 75.255 154.346C75.5977 153.986 75.7891 153.507 75.7891 153.008C75.7891 152.51 75.5977 152.03 75.255 151.67C74.9124 151.311 74.445 151.099 73.9507 151.079L61.8636 151.144H61.5537C30.8091 151.144 5.71436 126.018 5.5408 94.9851C5.48618 87.5089 6.91177 80.0969 9.73409 73.1832C9.91834 72.7114 9.91109 72.1853 9.71393 71.7188C9.51675 71.2523 9.14548 70.8826 8.6803 70.6898C8.21511 70.4969 7.69335 70.4963 7.22771 70.688C6.76207 70.8798 6.38992 71.2485 6.19164 71.7146C3.1676 79.0949 1.63352 87.0092 1.67912 94.9944C1.85268 128.161 28.6799 155.007 61.5227 155.007Z" fill="#F6A6BF"/>
<path fill-rule="evenodd" clip-rule="evenodd" d="M110.541 66.2112L110.552 66.3286C110.561 66.3098 110.565 66.2889 110.563 66.2683C110.561 66.2477 110.554 66.2276 110.541 66.2112Z" fill="#241D50"/>
<path fill-rule="evenodd" clip-rule="evenodd" d="M110.557 66.3469C110.04 67.3036 94.631 66.0976 94.631 66.0976C94.631 66.0976 87.6194 81.3807 96.0715 96.2424C101.817 105.904 106.468 112.124 106.908 123.57C102.416 124.946 103.098 128.242 105.978 127.838C106.52 127.788 109.166 127.588 109.536 127.521C113.039 126.875 109.44 112.55 108.203 108.082C107.951 107.258 107.832 106.756 107.832 106.756C107.832 106.756 107.975 107.249 108.203 108.082C109.208 111.36 112.341 119.778 118.667 122.373C118.196 122.165 115.869 122.543 114.339 123.444C111.438 125.15 109.606 127.974 116.163 126.885C124.403 126.305 132.303 125.358 132.303 125.358C132.303 125.358 153.014 111.552 132.521 93.9837C122.156 85.0988 110.718 91.7316 110.557 66.3469Z" fill="#241D50"/>
<path fill-rule="evenodd" clip-rule="evenodd" d="M108.22 108.094C107.993 107.261 107.85 106.767 107.85 106.767C107.85 106.767 107.968 107.27 108.22 108.094Z" fill="#241D50"/>
<path d="M151.595 67.399C141.743 71.5089 140.169 87.0267 140.181 109.138C140.181 112.268 139.608 121.786 130.13 125.181C130.172 125.257 130.21 125.33 130.249 125.406C143.825 125.41 148.486 112.147 148.3 100.916C148.292 84.1657 149.372 72.8921 158.538 74.9347C162.569 76.3009 163.417 62.6744 151.595 67.399Z" fill="#2A2460"/>
<path fill-rule="evenodd" clip-rule="evenodd" d="M119.64 53.1851C117.054 53.7299 112.582 54.7509 112.153 55.3901C107.84 51.1416 100.009 51.4764 97.7679 51.6735L87.414 44.4408C87.2506 44.3258 87.0603 44.2556 86.8619 44.2376C86.6637 44.2195 86.464 44.2541 86.2826 44.3377C86.1013 44.4212 85.9447 44.5509 85.8281 44.7142C85.7118 44.8774 85.6398 45.0686 85.6187 45.2685C85.2646 48.673 84.5794 55.3874 84.7037 55.5733C75.1127 72.8691 97.4598 78.3926 105.928 76.8031C115.732 73.9447 117.762 70.3865 118.625 67.0109C119.618 63.094 119.012 62.4752 119.012 62.4752L121.001 54.6413C121.052 54.4476 121.053 54.2439 121.004 54.05C120.954 53.8558 120.857 53.6775 120.721 53.5319C120.585 53.3862 120.414 53.2779 120.225 53.2173C120.036 53.1566 119.835 53.1455 119.64 53.1851Z" fill="#2A2460"/>
<path d="M104.73 69.2448C103.898 69.7208 103.283 69.8263 102.998 69.5503C102.652 69.2195 102.734 68.4092 102.815 68.1627L102.86 68.0917C102.897 68.0324 102.913 67.9624 102.907 67.8929C102.901 67.8231 102.872 67.7576 102.825 67.7063C102.78 67.6509 102.718 67.6125 102.649 67.5969C102.58 67.5814 102.508 67.5898 102.444 67.6209C102.356 67.6721 102.288 67.7514 102.25 67.8461C101.698 68.7228 101.083 69.1594 100.472 69.1433C99.0199 69.1168 97.759 66.8172 97.7561 66.7856C97.736 66.7483 97.709 66.7155 97.6765 66.6886C97.6438 66.662 97.6063 66.642 97.566 66.6301C97.5257 66.618 97.4837 66.614 97.4418 66.6185C97.4001 66.6227 97.3596 66.6354 97.3226 66.6558C97.2855 66.6758 97.253 66.7034 97.2266 66.7361C97.1999 66.7692 97.1803 66.807 97.1681 66.8473C97.156 66.888 97.1523 66.9307 97.1565 66.973C97.1609 67.0149 97.1732 67.0558 97.1933 67.0931C97.2506 67.2024 98.6345 69.7422 100.443 69.7927C100.76 69.7923 101.074 69.7253 101.364 69.5956C101.654 69.4658 101.914 69.2762 102.128 69.0393C102.142 69.261 102.205 69.4764 102.312 69.6703C102.419 69.8641 102.568 70.0314 102.747 70.1598C102.945 70.2649 103.162 70.3268 103.385 70.3416C103.608 70.3564 103.831 70.3237 104.041 70.2458C104.392 70.1375 104.729 69.9883 105.046 69.8013C105.083 69.7813 105.116 69.7537 105.143 69.7206C105.169 69.6876 105.189 69.6494 105.2 69.6085C105.212 69.5676 105.215 69.5246 105.21 69.4824C105.205 69.4402 105.192 69.3997 105.171 69.3629C105.15 69.325 105.122 69.2919 105.089 69.2654C105.055 69.2389 105.017 69.2196 104.975 69.2085C104.934 69.1973 104.891 69.195 104.849 69.2012C104.807 69.2074 104.767 69.2223 104.73 69.2448Z" fill="white"/>
<path fill-rule="evenodd" clip-rule="evenodd" d="M103.113 65.6108C103.175 65.605 99.3135 62.9872 102.708 67.8378C102.708 67.8378 107.547 64.858 103.113 65.6108Z" fill="url(#paint0_linear_18_1128)"/>
<path fill-rule="evenodd" clip-rule="evenodd" d="M77.8173 62.421C78.211 62.3046 84.2638 61.2066 91.6675 65.3782C91.6675 65.3782 83.8929 59.6973 77.8173 62.421Z" fill="white"/>
<path fill-rule="evenodd" clip-rule="evenodd" d="M77.9362 67.3774C78.2631 67.153 83.4879 64.3607 91.4159 66.0068C91.4159 66.0068 82.7246 63.0877 77.9362 67.3774Z" fill="white"/>
<path fill-rule="evenodd" clip-rule="evenodd" d="M110.153 69.1228C116.393 69.077 119.815 72.0747 119.767 72.076C116.919 68.2635 110.153 69.1228 110.153 69.1228Z" fill="white"/>
<path fill-rule="evenodd" clip-rule="evenodd" d="M110.098 69.5994C115.798 71.379 118.061 75.1439 118.019 75.1319C116.505 70.7775 110.098 69.5994 110.098 69.5994Z" fill="white"/>
<path opacity="0.21" fill-rule="evenodd" clip-rule="evenodd" d="M87.3308 47.1347C85.7633 47.5843 87.3605 54.2069 87.3605 54.2069C89.1251 52.7622 91.2724 51.874 93.5335 51.6531C93.5335 51.6531 88.8955 46.6887 87.3308 47.1347Z" fill="white"/>
<path opacity="0.21" fill-rule="evenodd" clip-rule="evenodd" d="M118.018 55.5534C116.921 55.3375 113.718 56.9119 113.718 56.9119C115.847 57.0885 117.32 59.554 117.32 59.554C117.32 59.554 119.117 55.7627 118.018 55.5534Z" fill="white"/>
</g>
<defs>
<linearGradient id="paint0_linear_18_1128" x1="101.421" y1="66.4351" x2="105.013" y2="66.1088" gradientUnits="userSpaceOnUse">
<stop stop-color="#EC6588"/>
<stop offset="1" stop-color="#E71A80"/>
</linearGradient>
<clipPath id="clip0_18_1128">
<rect width="225" height="160" fill="white" transform="matrix(-1 0 0 1 225 0)"/>
</clipPath>
</defs>
</svg>
