<svg width="40" height="40" viewBox="0 0 40 40" fill="none" xmlns="http://www.w3.org/2000/svg">
<path d="M7.42445 40H30.6244C32.9919 40 34.9119 38.08 34.9119 35.71V16.685C38.9369 16.525 41.3444 12.06 39.1944 8.59L37.9394 6.565C37.4644 5.79768 36.8012 5.16438 36.0128 4.72512C35.2244 4.28587 34.3369 4.05521 33.4344 4.055H29.8469V2.465C29.8469 2.14129 29.7832 1.82075 29.6593 1.52169C29.5354 1.22262 29.3539 0.950878 29.125 0.721982C28.8961 0.493085 28.6243 0.311515 28.3253 0.187637C28.0262 0.0637594 27.7057 0 27.3819 0C26.5792 0.000328238 25.7845 0.158758 25.043 0.466243C24.3015 0.773728 23.6279 1.22425 23.0605 1.79208C22.4931 2.35991 22.0432 3.03393 21.7363 3.77566C21.4294 4.51739 21.2716 5.3123 21.2719 6.115V14.755C18.0769 15.07 15.6644 16.58 13.8919 18.71C11.9369 21.06 10.7844 24.1225 10.0994 27.065C9.40945 30.02 9.16695 32.96 9.09195 35.145C9.06195 36.08 9.06195 36.885 9.07195 37.5H7.42445C6.46397 37.5001 5.52441 37.2195 4.72131 36.6926C3.9182 36.1658 3.28657 35.4158 2.90409 34.5347C2.52161 33.6537 2.40495 32.6801 2.56847 31.7336C2.73198 30.7872 3.16854 29.9091 3.82445 29.2075L6.12445 26.74C7.70961 25.0398 8.57307 22.7908 8.53297 20.4666C8.49286 18.1424 7.55233 15.9245 5.90945 14.28L3.65195 12.0225C3.53664 11.9031 3.39871 11.8079 3.2462 11.7424C3.0937 11.6769 2.92967 11.6424 2.7637 11.6409C2.59773 11.6395 2.43313 11.6711 2.27951 11.734C2.12589 11.7968 1.98632 11.8896 1.86896 12.007C1.75159 12.1244 1.65877 12.2639 1.59592 12.4176C1.53307 12.5712 1.50144 12.7358 1.50289 12.9018C1.50433 13.0677 1.53881 13.2318 1.60432 13.3843C1.66983 13.5368 1.76506 13.6747 1.88445 13.79L4.14195 16.0475C5.32798 17.2332 6.00709 18.8331 6.03601 20.5099C6.06492 22.1867 5.44139 23.8092 4.29695 25.035L1.99695 27.5025C1.01124 28.5611 0.35584 29.8843 0.111087 31.3099C-0.133666 32.7355 0.0428701 34.2015 0.619052 35.5282C1.19523 36.8549 2.14602 37.9847 3.35485 38.779C4.56367 39.5733 5.97801 39.9977 7.42445 40ZM27.3494 2.5V5.305C27.3494 5.63652 27.4811 5.95446 27.7156 6.18888C27.95 6.42331 28.2679 6.555 28.5994 6.555H33.4344C34.4044 6.555 35.3044 7.055 35.8144 7.88L37.0719 9.9075C37.3351 10.3322 37.4801 10.8195 37.4918 11.319C37.5036 11.8185 37.3817 12.3121 37.1388 12.7487C36.8959 13.1853 36.5408 13.5491 36.1102 13.8025C35.6796 14.0559 35.1891 14.1897 34.6894 14.19H33.6644C33.3329 14.19 33.015 14.3217 32.7806 14.5561C32.5461 14.7905 32.4144 15.1085 32.4144 15.44V35.71C32.4144 36.6975 31.6144 37.5 30.6244 37.5H28.8344V35.71C28.8351 33.7664 28.0638 31.9021 26.6902 30.5271C25.3166 29.152 23.4531 28.3788 21.5094 28.3775H18.9744C18.6429 28.3775 18.325 28.5092 18.0906 28.7436C17.8561 28.978 17.7244 29.296 17.7244 29.6275C17.7244 29.959 17.8561 30.277 18.0906 30.5114C18.325 30.7458 18.6429 30.8775 18.9744 30.8775H21.5069C24.1744 30.8775 26.3369 33.04 26.3369 35.71V37.5H11.5719C11.5594 36.915 11.5594 36.14 11.5894 35.2275C11.6594 33.1375 11.8894 30.3775 12.5319 27.6325C13.1744 24.8725 14.2069 22.235 15.8119 20.3075C17.3794 18.43 19.5069 17.195 22.5219 17.195C22.8535 17.195 23.1714 17.0633 23.4058 16.8289C23.6403 16.5945 23.7719 16.2765 23.7719 15.945V6.115C23.7719 4.13 25.3694 2.5175 27.3469 2.5H27.3494Z" fill="#F6A6BF"/>
</svg>
