<svg width="193" height="158" fill="none" xmlns="http://www.w3.org/2000/svg"><g opacity=".1" fill="#F6A6BF"><path d="M128.2.4A28.7 28.7 0 0 0 110 38.3c8.2 18.3 33.1 16 42.4-4 2-4.3 2.1-5.3 2.1-11.6 0-6-.2-7.2-1.9-10.7a23 23 0 0 0-10-10.2A27 27 0 0 0 128.2.4Zm10.5 11.9c3.5 2.4 5 4.8 5.3 9 1.2 15.2-17 25.3-23.9 13-6.4-11.6 8.4-29 18.6-22ZM51.6 1.6a24.6 24.6 0 0 0-11.4 11c-1.7 3.6-2 4.7-2 10.8 0 6.3.3 7.3 2.2 11.5A26.5 26.5 0 0 0 62.6 51c6.3.4 10.6-1 15-5 10.3-9.5 9.8-26.7-1-37.8-5.1-5-10-7.3-16.8-7.5-3.6-.1-6.3.2-8.2.9Zm13.1 11.2a18 18 0 0 1 9.4 14.7c1.2 15.6-17.3 17.4-24 2.4-2.7-6-1.3-13.7 3.2-16.8 3-2 7.8-2.2 11.4-.3ZM166 46.6A27.8 27.8 0 0 0 147 62a18.2 18.2 0 0 0-2.6 11.3c0 5.2.3 6.8 1.6 9.4 2 4.2 5.4 7.7 9.7 10 3.1 1.7 4.3 2 10 2 6 0 6.6-.2 11.4-2.6 19-9.6 21.6-35 4.5-43.6-5-2.5-10.7-3.2-15.7-2Zm11.6 12c4.4 3.2 5.7 8 3.8 13.7-2.8 8.8-13.8 14.2-21.2 10.5-7.2-3.7-7.2-13.9 0-21 4.9-4.8 13.3-6.4 17.4-3.3ZM14 49.1A20.7 20.7 0 0 0 0 69.7c0 5.3.2 6.2 2.6 11 9.4 19.5 34.8 22 44 4.3 1.6-3 1.8-4.1 1.8-9.9-.1-5.7-.3-7-2-10.4a29.9 29.9 0 0 0-19.7-16.2c-5-1-7.9-1-12.7.6Zm14.3 11.4C36 64.2 40 74 36.7 80.5c-1.5 3-6 5.6-9.8 5.6-8 0-16.5-8.8-16.5-17 0-3.9 3-8 6.7-9.7 2.3-1 8-.4 11.2 1ZM87 64.6a35.7 35.7 0 0 0-21.6 18.7c-2.4 4.9-2.5 5-7.4 7.4a35.1 35.1 0 0 0 6.8 65.5c9 2.4 20.6.1 28.2-5.3l3.4-2.6 3.4 2.6a35.3 35.3 0 0 0 27.8 5.4 35.1 35.1 0 0 0 7.1-65.7c-5-2.4-5-2.5-7.3-7.4a35.5 35.5 0 0 0-23-19c-4.2-1-13-.8-17.3.4Zm17.7 11.3a25.5 25.5 0 0 1 14.6 16.3c1.2 4.1 2.2 5.4 6 6.4 5.1 1.6 8.2 3.5 11.6 7.2 4.9 5.3 6.2 8.7 6.2 16.2 0 5.2-.3 6.7-1.7 10-2.5 5.4-6 9-11.3 11.7-4 2-5 2.2-10.5 2.2-5.3 0-6.5-.2-9.8-1.8-2.1-1.1-5.5-3.6-7.5-5.7-5-5-6.6-5-11.8 0-2 2.1-5.5 4.7-7.5 5.7-3.3 1.6-4.5 1.8-9.8 1.8-5 0-6.6-.2-9.8-1.7-5.3-2.6-9-6.2-11.5-11.5-2-4.1-2.2-5.1-2.2-10.7 0-7.5 1.4-11 6.2-16.2 3.4-3.7 6.5-5.6 11.6-7.2 3.8-1 4.9-2.3 6-6.4 2-7 8-13.8 14.4-16.3 4.7-1.9 12-2 16.8 0Z"/></g></svg>
