<svg width="1046" height="461" viewBox="0 0 1046 461" fill="none" xmlns="http://www.w3.org/2000/svg">
<g clip-path="url(#clip0_1115_49)">
<path d="M929.446 355.404C937.467 337.284 959.221 329.442 970.262 312.992C985.001 291.017 976.004 260.248 958.987 240.42C941.969 220.591 918.46 207.786 898.86 190.579C879.26 173.373 862.695 148.3 867.416 122.26C871.2 101.347 888.982 84.3118 909.37 79.0055C929.758 73.6991 951.926 79.1694 969.169 91.0774C998.671 111.444 1013.12 147.356 1023.94 181.847C1030.59 203.01 1036.75 224.93 1046 244.922V461H955.491C948.557 442.792 941.626 424.584 934.697 406.376C928.471 390.043 922.268 371.541 929.446 355.404Z" fill="url(#paint0_linear_1115_49)"/>
<path d="M929.531 145.506L933.55 141.769C1035.72 253.093 1034.54 386.797 1025.87 461H1020.41C1029 387.741 1030.39 255.449 929.531 145.506Z" fill="white"/>
<path d="M1028.11 427.203L960.93 360.094L964.792 356.153L1026.88 418.198C1032.34 408.295 1039.28 395.763 1046 383.551V394.827C1037.62 410.02 1030.58 422.755 1029.87 424.035L1028.11 427.203Z" fill="white"/>
<path d="M1001.62 252.671L997.812 174.926L1003.27 174.582L1007.82 267.865L940.361 192.514L944.426 188.784L1001.62 252.671Z" fill="white"/>
<path d="M943.795 442.646C930.242 448.202 883.106 465.893 888.193 440.906C892.594 419.236 923.172 429.911 938.567 436.817C926.688 423.103 915.511 408.797 905.078 393.953C887.374 403.551 820.95 437.231 824.493 400.117C827.778 365.743 880.539 381.077 901.177 388.412C895.434 380.25 889.824 372.025 884.269 363.925C878.807 355.997 873.423 348.068 867.883 340.218C865.095 336.254 862.234 332.246 859.3 328.193C845.131 343.34 793.758 395.162 785.425 358.923C777.435 324.042 835.838 323.16 856.132 323.878C843.282 306.507 828.917 288.887 812.61 273.07C800.906 285.742 745.913 342.934 737.307 305.329C729.067 269.378 791.394 269.542 809.777 270.362C797.462 258.568 783.851 248.206 769.204 239.476C764.655 236.807 760.012 234.388 755.323 232.203C746.787 245.469 719.665 284.541 709.693 261.45C700.751 240.732 732.531 232.273 748.847 229.355C732.57 222.525 715.234 218.565 697.607 217.649C692.793 228.73 677.32 261.06 667.13 244.961C658.828 231.93 676.641 222.355 688.892 217.579C675.03 217.731 661.31 220.39 648.396 225.429C638.377 234.794 618.27 251.181 615.266 235.621C612.34 220.404 634.242 219.015 646.36 219.374C660.372 213.98 675.258 211.216 690.273 211.219C677.835 203.041 655.684 186.303 671.039 179.584C687.643 172.311 694.798 200.092 696.975 211.344C716.562 212.247 735.817 216.744 753.778 224.61C745.351 209.627 724.846 169.354 749.198 171.617C774.533 173.958 762.462 214.388 758.257 226.631C763.04 228.871 767.776 231.313 772.411 234.052C787.194 242.855 800.949 253.28 813.421 265.133C810.113 242.886 802.131 173.178 834.948 189.526C868.757 206.358 828.386 256.011 817.205 268.746C833.224 284.306 847.37 301.521 860.042 318.54C856.616 294.521 849.859 228.886 881.85 244.774C915.666 261.622 875.272 311.283 864.099 324.01C867.22 328.256 870.232 332.467 873.134 336.644C878.659 344.51 884.058 352.462 889.52 360.414C894.982 368.365 900.443 376.372 906.038 384.339C902.605 360.265 895.933 294.818 927.885 310.713C961.772 327.584 921.151 377.402 910.072 390.02C921.526 406.079 933.558 421.858 946.744 436.474C944.637 421.53 939.269 372.189 962.107 383.832C985.734 395.888 956.333 430.769 948.976 438.932C952.463 442.717 955.998 446.423 959.689 450.021C963.122 453.392 967.156 457.122 971.665 461H962.123C959.782 458.885 957.504 456.739 955.225 454.508C951.309 450.653 947.498 446.699 943.795 442.646Z" fill="#2F296C"/>
<path d="M996.735 432.408C1008.11 438.089 1003.47 450.824 997.117 461H984.063C982.869 446.017 983.447 425.767 996.735 432.408Z" fill="#2F296C"/>
<path d="M711.316 396.832C743.533 376.216 788.655 367.288 826.724 376.653C864.176 385.845 890.315 410.207 914.519 433.485L943.1 460.992H659.865C668.058 436.45 685.598 413.329 711.316 396.832Z" fill="url(#paint1_linear_1115_49)"/>
<path d="M751.795 419.298C763.398 412.587 776.92 409.934 791.963 411.417C837.562 415.888 883.254 441.413 912.412 461H903.002C874.179 442.319 831.998 419.852 790.886 415.818C777.404 414.499 765.38 416.84 755.104 422.787C740.435 431.261 730.791 446.072 724.307 461.023H718.346C725.157 444.948 735.543 428.702 751.795 419.298Z" fill="white"/>
</g>
<path d="M541.406 127.573H517.037V307.269H541.406V127.573Z" fill="url(#paint2_linear_1115_49)"/>
<path d="M612.287 12.6584H577.955V310.934H612.287V12.6584Z" fill="url(#paint3_linear_1115_49)"/>
<path d="M641.381 291.37H487.931C478.006 291.37 469.961 299.423 469.961 309.357V314.947C469.961 324.88 478.006 332.934 487.931 332.934H641.381C651.305 332.934 659.35 324.88 659.35 314.947V309.357C659.35 299.423 651.305 291.37 641.381 291.37Z" fill="#241D50"/>
<path d="M465.563 167.908H663.763C664.493 167.908 665.217 168.052 665.892 168.331C666.567 168.611 667.179 169.022 667.696 169.539C668.213 170.056 668.622 170.669 668.902 171.345C669.181 172.021 669.325 172.744 669.325 173.476V183.133C669.325 184.606 668.74 186.02 667.7 187.062C666.658 188.104 665.246 188.689 663.774 188.689H465.551C464.08 188.689 462.667 188.104 461.626 187.062C460.585 186.02 460 184.606 460 183.133V173.476C460 172.744 460.144 172.021 460.423 171.345C460.703 170.669 461.113 170.056 461.629 169.539C462.146 169.022 462.759 168.611 463.434 168.331C464.109 168.052 464.832 167.908 465.563 167.908Z" fill="url(#paint4_linear_1115_49)"/>
<path d="M644.228 0H546.969C541.712 0 537.451 4.26511 537.451 9.52641V12.4734C537.451 17.7347 541.712 21.9998 546.969 21.9998H644.228C649.484 21.9998 653.744 17.7347 653.744 12.4734V9.52641C653.744 4.26511 649.484 0 644.228 0Z" fill="#241D50"/>
<path d="M551.772 113.24C551.79 118.135 550.488 122.944 548.002 127.16H509.401C506.92 122.942 505.618 118.134 505.631 113.24C505.631 99.1785 515.952 87.7708 528.696 87.7708C541.44 87.7708 551.772 99.1785 551.772 113.24Z" fill="#353063"/>
<path d="M554.455 65.7603H501.589C498.947 65.7603 496.331 66.2816 493.891 67.295C491.451 68.3084 489.235 69.793 487.368 71.6648C485.503 73.5367 484.024 75.7587 483.017 78.203C482.01 80.6474 481.495 83.2672 481.5 85.9115V109.27C481.5 114.603 483.617 119.718 487.384 123.489C491.151 127.259 496.261 129.378 501.589 129.378H554.455C559.783 129.378 564.893 127.259 568.66 123.489C572.427 119.718 574.544 114.603 574.544 109.27V85.9115C574.549 83.2672 574.034 80.6474 573.027 78.203C572.02 75.7587 570.541 73.5367 568.675 71.6648C566.809 69.793 564.593 68.3084 562.152 67.295C559.712 66.2816 557.097 65.7603 554.455 65.7603ZM548.001 127.16H509.4C506.92 122.942 505.617 118.134 505.631 113.24C505.631 99.1785 515.952 87.7708 528.695 87.7708C541.44 87.7708 551.772 99.1785 551.772 113.24C551.79 118.135 550.488 122.944 548.001 127.16Z" fill="#241D50"/>
<path d="M741.4 273.668C742.371 270.457 740.403 253.301 701.576 245.378C662.748 237.455 619.259 231.472 591.076 236.297C558.218 241.983 555.233 269.14 559.215 280.459C563.197 291.777 731.443 306.458 741.4 273.668Z" fill="url(#paint5_linear_1115_49)"/>
<path d="M604.276 256.564C634.85 262.204 682.301 286.257 716.837 269.405C762.882 246.934 755.724 316.492 735.253 327.195C714.783 337.898 583.734 340.671 567.443 329.333C552.09 318.63 549.713 280.287 561.282 261.912C569.569 248.8 597.033 255.227 604.276 256.564Z" fill="url(#paint6_linear_1115_49)"/>
<path d="M668.791 225.336C650.44 226.891 615.614 231.624 615.614 231.624C607.69 232.372 612.629 254.572 634.136 264.97C655.643 275.369 690.575 280.234 701.748 260.019C712.921 239.805 687.135 223.774 668.791 225.336Z" fill="white"/>
<path d="M691.012 314.07C671.169 308.874 702.185 284.735 705.176 261.78C708.167 238.825 692.385 242.856 692.385 242.856C705.493 258.669 674.688 283.775 666.025 299.376C657.361 314.977 681.285 329.399 696.473 329.558C711.66 329.717 710.861 319.266 691.012 314.07Z" fill="white"/>
<path d="M615.984 297.125C626.107 302.751 617.635 272.139 630.716 266.493C640.165 262.409 631.653 250.197 631.653 250.197C631.653 250.197 592.826 284.258 615.984 297.125Z" fill="white"/>
<path fill-rule="evenodd" clip-rule="evenodd" d="M635.239 215.189C635.311 214.865 630.577 205.969 628.167 201.461C628.025 201.197 627.817 200.974 627.562 200.815C627.308 200.656 627.018 200.566 626.718 200.554C626.419 200.542 626.122 200.608 625.855 200.747C625.59 200.885 625.364 201.09 625.202 201.342L614.874 217.228C611.665 218.26 600.585 222.271 596.972 230.605C596.022 229.943 589.227 231.108 585.318 231.836C585.024 231.891 584.75 232.019 584.521 232.21C584.292 232.401 584.115 232.647 584.008 232.925C583.9 233.204 583.864 233.505 583.905 233.801C583.946 234.097 584.062 234.377 584.241 234.616L591.419 244.319C591.419 244.319 590.924 245.524 594.509 250.369C597.6 254.552 602.433 258.312 617.674 256.67C630.366 254.029 658.35 233.649 635.239 215.189Z" fill="white"/>
<path d="M623.96 237.72C623.898 237.711 623.834 237.716 623.772 237.733C623.711 237.75 623.653 237.779 623.604 237.819C623.554 237.858 623.513 237.907 623.482 237.963C623.451 238.019 623.432 238.08 623.426 238.144C623.426 238.183 622.977 242.115 620.996 242.962C620.131 243.34 619.015 243.081 617.773 242.188C617.666 242.077 617.524 242.006 617.37 241.989C617.267 241.984 617.166 242.012 617.08 242.069C616.993 242.126 616.928 242.208 616.893 242.306C616.857 242.402 616.854 242.508 616.882 242.607C616.911 242.707 616.972 242.793 617.053 242.856L617.159 242.929C617.41 243.22 617.971 244.299 617.681 244.955C617.443 245.497 616.525 245.703 615.099 245.524C614.973 245.509 614.846 245.544 614.746 245.622C614.646 245.701 614.581 245.814 614.564 245.941C614.549 246.068 614.584 246.196 614.662 246.297C614.74 246.398 614.854 246.466 614.98 246.484C615.529 246.545 616.082 246.545 616.631 246.484C616.966 246.473 617.295 246.392 617.597 246.245C617.899 246.097 618.165 245.888 618.381 245.63C618.56 245.35 618.675 245.033 618.714 244.703C618.754 244.373 618.719 244.038 618.612 243.723C619.042 243.931 619.512 244.046 619.989 244.06C620.467 244.075 620.943 243.99 621.385 243.809C623.875 242.704 624.363 238.402 624.383 238.216C624.389 238.095 624.348 237.977 624.27 237.884C624.192 237.792 624.081 237.733 623.96 237.72Z" fill="#2A2460"/>
<path fill-rule="evenodd" clip-rule="evenodd" d="M615.304 239.606C615.211 239.606 619.114 233.808 617.12 242.459C617.12 242.426 608.714 241.063 615.304 239.606Z" fill="url(#paint7_linear_1115_49)"/>
<path opacity="0.43" fill-rule="evenodd" clip-rule="evenodd" d="M631.113 232.736C639.037 222.741 648.104 220.822 648.718 220.736C638.727 220.411 631.113 232.736 631.113 232.736Z" fill="#2A2460"/>
<path opacity="0.43" fill-rule="evenodd" clip-rule="evenodd" d="M631.812 233.457C641.922 226.653 650.764 227.54 651.345 227.659C642.259 224.442 631.812 233.457 631.812 233.457Z" fill="#2A2460"/>
<path opacity="0.43" fill-rule="evenodd" clip-rule="evenodd" d="M595.765 258.007C595.699 258.007 598.769 251.931 607.479 248.43C607.506 248.43 597.6 251.104 595.765 258.007Z" fill="#2A2460"/>
<path opacity="0.43" fill-rule="evenodd" clip-rule="evenodd" d="M599.918 261.231C599.865 261.27 600.902 254.777 607.842 249.058C607.822 249.058 599.581 254.347 599.918 261.231Z" fill="#2A2460"/>
<path opacity="0.13" fill-rule="evenodd" clip-rule="evenodd" d="M626.866 205.042C624.436 205.32 620.771 214.838 620.771 214.838C624.042 213.847 627.532 213.847 630.802 214.838C630.802 214.838 629.296 204.771 626.866 205.042Z" fill="#2A2460"/>
<path opacity="0.13" fill-rule="evenodd" clip-rule="evenodd" d="M588.891 234.172C587.478 235.092 592.113 239.309 592.113 239.309C592.113 239.309 592.774 235.066 595.64 233.603C595.62 233.603 590.298 233.259 588.891 234.172Z" fill="#2A2460"/>
<path fill-rule="evenodd" clip-rule="evenodd" d="M304.404 207.796V208.041C304.428 208.004 304.439 207.962 304.439 207.918C304.439 207.875 304.428 207.832 304.404 207.796Z" fill="#241D50"/>
<path fill-rule="evenodd" clip-rule="evenodd" d="M304.384 208.041C303.123 209.927 271.156 204.427 271.156 204.427C271.156 204.427 253.604 234.801 268.442 267.307C278.611 288.487 287.149 302.308 285.895 326.163C276.247 328.148 277.046 335.125 283.141 334.847C284.283 334.847 289.85 334.946 290.636 334.88C298.078 334.218 293.277 303.771 291.54 294.253C291.171 292.492 291.019 291.426 291.019 291.426C291.019 291.426 291.223 292.479 291.54 294.253C293.02 301.255 297.965 319.345 310.69 325.964C309.746 325.441 304.813 325.772 301.445 327.347C295.06 330.326 290.695 335.833 304.602 334.847C321.929 335.244 338.616 334.814 338.616 334.814C338.616 334.814 384.509 310.171 345.027 269.703C325.059 249.237 299.9 260.787 304.384 208.041Z" fill="#241D50"/>
<path fill-rule="evenodd" clip-rule="evenodd" d="M291.541 294.279C291.224 292.505 291.02 291.453 291.02 291.453C291.02 291.453 291.171 292.518 291.541 294.279Z" fill="#241D50"/>
<path d="M389.975 218.168C368.614 224.787 362.38 256.703 358.207 302.619C357.612 309.119 354.608 328.77 334.164 333.98C334.237 334.145 334.303 334.304 334.369 334.469C362.73 337.117 374.986 310.482 376.729 287.124C379.892 252.341 384.29 229.142 403.05 235.165C411.212 238.786 415.57 210.655 389.975 218.168Z" fill="#2A2460"/>
<path fill-rule="evenodd" clip-rule="evenodd" d="M325.891 182.531C320.384 183.16 310.842 184.411 309.825 185.655C301.618 175.992 285.188 175.164 280.467 175.138L260.202 158.101C259.882 157.83 259.498 157.647 259.086 157.571C258.675 157.495 258.252 157.528 257.857 157.666C257.462 157.805 257.11 158.044 256.835 158.36C256.561 158.676 256.374 159.06 256.292 159.471C254.906 166.474 252.198 180.287 252.423 180.698C229.093 214.759 274.749 230.578 292.749 228.923C313.781 224.892 318.7 217.896 321.144 211.052C323.963 203.109 322.814 201.706 322.814 201.706L328.46 185.821C328.603 185.428 328.643 185.005 328.578 184.593C328.512 184.18 328.343 183.791 328.086 183.462C327.829 183.133 327.493 182.875 327.109 182.712C326.725 182.549 326.306 182.487 325.891 182.531Z" fill="#2A2460"/>
<path d="M291.672 212.978C289.843 213.806 288.535 213.905 287.994 213.276C287.333 212.522 287.657 210.854 287.875 210.357L287.981 210.218C288.07 210.102 288.118 209.96 288.118 209.814C288.118 209.668 288.07 209.527 287.981 209.411C287.898 209.287 287.776 209.195 287.635 209.149C287.493 209.104 287.341 209.107 287.201 209.159C287.009 209.249 286.851 209.4 286.752 209.589C285.432 211.304 284.065 212.091 282.79 211.939C279.759 211.602 277.56 206.578 277.56 206.512C277.525 206.43 277.475 206.357 277.413 206.295C277.349 206.233 277.275 206.184 277.193 206.152C277.111 206.118 277.024 206.102 276.935 206.103C276.847 206.104 276.76 206.122 276.679 206.158C276.598 206.192 276.524 206.243 276.463 206.306C276.401 206.369 276.353 206.444 276.32 206.526C276.287 206.608 276.271 206.696 276.272 206.784C276.273 206.872 276.291 206.96 276.326 207.041C276.425 207.279 278.835 212.826 282.605 213.283C283.268 213.344 283.937 213.266 284.569 213.052C285.2 212.839 285.78 212.496 286.27 212.045C286.258 212.508 286.349 212.968 286.536 213.392C286.723 213.816 287.003 214.192 287.353 214.494C287.746 214.751 288.189 214.922 288.651 214.996C289.114 215.07 289.588 215.045 290.041 214.924C290.795 214.767 291.528 214.523 292.226 214.196C292.308 214.162 292.382 214.111 292.444 214.047C292.505 213.984 292.554 213.908 292.586 213.826C292.618 213.743 292.633 213.654 292.63 213.565C292.627 213.477 292.607 213.39 292.57 213.309C292.534 213.227 292.483 213.152 292.417 213.091C292.353 213.029 292.275 212.982 292.191 212.951C292.108 212.919 292.018 212.906 291.929 212.911C291.839 212.915 291.752 212.939 291.672 212.978Z" fill="white"/>
<path fill-rule="evenodd" clip-rule="evenodd" d="M288.985 205.115C289.117 205.115 281.543 198.926 287.717 209.662C287.717 209.662 298.395 204.413 288.985 205.115Z" fill="url(#paint8_linear_1115_49)"/>
<path fill-rule="evenodd" clip-rule="evenodd" d="M236.699 193.598C237.544 193.433 250.408 192.327 265.094 202.441C265.094 202.441 249.919 189.117 236.699 193.598Z" fill="white"/>
<path fill-rule="evenodd" clip-rule="evenodd" d="M236 203.924C236.726 203.52 248.183 198.721 264.447 203.692C264.447 203.692 246.829 195.921 236 203.924Z" fill="white"/>
<path fill-rule="evenodd" clip-rule="evenodd" d="M303.037 213.753C316.092 214.871 322.675 221.768 322.576 221.762C317.347 213.283 303.037 213.753 303.037 213.753Z" fill="white"/>
<path fill-rule="evenodd" clip-rule="evenodd" d="M302.832 214.732C314.408 219.538 318.422 227.798 318.337 227.765C315.999 218.426 302.832 214.732 302.832 214.732Z" fill="white"/>
<path opacity="0.21" fill-rule="evenodd" clip-rule="evenodd" d="M259.515 163.713C256.154 164.342 258.234 178.408 258.234 178.408C262.196 175.75 266.852 174.323 271.619 174.304C271.619 174.304 262.87 163.091 259.515 163.713Z" fill="white"/>
<path opacity="0.21" fill-rule="evenodd" clip-rule="evenodd" d="M322.075 187.118C319.823 186.456 312.83 189.104 312.83 189.104C317.248 189.885 319.856 195.292 319.856 195.292C319.856 195.292 324.333 187.767 322.075 187.118Z" fill="white"/>
<path d="M447.742 333.668C441.733 333.668 435.598 331.828 430.342 329.916L428.453 329.221C420.1 326.143 411.456 322.966 403.202 325.143C400.519 325.95 397.926 327.03 395.463 328.367C393.911 329.141 392.313 329.935 390.669 330.611C386.707 332.226 381.015 333.569 376.234 330.822C376.094 330.743 375.971 330.636 375.872 330.509C375.774 330.382 375.701 330.236 375.658 330.08C375.616 329.925 375.605 329.763 375.625 329.602C375.645 329.442 375.697 329.288 375.777 329.148C375.857 329.008 375.963 328.886 376.091 328.787C376.218 328.688 376.364 328.616 376.519 328.575C376.675 328.533 376.837 328.522 376.997 328.543C377.156 328.564 377.31 328.617 377.449 328.698C381.583 331.074 386.925 329.492 389.745 328.34C391.303 327.678 392.861 326.924 394.367 326.176C396.98 324.763 399.73 323.624 402.575 322.774C411.575 320.397 420.582 323.714 429.292 326.924L431.174 327.586C439.375 330.577 449.835 333.397 457.917 328.631C458.057 328.536 458.213 328.471 458.379 328.439C458.544 328.407 458.714 328.41 458.878 328.447C459.043 328.483 459.198 328.554 459.334 328.653C459.47 328.753 459.584 328.879 459.669 329.025C459.754 329.17 459.809 329.331 459.829 329.499C459.849 329.666 459.836 329.836 459.787 329.998C459.74 330.16 459.659 330.31 459.551 330.439C459.443 330.568 459.309 330.674 459.159 330.75C455.686 332.739 451.741 333.747 447.742 333.668Z" fill="url(#paint9_linear_1115_49)"/>
<path d="M476.048 326.868C485.638 317.255 485.638 301.669 476.048 292.056C466.457 282.443 450.909 282.443 441.318 292.056C431.727 301.669 431.727 317.255 441.318 326.868C450.909 336.482 466.457 336.482 476.048 326.868Z" fill="url(#paint10_linear_1115_49)"/>
<path d="M61.5234 307.841C61.5234 307.841 97.7757 294.921 149.235 306.948C96.3494 325.295 65.5251 307.907 61.5234 307.841Z" fill="url(#paint11_linear_1115_49)"/>
<path d="M56.993 332.934H155.574C156.18 332.226 156.59 331.37 156.76 330.454C156.93 329.536 156.856 328.59 156.545 327.711L149.235 306.948C149.235 306.948 121.732 316.102 61.5229 307.841L55.078 327.036C54.7255 328.095 54.7213 329.24 55.066 330.301C55.4107 331.363 56.0862 332.286 56.993 332.934Z" fill="url(#paint12_linear_1115_49)"/>
<path opacity="0.42" d="M677.85 370H322.554C321.421 369.996 320.336 369.542 319.535 368.736C318.735 367.93 318.283 366.837 318.279 365.698C318.283 364.558 318.735 363.466 319.535 362.66C320.336 361.853 321.421 361.399 322.554 361.395H677.85C678.986 361.399 680.069 361.854 680.868 362.66C681.667 363.466 682.122 364.558 682.122 365.698C682.122 366.837 681.667 367.93 680.868 368.735C680.069 369.541 678.986 369.996 677.85 370Z" fill="url(#paint13_linear_1115_49)"/>
<path d="M829.378 341.538H4.61938C3.4133 341.55 2.25125 341.072 1.38612 340.207C0.520998 339.342 0.0228173 338.159 0 336.918C0.0164688 335.671 0.511861 334.483 1.37768 333.612C2.24349 332.741 3.40916 332.259 4.61938 332.272H829.378C830.586 332.263 831.748 332.746 832.613 333.617C833.478 334.487 833.967 335.674 833.987 336.918C833.96 338.157 833.465 339.337 832.607 340.201C831.742 341.067 830.586 341.547 829.378 341.538Z" fill="url(#paint14_linear_1115_49)"/>
<defs>
<linearGradient id="paint0_linear_1115_49" x1="1073.55" y1="269.004" x2="866.596" y2="269.004" gradientUnits="userSpaceOnUse">
<stop stop-color="#82CDE4"/>
<stop offset="0.23" stop-color="#69C2D8"/>
<stop offset="0.72" stop-color="#28A6BA"/>
<stop offset="1" stop-color="#0094A7"/>
</linearGradient>
<linearGradient id="paint1_linear_1115_49" x1="944.41" y1="416.981" x2="659.389" y2="416.981" gradientUnits="userSpaceOnUse">
<stop stop-color="#E71A80"/>
<stop offset="1" stop-color="#EC6588"/>
</linearGradient>
<linearGradient id="paint2_linear_1115_49" x1="517.037" y1="217.421" x2="541.406" y2="217.421" gradientUnits="userSpaceOnUse">
<stop stop-color="#82CDE4"/>
<stop offset="0.23" stop-color="#69C2D8"/>
<stop offset="0.72" stop-color="#28A6BA"/>
<stop offset="1" stop-color="#0094A7"/>
</linearGradient>
<linearGradient id="paint3_linear_1115_49" x1="578.199" y1="190.957" x2="612.537" y2="190.957" gradientUnits="userSpaceOnUse">
<stop stop-color="#7BCBE2"/>
<stop offset="1" stop-color="#0096AB"/>
</linearGradient>
<linearGradient id="paint4_linear_1115_49" x1="460" y1="168.122" x2="669.325" y2="168.122" gradientUnits="userSpaceOnUse">
<stop stop-color="#80CDE4"/>
<stop offset="1" stop-color="#0095A9"/>
</linearGradient>
<linearGradient id="paint5_linear_1115_49" x1="557.841" y1="264.156" x2="741.572" y2="264.156" gradientUnits="userSpaceOnUse">
<stop stop-color="#E71A80"/>
<stop offset="1" stop-color="#EC6588"/>
</linearGradient>
<linearGradient id="paint6_linear_1115_49" x1="554.019" y1="295.219" x2="751.167" y2="295.219" gradientUnits="userSpaceOnUse">
<stop stop-color="#EC6588"/>
<stop offset="1" stop-color="#E71A80"/>
</linearGradient>
<linearGradient id="paint7_linear_1115_49" x1="-10211.4" y1="2246.67" x2="-10250.1" y2="2258.33" gradientUnits="userSpaceOnUse">
<stop stop-color="#EC6588"/>
<stop offset="1" stop-color="#E71A80"/>
</linearGradient>
<linearGradient id="paint8_linear_1115_49" x1="285.294" y1="206.498" x2="292.861" y2="206.498" gradientUnits="userSpaceOnUse">
<stop stop-color="#EC6588"/>
<stop offset="1" stop-color="#E71A80"/>
</linearGradient>
<linearGradient id="paint9_linear_1115_49" x1="18188.8" y1="3333.7" x2="28922.2" y2="3333.7" gradientUnits="userSpaceOnUse">
<stop stop-color="#EC6588"/>
<stop offset="1" stop-color="#E71A80"/>
</linearGradient>
<linearGradient id="paint10_linear_1115_49" x1="434.132" y1="309.462" x2="483.24" y2="309.462" gradientUnits="userSpaceOnUse">
<stop stop-color="#E71A80"/>
<stop offset="1" stop-color="#EC6588"/>
</linearGradient>
<linearGradient id="paint11_linear_1115_49" x1="61.5084" y1="307.877" x2="149.168" y2="309.626" gradientUnits="userSpaceOnUse">
<stop stop-color="#82CDE4"/>
<stop offset="0.23" stop-color="#69C2D8"/>
<stop offset="0.72" stop-color="#28A6BA"/>
<stop offset="1" stop-color="#0094A7"/>
</linearGradient>
<linearGradient id="paint12_linear_1115_49" x1="54.9287" y1="319.115" x2="156.964" y2="321.15" gradientUnits="userSpaceOnUse">
<stop stop-color="#0094A7"/>
<stop offset="0.28" stop-color="#28A6BA"/>
<stop offset="0.77" stop-color="#69C2D8"/>
<stop offset="1" stop-color="#82CDE4"/>
</linearGradient>
<linearGradient id="paint13_linear_1115_49" x1="318.279" y1="365.698" x2="682.122" y2="365.698" gradientUnits="userSpaceOnUse">
<stop stop-color="#EC6588"/>
<stop offset="1" stop-color="#E71A80"/>
</linearGradient>
<linearGradient id="paint14_linear_1115_49" x1="0" y1="336.907" x2="834" y2="336.907" gradientUnits="userSpaceOnUse">
<stop stop-color="#A775B0"/>
<stop offset="1" stop-color="#7E468E"/>
</linearGradient>
<clipPath id="clip0_1115_49">
<rect width="431" height="384" fill="white" transform="translate(615 77)"/>
</clipPath>
</defs>
</svg>
