<svg width="401" height="377" viewBox="0 0 401 377" fill="none" xmlns="http://www.w3.org/2000/svg">
<g opacity="0.35">
<path opacity="0.35" d="M249.162 64.5052C283.588 57.8074 294.241 5.0802 328.989 0.311776C343.812 -1.72735 358.555 6.47622 368.243 17.8405C377.931 29.2047 383.584 43.408 389.04 57.3212C394.897 72.1519 400.762 87.4689 399.922 103.335C399.081 119.201 389.519 135.773 374.069 139.506C359.553 143.02 342.084 135.216 330.41 144.518C320.691 152.251 321.484 167.513 326.571 178.838C331.659 190.163 340.043 200.013 343.317 211.989C345.16 218.735 345.276 225.835 343.653 232.636C342.03 239.438 338.72 245.723 334.029 250.912C329.338 256.101 323.416 260.029 316.807 262.333C310.199 264.637 303.117 265.243 296.212 264.097C290.073 263.077 283.91 260.685 277.818 261.94C267.776 264.003 262.194 275.226 261.637 285.468C261.08 295.711 263.992 305.86 263.906 316.055C263.662 341.576 243.58 364.312 219.29 372.218C194.999 380.123 167.843 374.986 145.256 363.065C122.669 351.144 104.024 332.988 86.9951 313.961C63.1914 287.359 41.0678 256.63 37.3308 221.165C33.5938 185.7 54.689 145.506 89.8764 139.388C107.933 136.251 129.633 141.176 142.406 128.016C159.27 110.66 144.762 77.038 162.033 60.0112C172.836 49.3529 190.626 51.1567 205.064 55.831C219.502 60.5053 234.261 67.4462 249.162 64.5052Z" fill="url(#paint0_linear_21_325)"/>
<path opacity="0.35" d="M336.502 67.0854C334.932 69.203 197.786 254.952 0 334.588L2.26889 340.619C201.939 260.238 340.161 73.0146 341.723 70.8735L336.502 67.0854Z" fill="white"/>
<path opacity="0.35" d="M303.801 201.221L207.221 205.669L207.518 212.109L304.098 207.661L303.801 201.221Z" fill="white"/>
<path opacity="0.35" d="M196.511 111.921L160.08 241.831L166.294 243.57L202.725 113.66L196.511 111.921Z" fill="white"/>
<path opacity="0.35" d="M228.797 302.119L117.245 279.163L111.592 170.171L105.146 170.509L111.058 284.472L227.486 308.432L228.797 302.119Z" fill="white"/>
</g>
<defs>
<linearGradient id="paint0_linear_21_325" x1="287.405" y1="342.19" x2="177.38" y2="46.3933" gradientUnits="userSpaceOnUse">
<stop stop-color="#F9C8C3"/>
<stop offset="1" stop-color="#FCE4E2"/>
</linearGradient>
</defs>
</svg>
