<svg width="1046" height="461" fill="none" xmlns="http://www.w3.org/2000/svg"><g clip-path="url(#a)"><path d="M929.45 355.4c8.02-18.12 29.77-25.96 40.81-42.4C985 291.01 976 260.24 959 240.41c-17.02-19.83-40.53-32.63-60.13-49.84-19.6-17.2-36.16-42.28-31.44-68.32 3.78-20.91 21.56-37.95 41.95-43.25 20.39-5.31 42.56.16 59.8 12.07 29.5 20.36 43.95 56.28 54.77 90.77 6.65 21.16 12.81 43.08 22.06 63.07V461h-90.5l-20.8-54.62c-6.23-16.34-12.43-34.84-5.25-50.98Z" fill="url(#b)"/><path d="m929.53 145.5 4.02-3.73c102.17 111.32 100.99 245.03 92.32 319.23h-5.46c8.59-73.26 9.98-205.55-90.88-315.5Z" fill="#fff"/><path d="m1028.11 427.2-67.18-67.1 3.86-3.95 62.09 62.05c5.46-9.9 12.4-22.44 19.12-34.65v11.28l-16.13 29.2-1.76 3.17Zm-26.49-174.53-3.8-77.74 5.45-.35 4.55 93.28-67.46-75.35 4.07-3.73 57.19 63.9Z" fill="#fff"/><path d="M943.8 442.65c-13.56 5.55-60.7 23.24-55.6-1.74 4.4-21.67 34.97-11 50.37-4.1a537.78 537.78 0 0 1-33.5-42.86c-17.7 9.6-84.12 43.28-80.58 6.17 3.29-34.38 56.05-19.04 76.69-11.7-5.75-8.17-11.36-16.4-16.91-24.5-5.46-7.92-10.85-15.85-16.39-23.7a1041.7 1041.7 0 0 0-8.58-12.03c-14.17 15.15-65.54 66.97-73.88 30.73-7.99-34.88 50.42-35.76 70.71-35.04-12.85-17.37-27.21-35-43.52-50.81-11.7 12.67-66.7 69.86-75.3 32.26-8.24-35.95 54.08-35.79 72.47-34.97a225.81 225.81 0 0 0-40.58-30.88 165.9 165.9 0 0 0-13.88-7.28c-8.53 13.27-35.66 52.34-45.63 29.25-8.94-20.72 22.84-29.18 39.16-32.1a152.94 152.94 0 0 0-51.24-11.7c-4.82 11.08-20.29 43.41-30.48 27.31-8.3-13.03 9.51-22.6 21.76-27.38a114.87 114.87 0 0 0-40.5 7.85c-10.01 9.36-30.12 25.75-33.12 10.2-2.93-15.23 18.97-16.62 31.09-16.26a122.3 122.3 0 0 1 43.91-8.15c-12.43-8.18-34.59-24.92-19.23-31.64 16.6-7.27 23.76 20.51 25.94 31.76 19.58.9 38.84 5.4 56.8 13.27-8.43-14.98-28.93-55.26-4.58-53 25.33 2.35 13.26 42.78 9.06 55.02a166.8 166.8 0 0 1 14.15 7.42 231.37 231.37 0 0 1 41.01 31.08c-3.3-22.24-11.29-91.95 21.53-75.6 33.8 16.83-6.56 66.48-17.75 79.22 16.02 15.56 30.17 32.77 42.84 49.79-3.42-24.02-10.18-89.65 21.81-73.77 33.82 16.85-6.58 66.51-17.75 79.24a606.7 606.7 0 0 1 9.03 12.63c5.53 7.87 10.93 15.82 16.39 23.77 5.46 7.95 10.92 15.96 16.52 23.93-3.43-24.07-10.1-89.52 21.85-73.63 33.88 16.87-6.74 66.7-17.82 79.31 11.46 16.06 23.49 31.84 36.67 46.45-2.1-14.94-7.47-64.28 15.37-52.64 23.62 12.06-5.78 46.94-13.13 55.1a286.5 286.5 0 0 0 10.7 11.1A253.8 253.8 0 0 0 971.67 461h-9.55a235.6 235.6 0 0 1-6.9-6.5c-3.91-3.85-7.72-7.8-11.43-11.85Zm52.94-10.25c11.37 5.69 6.73 18.42.38 28.6h-13.06c-1.2-14.98-.61-35.23 12.68-28.6Z" fill="#2F296C"/><path d="M711.32 396.83c32.21-20.61 77.33-29.54 115.4-20.18 37.46 9.2 63.6 33.56 87.8 56.84l28.58 27.5H659.86c8.2-24.54 25.74-47.66 51.46-64.16Z" fill="url(#c)"/><path d="M751.8 419.3c11.6-6.71 25.12-9.37 40.16-7.88 45.6 4.47 91.3 30 120.45 49.58h-9.4c-28.83-18.68-71.01-41.15-112.12-45.18-13.49-1.32-25.51 1.02-35.79 6.97-14.67 8.47-24.3 23.28-30.8 38.23h-5.95c6.8-16.07 17.2-32.32 33.44-41.72Z" fill="#fff"/></g><path d="M541.4 127.57h-24.36v179.7h24.37v-179.7Z" fill="url(#d)"/><path d="M612.29 12.66h-34.33v298.27h34.33V12.66Z" fill="url(#e)"/><path d="M641.38 291.37H487.93a17.98 17.98 0 0 0-17.97 17.99v5.59c0 9.93 8.05 17.98 17.97 17.98h153.45c9.92 0 17.97-8.05 17.97-17.98v-5.6c0-9.93-8.05-17.98-17.97-17.98Z" fill="#241D50"/><path d="M465.56 167.9h198.2a5.58 5.58 0 0 1 5.57 5.58v9.65a5.56 5.56 0 0 1-5.56 5.56H465.55a5.55 5.55 0 0 1-5.55-5.56v-9.65a5.58 5.58 0 0 1 5.56-5.57Z" fill="url(#f)"/><path d="M644.23 0h-97.26a9.52 9.52 0 0 0-9.52 9.53v2.94a9.52 9.52 0 0 0 9.52 9.53h97.26a9.52 9.52 0 0 0 9.51-9.53V9.53A9.52 9.52 0 0 0 644.23 0Z" fill="#241D50"/><path d="M551.77 113.24a27.2 27.2 0 0 1-3.77 13.92h-38.6a27.31 27.31 0 0 1-3.77-13.92c0-14.06 10.32-25.47 23.07-25.47 12.74 0 23.07 11.4 23.07 25.47Z" fill="#353063"/><path d="M554.46 65.76h-52.87a20.07 20.07 0 0 0-20.09 20.15v23.36a20.12 20.12 0 0 0 20.09 20.1h52.87a20.08 20.08 0 0 0 20.08-20.1V85.91a20.14 20.14 0 0 0-12.39-18.61 20.06 20.06 0 0 0-7.7-1.54Zm-6.46 61.4h-38.6a27.31 27.31 0 0 1-3.77-13.92c0-14.06 10.32-25.47 23.07-25.47 12.74 0 23.07 11.4 23.07 25.47a27.2 27.2 0 0 1-3.77 13.92Z" fill="#241D50"/><path d="M741.4 273.67c.97-3.21-1-20.37-39.82-28.3-38.83-7.91-82.32-13.9-110.5-9.07-32.86 5.68-35.85 32.84-31.87 44.16 3.99 11.32 172.23 26 182.19-6.8Z" fill="url(#g)"/><path d="M604.28 256.56c30.57 5.64 78.02 29.7 112.56 12.84 46.04-22.47 38.88 47.1 18.41 57.8-20.47 10.7-151.52 13.47-167.8 2.13-15.36-10.7-17.74-49.04-6.17-67.42 8.29-13.11 35.75-6.68 43-5.35Z" fill="url(#h)"/><path d="M668.8 225.34c-18.36 1.55-53.19 6.28-53.19 6.28-7.92.75-2.98 22.95 18.53 33.35 21.5 10.4 56.44 15.26 67.6-4.95 11.18-20.21-14.6-36.25-32.95-34.68Z" fill="#fff"/><path d="M691.01 314.07c-19.84-5.2 11.17-29.33 14.17-52.29 2.99-22.95-12.8-18.92-12.8-18.92 13.11 15.8-17.7 40.91-26.36 56.52-8.66 15.6 15.26 30.02 30.45 30.18 15.19.16 14.4-10.3-5.46-15.49Zm-75.03-16.94c10.13 5.62 1.65-25 14.74-30.64 9.44-4.08.93-16.3.93-16.3s-38.82 34.07-15.67 46.94Z" fill="#fff"/><path fill-rule="evenodd" clip-rule="evenodd" d="M635.24 215.19c.07-.32-4.66-9.22-7.07-13.73a1.72 1.72 0 0 0-2.97-.12l-10.33 15.89c-3.2 1.03-14.28 5.04-17.9 13.38-.95-.67-7.74.5-11.65 1.23a1.74 1.74 0 0 0-1.42 1.96c.05.3.16.58.34.82l7.18 9.7s-.5 1.2 3.09 6.05c3.09 4.18 7.92 7.94 23.16 6.3 12.7-2.64 40.68-23.02 17.57-41.48Z" fill="#fff"/><path d="M623.96 237.72a.46.46 0 0 0-.36.1.47.47 0 0 0-.17.32c0 .04-.45 3.98-2.43 4.82-.87.38-1.99.12-3.23-.77a.66.66 0 0 0-.4-.2.48.48 0 0 0-.48.32.48.48 0 0 0 .16.55l.1.07c.26.29.82 1.37.53 2.03-.24.54-1.15.74-2.58.56a.48.48 0 0 0-.44.78c.08.1.2.17.32.18.55.06 1.1.06 1.65 0a2.38 2.38 0 0 0 1.75-.85 2.2 2.2 0 0 0 .23-1.9 3.4 3.4 0 0 0 2.77.08c2.5-1.1 2.98-5.4 3-5.6a.47.47 0 0 0-.42-.5Z" fill="#2A2460"/><path fill-rule="evenodd" clip-rule="evenodd" d="M615.3 239.6c-.09 0 3.81-5.8 1.82 2.86 0-.03-8.4-1.4-1.82-2.85Z" fill="url(#i)"/><path opacity=".43" fill-rule="evenodd" clip-rule="evenodd" d="M631.11 232.74c7.93-10 17-11.92 17.6-12-9.98-.33-17.6 12-17.6 12Zm.7.72c10.11-6.8 18.95-5.92 19.54-5.8-9.1-3.22-19.54 5.8-19.54 5.8ZM595.76 258c-.06 0 3-6.07 11.72-9.57.03 0-9.88 2.67-11.72 9.58Zm4.16 3.23c-.05.04.98-6.45 7.92-12.17-.02 0-8.26 5.29-7.92 12.17Z" fill="#2A2460"/><path opacity=".13" fill-rule="evenodd" clip-rule="evenodd" d="M626.87 205.04c-2.43.28-6.1 9.8-6.1 9.8 3.27-1 6.76-1 10.03 0 0 0-1.5-10.07-3.93-9.8Zm-37.97 29.13c-1.42.92 3.21 5.14 3.21 5.14s.66-4.24 3.53-5.7c-.02 0-5.34-.35-6.75.56Z" fill="#2A2460"/><path fill-rule="evenodd" clip-rule="evenodd" d="M304.4 207.8v.24a.22.22 0 0 0 .04-.12.22.22 0 0 0-.04-.12Zm-.02.24c-1.26 1.89-33.22-3.61-33.22-3.61s-17.56 30.37-2.72 62.88c10.17 21.18 18.7 35 17.45 58.85-9.64 1.99-8.84 8.96-2.75 8.69 1.14 0 6.71.1 7.5.03 7.44-.66 2.64-31.1.9-40.63-.37-1.76-.52-2.82-.52-2.82l.52 2.82c1.48 7 6.42 25.1 19.15 31.71-.94-.52-5.88-.19-9.25 1.39-6.38 2.98-10.75 8.48 3.16 7.5 17.33.4 34.02-.04 34.02-.04s45.89-24.64 6.4-65.1c-19.96-20.47-45.12-8.92-40.64-61.67Z" fill="#241D50"/><path fill-rule="evenodd" clip-rule="evenodd" d="m291.54 294.28-.52-2.83s.15 1.07.52 2.83Z" fill="#241D50"/><path d="M389.98 218.17c-21.37 6.62-27.6 38.53-31.77 84.45-.6 6.5-3.6 26.15-24.05 31.36.08.16.14.32.2.49 28.37 2.65 40.63-23.99 42.37-47.35 3.16-34.78 7.56-57.98 26.32-51.96 8.16 3.63 12.52-24.5-13.07-17Z" fill="#2A2460"/><path fill-rule="evenodd" clip-rule="evenodd" d="M325.9 182.53c-5.52.63-15.06 1.88-16.07 3.13-8.21-9.67-24.64-10.5-29.36-10.52L260.2 158.1a2.4 2.4 0 0 0-3.9 1.37c-1.4 7-4.1 20.82-3.88 21.23-23.33 34.06 22.33 49.88 40.33 48.22 21.03-4.03 25.95-11.02 28.4-17.87 2.81-7.94 1.66-9.34 1.66-9.34l5.65-15.89a2.47 2.47 0 0 0-2.57-3.29Z" fill="#2A2460"/><path d="M291.67 212.98c-1.83.83-3.13.93-3.68.3-.66-.76-.33-2.43-.12-2.92l.11-.14a.66.66 0 0 0 0-.8.66.66 0 0 0-.78-.26.97.97 0 0 0-.45.43c-1.32 1.71-2.69 2.5-3.96 2.35-3.03-.34-5.23-5.36-5.23-5.43a.66.66 0 0 0-.63-.4.65.65 0 0 0-.25.05.66.66 0 0 0-.36.37.67.67 0 0 0 0 .51c.1.24 2.51 5.79 6.29 6.24a4.76 4.76 0 0 0 3.66-1.24 3.14 3.14 0 0 0 1.08 2.45 3.34 3.34 0 0 0 2.7.43c.75-.15 1.48-.4 2.18-.72a.65.65 0 0 0 .36-.37.66.66 0 0 0-.02-.52.65.65 0 0 0-.38-.36.65.65 0 0 0-.52.03Z" fill="#fff"/><path fill-rule="evenodd" clip-rule="evenodd" d="M288.99 205.12c.13 0-7.45-6.2-1.27 4.54 0 0 10.67-5.25 1.26-4.54Z" fill="url(#j)"/><path fill-rule="evenodd" clip-rule="evenodd" d="M236.7 193.6c.84-.17 13.7-1.27 28.4 8.84 0 0-15.18-13.32-28.4-8.84Zm-.7 10.32c.73-.4 12.18-5.2 28.45-.23 0 0-17.62-7.77-28.45.23Zm67.04 9.83c13.05 1.12 19.63 8.02 19.54 8.01-5.23-8.48-19.54-8-19.54-8Zm-.21.98c11.58 4.8 15.6 13.07 15.5 13.03-2.33-9.33-15.5-13.03-15.5-13.03Z" fill="#fff"/><path opacity=".21" fill-rule="evenodd" clip-rule="evenodd" d="M259.51 163.71c-3.36.63-1.28 14.7-1.28 14.7a24.2 24.2 0 0 1 13.39-4.1s-8.75-11.22-12.1-10.6Zm62.56 23.41c-2.25-.66-9.24 1.98-9.24 1.98 4.42.78 7.03 6.2 7.03 6.2s4.47-7.53 2.21-8.18Z" fill="#fff"/><path d="M447.74 333.67c-6 0-12.14-1.84-17.4-3.75l-1.89-.7c-8.35-3.08-17-6.25-25.25-4.08a41.24 41.24 0 0 0-7.74 3.23 73.12 73.12 0 0 1-4.8 2.24c-3.95 1.62-9.65 2.96-14.43.21a1.22 1.22 0 0 1 .29-2.25 1.22 1.22 0 0 1 .93.13c4.13 2.37 9.48.8 12.3-.36a86.9 86.9 0 0 0 4.62-2.16 43.33 43.33 0 0 1 8.2-3.4c9-2.38 18.01.93 26.72 4.14l1.88.67c8.2 2.99 18.66 5.8 26.75 1.04a1.24 1.24 0 0 1 1.41.02 1.23 1.23 0 0 1 .22 1.79c-.1.13-.24.23-.4.31a22.1 22.1 0 0 1-11.4 2.92Z" fill="url(#k)"/><path d="M476.05 326.87a24.66 24.66 0 0 0 0-34.81 24.52 24.52 0 0 0-34.73 0 24.66 24.66 0 0 0 0 34.8 24.52 24.52 0 0 0 34.73 0Z" fill="url(#l)"/><path d="M61.52 307.84s36.26-12.92 87.72-.9c-52.9 18.36-83.71.97-87.72.9Z" fill="url(#m)"/><path d="M57 332.93h98.57a5.3 5.3 0 0 0 .97-5.22l-7.3-20.76s-27.5 9.15-87.72.9l-6.44 19.19a5.23 5.23 0 0 0 1.91 5.9Z" fill="url(#n)"/><path opacity=".42" d="M677.85 370h-355.3a4.28 4.28 0 0 1-4.27-4.3 4.33 4.33 0 0 1 4.27-4.3h355.3a4.27 4.27 0 0 1 4.27 4.3 4.32 4.32 0 0 1-4.27 4.3Z" fill="url(#o)"/><path d="M829.38 341.54H4.62a4.5 4.5 0 0 1-3.23-1.33A4.78 4.78 0 0 1 0 336.9a4.78 4.78 0 0 1 1.38-3.3 4.5 4.5 0 0 1 3.24-1.34h824.76c1.2 0 2.37.48 3.23 1.35a4.79 4.79 0 0 1 1.38 3.3 4.8 4.8 0 0 1-1.38 3.28 4.5 4.5 0 0 1-3.23 1.34Z" fill="url(#p)"/><defs><linearGradient id="b" x1="1073.55" y1="269" x2="866.6" y2="269" gradientUnits="userSpaceOnUse"><stop stop-color="#82CDE4"/><stop offset=".23" stop-color="#69C2D8"/><stop offset=".72" stop-color="#28A6BA"/><stop offset="1" stop-color="#0094A7"/></linearGradient><linearGradient id="c" x1="944.41" y1="416.98" x2="659.39" y2="416.98" gradientUnits="userSpaceOnUse"><stop stop-color="#E71A80"/><stop offset="1" stop-color="#EC6588"/></linearGradient><linearGradient id="d" x1="517.04" y1="217.42" x2="541.41" y2="217.42" gradientUnits="userSpaceOnUse"><stop stop-color="#82CDE4"/><stop offset=".23" stop-color="#69C2D8"/><stop offset=".72" stop-color="#28A6BA"/><stop offset="1" stop-color="#0094A7"/></linearGradient><linearGradient id="e" x1="578.2" y1="190.96" x2="612.54" y2="190.96" gradientUnits="userSpaceOnUse"><stop stop-color="#7BCBE2"/><stop offset="1" stop-color="#0096AB"/></linearGradient><linearGradient id="f" x1="460" y1="168.12" x2="669.33" y2="168.12" gradientUnits="userSpaceOnUse"><stop stop-color="#80CDE4"/><stop offset="1" stop-color="#0095A9"/></linearGradient><linearGradient id="g" x1="557.84" y1="264.16" x2="741.57" y2="264.16" gradientUnits="userSpaceOnUse"><stop stop-color="#E71A80"/><stop offset="1" stop-color="#EC6588"/></linearGradient><linearGradient id="h" x1="554.02" y1="295.22" x2="751.17" y2="295.22" gradientUnits="userSpaceOnUse"><stop stop-color="#EC6588"/><stop offset="1" stop-color="#E71A80"/></linearGradient><linearGradient id="i" x1="-10211.4" y1="2246.67" x2="-10250.1" y2="2258.33" gradientUnits="userSpaceOnUse"><stop stop-color="#EC6588"/><stop offset="1" stop-color="#E71A80"/></linearGradient><linearGradient id="j" x1="285.29" y1="206.5" x2="292.86" y2="206.5" gradientUnits="userSpaceOnUse"><stop stop-color="#EC6588"/><stop offset="1" stop-color="#E71A80"/></linearGradient><linearGradient id="k" x1="18188.8" y1="3333.7" x2="28922.2" y2="3333.7" gradientUnits="userSpaceOnUse"><stop stop-color="#EC6588"/><stop offset="1" stop-color="#E71A80"/></linearGradient><linearGradient id="l" x1="434.13" y1="309.46" x2="483.24" y2="309.46" gradientUnits="userSpaceOnUse"><stop stop-color="#E71A80"/><stop offset="1" stop-color="#EC6588"/></linearGradient><linearGradient id="m" x1="61.51" y1="307.88" x2="149.17" y2="309.63" gradientUnits="userSpaceOnUse"><stop stop-color="#82CDE4"/><stop offset=".23" stop-color="#69C2D8"/><stop offset=".72" stop-color="#28A6BA"/><stop offset="1" stop-color="#0094A7"/></linearGradient><linearGradient id="n" x1="54.93" y1="319.12" x2="156.96" y2="321.15" gradientUnits="userSpaceOnUse"><stop stop-color="#0094A7"/><stop offset=".28" stop-color="#28A6BA"/><stop offset=".77" stop-color="#69C2D8"/><stop offset="1" stop-color="#82CDE4"/></linearGradient><linearGradient id="o" x1="318.28" y1="365.7" x2="682.12" y2="365.7" gradientUnits="userSpaceOnUse"><stop stop-color="#EC6588"/><stop offset="1" stop-color="#E71A80"/></linearGradient><linearGradient id="p" x1="0" y1="336.91" x2="834" y2="336.91" gradientUnits="userSpaceOnUse"><stop stop-color="#A775B0"/><stop offset="1" stop-color="#7E468E"/></linearGradient><clipPath id="a"><path fill="#fff" transform="translate(615 77)" d="M0 0h431v384H0z"/></clipPath></defs></svg>
