<svg width="180" height="180" viewBox="0 0 180 180" fill="none" xmlns="http://www.w3.org/2000/svg">
<path d="M171.821 59.8459C169.735 58.3375 168.072 56.319 166.991 53.9837C165.909 51.6483 165.445 49.0744 165.643 46.5084C165.912 42.9417 164.903 39.3958 162.794 36.5063C160.686 33.6168 157.618 31.5727 154.139 30.7405C151.635 30.1444 149.325 28.9144 147.433 27.1688C145.541 25.4231 144.129 23.2203 143.334 20.7719C142.223 17.3673 139.934 14.4708 136.878 12.6034C133.822 10.736 130.2 10.0203 126.664 10.585C124.116 10.9918 121.506 10.737 119.085 9.84511C116.665 8.95319 114.513 7.45407 112.839 5.49159C110.509 2.77099 107.285 0.970768 103.746 0.414583C100.208 -0.141603 96.5867 0.582728 93.5344 2.45735C91.3422 3.80363 88.8417 4.56597 86.2712 4.67169C83.7008 4.77741 81.1461 4.223 78.8507 3.06129C75.6594 1.43163 71.9901 0.997982 68.5068 1.83879C65.0234 2.6796 61.956 4.73934 59.8595 7.64539C58.3488 9.7278 56.3296 11.3883 53.9947 12.4685C51.6598 13.5487 49.087 14.0125 46.5219 13.8157C42.9511 13.5379 39.3984 14.5442 36.5037 16.6532C33.6089 18.7623 31.5622 21.8356 30.7322 25.3196C30.1386 27.8286 28.9099 30.1427 27.1643 32.04C25.4186 33.9373 23.2145 35.354 20.7636 36.1541C17.3584 37.2664 14.4617 39.557 12.5944 42.6141C10.7271 45.6712 10.0117 49.2941 10.5767 52.8315C10.985 55.3793 10.7308 57.9893 9.83882 60.4105C8.94681 62.8316 7.44689 64.9826 5.48329 66.6566C2.76386 68.9875 0.96504 72.212 0.410196 75.7505C-0.144648 79.289 0.580869 82.9093 2.45633 85.9608C3.80104 88.1429 4.56631 90.6323 4.67964 93.1931C4.79297 95.7538 4.2506 98.301 3.10393 100.593C1.47961 103.788 1.04667 107.456 1.88278 110.94C2.71889 114.425 4.76933 117.497 7.6662 119.607C9.75068 121.115 11.4128 123.134 12.4932 125.47C13.5736 127.805 14.0362 130.379 13.8365 132.944C13.5615 136.515 14.5686 140.067 16.6771 142.963C18.7856 145.858 21.8573 147.907 25.3405 148.741C27.8449 149.334 30.1548 150.561 32.0483 152.304C33.9418 154.048 35.3553 156.248 36.1531 158.695C37.2639 162.1 39.5532 164.996 42.609 166.864C45.6649 168.731 49.2868 169.447 52.8232 168.882C55.371 168.475 57.9805 168.73 60.4014 169.622C62.8224 170.514 64.9734 172.013 66.6483 173.975C68.9802 176.694 72.2052 178.491 75.7436 179.045C79.282 179.598 82.9018 178.871 85.9525 176.995C87.3022 176.165 88.7761 175.556 90.3183 175.191C93.7987 174.349 97.4652 174.777 100.658 176.399C103.852 178.02 107.519 178.448 111.001 177.607C114.482 176.765 117.549 174.708 119.649 171.807C121.16 169.725 123.179 168.064 125.514 166.984C127.849 165.904 130.422 165.44 132.987 165.637C136.558 165.918 140.112 164.913 143.008 162.803C145.903 160.694 147.949 157.618 148.776 154.133C149.375 151.63 150.606 149.322 152.351 147.43C154.097 145.538 156.298 144.126 158.745 143.328C162.148 142.211 165.042 139.92 166.908 136.864C168.775 133.808 169.492 130.187 168.932 126.65C168.527 124.108 168.783 121.504 169.675 119.09C170.567 116.675 172.065 114.53 174.025 112.861C176.746 110.531 178.546 107.307 179.102 103.769C179.659 100.23 178.934 96.6095 177.06 93.5573C175.712 91.3653 174.95 88.8637 174.846 86.2924C174.743 83.7212 175.302 81.1666 176.47 78.8736C178.09 75.6682 178.511 71.9899 177.659 68.5013C176.806 65.0127 174.736 61.9432 171.821 59.8459ZM107.651 163.818C92.9983 167.356 77.6259 166.469 63.4775 161.27C49.329 156.072 37.0399 146.794 28.1641 134.611C19.2882 122.428 14.2244 107.887 13.6129 92.826C13.0014 77.7651 16.8697 62.861 24.7286 49.9986C32.5875 37.1361 44.0841 26.8929 57.7646 20.5643C71.445 14.2358 86.6948 12.106 101.586 14.4443C116.477 16.7827 130.34 23.4842 141.422 33.7013C152.504 43.9185 160.308 57.1924 163.846 71.8446C168.566 91.4915 165.301 112.209 154.766 129.451C144.231 146.693 127.287 159.053 107.651 163.818Z" fill="#F6A6BF"/>
<circle cx="89.7282" cy="89.7312" r="71.3082" fill="#F6A6BF"/>
<path d="M76.9632 34.6907L81.0451 41.2183L88.6882 39.3667L83.5678 45.2527L87.6497 51.7803L80.4032 48.8904L75.2828 54.7763L75.9247 47.1043L68.6782 44.2143L76.3214 42.3627L76.9632 34.6907Z" fill="white"/>
<path d="M104.969 122.29L104.388 129.967L111.642 133.004L104.03 134.711L103.45 142.388L99.3251 135.766L91.7127 137.473L96.776 131.674L92.6513 125.052L99.9052 128.089L104.969 122.29Z" fill="white"/>
<path d="M97.8087 34.7571L100.662 39.3201L106.005 38.0258L102.425 42.1402L105.279 46.7032L100.213 44.683L96.6341 48.7974L97.0827 43.4345L92.0173 41.4143L97.36 40.12L97.8087 34.7571Z" fill="white"/>
<path d="M58.5157 44.2163L61.3691 48.7793L66.7118 47.485L63.1325 51.5994L65.9858 56.1624L60.9204 54.1423L57.3411 58.2567L57.7898 52.8937L52.7243 50.8736L58.0671 49.5793L58.5157 44.2163Z" fill="white"/>
<path d="M83.5877 129.132L83.1842 134.499L88.2556 136.62L82.9348 137.816L82.5313 143.182L79.6463 138.554L74.3255 139.75L77.8634 135.694L74.9784 131.066L80.0498 133.188L83.5877 129.132Z" fill="white"/>
<path d="M122.787 119.574L122.383 124.94L127.455 127.062L122.134 128.257L121.731 133.623L118.846 128.995L113.525 130.191L117.063 126.135L114.178 121.508L119.249 123.629L122.787 119.574Z" fill="white"/>
</svg>
