<svg width="211" height="211" viewBox="0 0 211 211" fill="none" xmlns="http://www.w3.org/2000/svg">
<path d="M192.014 92.0535C190.255 90.1749 189.007 87.8762 188.391 85.3773C187.775 82.8785 187.811 80.2634 188.495 77.7823C189.44 74.3326 189.125 70.6591 187.607 67.4204C186.089 64.1817 183.467 61.5897 180.211 60.1091C177.866 59.046 175.834 57.398 174.31 55.3234C172.785 53.2487 171.82 50.8171 171.506 48.2618C171.065 44.7078 169.371 41.4277 166.727 39.0115C164.084 36.5954 160.665 35.2017 157.086 35.0813C154.507 34.9945 151.994 34.2465 149.788 32.909C147.582 31.5715 145.756 29.6895 144.487 27.4435C142.719 24.3283 139.897 21.946 136.53 20.7248C133.163 19.5037 129.47 19.5238 126.116 20.7816C123.707 21.6848 121.107 21.956 118.564 21.5694C116.021 21.1827 113.619 20.151 111.587 18.5727C108.765 16.364 105.246 15.2382 101.666 15.3989C98.0867 15.5596 94.6826 16.9962 92.0701 19.4488C90.1898 21.2047 87.8909 22.4495 85.3928 23.0643C82.8947 23.6791 80.2807 23.6435 77.8002 22.9609C74.348 22.0069 70.6686 22.3167 67.4246 23.8347C64.1806 25.3526 61.5851 27.9789 60.1056 31.2406C59.0441 33.5902 57.3965 35.6274 55.3209 37.1568C53.2452 38.6861 50.8113 39.6562 48.2528 39.974C44.6979 40.4161 41.4174 42.1119 39.0011 44.7565C36.5847 47.4011 35.1911 50.821 35.0709 54.4012C34.9854 56.9801 34.238 59.4936 32.9004 61.7001C31.5628 63.9066 29.68 65.7319 27.433 67.0004C24.3188 68.7696 21.9378 71.5916 20.718 74.9592C19.4981 78.3268 19.5195 82.0191 20.7783 85.3723C21.6819 87.771 21.9581 90.3607 21.5808 92.896C21.2034 95.4313 20.185 97.8282 18.6219 99.8598C16.418 102.685 15.293 106.204 15.4489 109.784C15.6048 113.364 17.0313 116.771 19.4725 119.394C21.2308 121.273 22.4772 123.572 23.0921 126.07C23.7071 128.569 23.67 131.184 22.9846 133.664C22.0331 137.117 22.344 140.796 23.8613 144.041C25.3786 147.285 28.0029 149.882 31.2629 151.366C33.6082 152.426 35.6415 154.071 37.1676 156.143C38.6937 158.216 39.6614 160.646 39.9776 163.2C40.4184 166.754 42.1129 170.034 44.7563 172.45C47.3997 174.867 50.8185 176.26 54.3977 176.381C56.9762 176.467 59.4892 177.215 61.6955 178.553C63.9017 179.89 65.7273 181.772 66.9969 184.018C68.7673 187.132 71.59 189.511 74.9578 190.73C78.3256 191.948 82.0176 191.926 85.3702 190.666C86.8536 190.108 88.4167 189.792 90.0001 189.728C93.5772 189.566 97.0947 190.686 99.9194 192.886C102.745 195.087 106.263 196.208 109.842 196.046C113.42 195.884 116.822 194.45 119.438 192.003C121.318 190.247 123.617 189.002 126.115 188.387C128.613 187.773 131.227 187.808 133.708 188.491C137.16 189.448 140.84 189.14 144.085 187.621C147.33 186.103 149.925 183.475 151.402 180.211C152.468 177.868 154.116 175.837 156.19 174.313C158.265 172.789 160.695 171.823 163.25 171.506C166.803 171.06 170.081 169.363 172.496 166.719C174.912 164.076 176.307 160.658 176.431 157.079C176.519 154.506 177.268 152 178.604 149.799C179.94 147.599 181.82 145.78 184.062 144.516C187.178 142.748 189.56 139.926 190.781 136.559C192.002 133.192 191.982 129.499 190.724 126.145C189.819 123.736 189.548 121.135 189.938 118.591C190.327 116.048 191.363 113.647 192.947 111.619C195.149 108.781 196.264 105.251 196.093 101.664C195.922 98.0767 194.475 94.6686 192.014 92.0535ZM109.184 181.871C94.1259 182.548 79.2051 178.745 66.3086 170.942C53.412 163.139 43.1189 151.687 36.7307 138.034C30.3426 124.382 28.1465 109.141 30.4199 94.2402C32.6934 79.3393 39.3345 65.4472 49.5033 54.3206C59.6721 43.194 72.9119 35.3327 87.5486 31.7307C102.185 28.1287 117.561 28.9479 131.732 34.0846C145.903 39.2213 158.233 48.4449 167.162 60.5889C176.091 72.7329 181.219 87.252 181.896 102.31C182.781 122.497 175.623 142.21 161.991 157.126C148.36 172.041 129.369 180.94 109.184 181.871Z" fill="#F6A6BF"/>
<circle cx="105.728" cy="105.726" r="71.3083" transform="rotate(11 105.728 105.726)" fill="#F6A6BF"/>
<path d="M103.7 49.2608L106.461 56.4474L114.317 56.0881L108.168 60.8889L110.929 68.0755L104.367 63.856L98.2175 68.6568L100.312 61.2481L93.7496 57.0286L101.606 56.6694L103.7 49.2608Z" fill="white"/>
<path d="M114.476 140.594L112.441 148.019L118.982 152.385L111.184 152.608L109.15 160.034L106.364 152.746L98.5662 152.969L104.643 148.243L101.858 140.955L108.399 145.321L114.476 140.594Z" fill="white"/>
<path d="M124.148 53.3035L126.079 58.3271L131.57 58.076L127.271 61.4318L129.202 66.4554L124.615 63.5059L120.316 66.8617L121.78 61.6829L117.193 58.7334L122.685 58.4823L124.148 53.3035Z" fill="white"/>
<path d="M83.7733 55.0915L85.7035 60.1151L91.1951 59.864L86.8965 63.2198L88.8267 68.2434L84.2398 65.2939L79.9412 68.6497L81.4049 63.4709L76.818 60.5214L82.3096 60.2703L83.7733 55.0915Z" fill="white"/>
<path d="M92.1816 143.231L90.7615 148.422L95.335 151.473L89.8839 151.631L88.4638 156.822L86.5149 151.728L81.0638 151.886L85.3104 148.58L83.3615 143.487L87.9349 146.537L92.1816 143.231Z" fill="white"/>
<path d="M132.484 141.328L131.064 146.519L135.638 149.569L130.187 149.727L128.767 154.918L126.818 149.824L121.366 149.983L125.613 146.677L123.664 141.583L128.238 144.634L132.484 141.328Z" fill="white"/>
</svg>
