<svg width="627" height="595" viewBox="0 0 627 595" fill="none" xmlns="http://www.w3.org/2000/svg">
<path fill-rule="evenodd" clip-rule="evenodd" d="M313.793 85.4628C369.959 91.2453 416.901 27.8243 472.767 36.0037C533.238 44.8573 614.335 71.1603 625.785 131.142C638.89 199.79 542.016 243.254 525.284 311.11C514.157 356.237 573.617 407.409 548.083 446.258C522.009 485.929 453.382 457.772 412.741 482.342C370.744 507.731 360.444 572.643 313.793 587.9C266.309 603.429 208.097 592.883 168.73 562.143C129.741 531.697 136.313 470.535 109.928 428.708C82.0556 384.522 26.037 360.942 10.3788 311.11C-6.89612 256.135 -1.79446 194.93 19.6623 141.445C42.56 84.3679 74.2485 12.7063 134.707 1.19928C200.649 -11.3514 247.019 78.5882 313.793 85.4628Z" fill="#F9EAEF" fill-opacity="0.3"/>
<path d="M255.508 153.654C240.786 171.014 245.815 201.219 265.339 212.907C290.05 227.661 317.1 204.542 311.509 173.534C310.298 166.967 309.747 165.679 304.575 158.296C299.573 151.154 298.382 149.955 293.554 147.235C287.638 143.961 280.446 142.537 273.494 143.457C268.459 144.111 259.191 149.402 255.508 153.654ZM277.545 158.919C283.647 158.953 287.261 160.609 291.026 165.149C304.973 182.056 291.904 208.783 273.921 199.964C256.892 191.672 259.756 159.052 277.545 158.919Z" fill="white"/>
<path d="M167.057 217.603C163.509 222.717 161.652 232.747 162.83 239.935C163.736 245.4 164.457 246.929 169.46 254.071C174.631 261.453 175.653 262.412 181.413 265.795C194.267 273.301 209.208 273.607 220.503 266.538C228.156 261.78 231.916 256.636 233.753 248.414C238.074 228.886 223.416 209.129 201.605 205.021C191.507 203.12 184.062 204.504 175.894 209.863C171.625 212.612 168.691 215.264 167.057 217.603ZM191.512 219.979C200.225 218.903 208.666 222.443 214.633 229.627C228.805 246.855 208.677 264.172 188.602 252.033C180.463 247.087 175.87 237.026 178.539 229.657C180.382 224.78 185.838 220.722 191.512 219.979Z" fill="white"/>
<path d="M337.471 176.893C329.108 186.812 325.895 197.91 328.002 210.428C329.169 218.102 329.631 219.094 334.353 225.835C338.568 231.853 340.231 233.56 343.857 235.566C349.639 238.814 356.561 240.188 363.492 239.403C368.448 238.804 369.95 238.111 376.617 233.445C383.675 228.505 384.268 227.85 387.869 221.144C402.194 194.375 384.264 162.437 357.318 166.349C349.434 167.442 342.206 171.306 337.471 176.893ZM360.953 181.384C368.749 181.668 374.118 186.162 376.644 194.44C380.545 207.017 372.18 222.439 360.54 224.009C349.169 225.629 340.715 213.728 343.261 199.508C344.995 189.804 353.505 181.096 360.953 181.384Z" fill="white"/>
<path d="M162.223 303.975C157.511 310.262 155.538 318.459 156.909 326.589C157.781 331.839 158.591 333.663 162.751 339.601C167.135 345.861 168.101 346.739 174.781 350.435C201.724 365.54 233.471 347.624 229.691 319.535C229.1 314.687 228.38 313.158 223.658 306.418C218.914 299.812 217.611 298.452 212.84 295.812C201.737 289.472 187.356 288.296 176.461 292.932C169.892 295.736 166.554 298.312 162.223 303.975ZM188.18 305.658C200.29 303.759 213.112 311.885 214.587 322.334C215.201 327.047 211.947 333.749 207.556 336.823C198.144 343.41 181.146 340 174.345 330.29C171.253 325.877 171.219 318.486 174.318 313.567C176.141 310.497 183.336 306.418 188.18 305.658Z" fill="white"/>
<path d="M260.181 262.441C251.797 272.496 247.728 288.379 250.195 302.079C251.498 309.778 251.453 310.049 247.774 316.81C245.023 321.725 243.516 326.248 242.55 332.545C236.611 370.785 273.382 401.255 309.488 388.061C321.886 383.569 333.599 371.424 337.964 358.802L339.884 353.033L345.964 353.202C359.166 353.529 373.77 347.014 382.794 336.871C397.976 319.667 399.068 294.028 385.521 274.689C375.01 259.683 355.222 251.289 337.202 254.096C329.375 255.269 329.24 255.244 322.526 251.332C310.322 244.088 293.069 242.651 280.213 247.823C274.35 250.132 264.245 257.564 260.181 262.441ZM290.082 261.245C299.87 258.699 312.415 261.758 320.535 268.512C325.241 272.394 327.507 272.96 332.799 271.17C340.052 268.843 345.233 268.565 352.268 270.099C362.243 272.326 366.622 275.24 372.749 283.987C377.021 290.086 377.944 292.071 378.917 297.13C380.456 305.501 379.335 312.743 375.432 320.019C372.412 325.72 371.405 326.785 364.974 331.286C358.857 335.568 357.142 336.29 352.006 337.134C348.675 337.551 342.674 337.327 338.557 336.621C328.515 334.8 326.711 336.063 324.832 346.228C324.144 350.417 322.224 356.186 320.714 359.036C318.242 363.517 316.977 364.881 310.86 369.162C304.9 373.334 302.871 374.276 297.948 375.091C289.673 376.458 282.459 375.169 275.15 371.076C269.369 367.828 268.346 366.869 263.737 360.289C257.689 351.487 256.39 346.297 257.687 336.301C258.651 329.168 260.685 324.396 265.352 318.378C268.845 314.02 269.088 311.697 267.048 305.949C263.533 296.092 264.948 283.262 270.397 275.023C274.448 268.959 282.862 262.95 290.082 261.245Z" fill="white"/>
</svg>
