<svg width="24" height="24" fill="none" xmlns="http://www.w3.org/2000/svg"><path d="M11.999 5.991A6 6 0 0 0 5.99 12 6 6 0 0 0 12 18.009 6 6 0 0 0 18.008 12a6 6 0 0 0-6.01-6.009Zm0 9.914A3.914 3.914 0 0 1 8.094 12a3.914 3.914 0 0 1 3.905-3.905A3.914 3.914 0 0 1 15.904 12 3.914 3.914 0 0 1 12 15.905Zm6.255-11.56a1.402 1.402 0 1 0 0 2.806 1.4 1.4 0 0 0 1.297-1.94 1.402 1.402 0 0 0-1.297-.866ZM23.712 12c0-1.617.015-3.22-.076-4.834-.091-1.875-.519-3.54-1.89-4.91C20.372.882 18.711.457 16.836.366 15.219.276 13.616.29 12.002.29c-1.617 0-3.22-.015-4.834.076-1.875.091-3.54.519-4.91 1.89C.884 3.63.458 5.29.368 7.166.278 8.783.292 10.386.292 12c0 1.614-.015 3.22.076 4.834.09 1.875.519 3.539 1.89 4.91 1.374 1.374 3.035 1.799 4.91 1.89 1.617.09 3.22.076 4.834.076 1.617 0 3.22.015 4.834-.076 1.875-.091 3.539-.519 4.91-1.89 1.374-1.374 1.799-3.035 1.89-4.91.093-1.614.076-3.217.076-4.834Zm-2.578 6.908a3.724 3.724 0 0 1-.885 1.342c-.413.413-.809.67-1.342.885-1.54.612-5.2.474-6.908.474-1.708 0-5.37.138-6.911-.471a3.723 3.723 0 0 1-1.342-.885 3.748 3.748 0 0 1-.885-1.342c-.61-1.544-.471-5.203-.471-6.911 0-1.708-.138-5.37.471-6.911.214-.533.472-.932.885-1.342.413-.41.809-.67 1.342-.885 1.54-.61 5.203-.471 6.91-.471 1.709 0 5.371-.138 6.912.471.533.214.932.472 1.342.885.413.413.67.809.885 1.342.609 1.54.471 5.203.471 6.911 0 1.708.138 5.367-.474 6.908Z" fill="#fff"/></svg>