<svg width="627" height="595" fill="none" xmlns="http://www.w3.org/2000/svg"><path fill-rule="evenodd" clip-rule="evenodd" d="M313.793 85.463c56.166 5.782 103.108-57.639 158.974-49.46 60.471 8.854 141.568 35.157 153.018 95.139 13.105 68.648-83.769 112.112-100.501 179.968-11.127 45.127 48.333 96.299 22.799 135.148-26.074 39.671-94.701 11.514-135.342 36.084-41.997 25.389-52.297 90.301-98.948 105.558-47.484 15.529-105.696 4.983-145.063-25.757-38.989-30.446-32.417-91.608-58.802-133.435-27.872-44.186-83.891-67.766-99.55-117.598-17.274-54.975-12.172-116.18 9.284-169.665C42.56 84.368 74.25 12.706 134.707 1.199c65.942-12.55 112.312 77.39 179.086 84.264Z" fill="#F9EAEF" fill-opacity=".3"/><path d="M255.508 153.654c-14.722 17.36-9.693 47.565 9.831 59.253 24.711 14.754 51.761-8.365 46.17-39.373-1.211-6.567-1.762-7.855-6.934-15.238-5.002-7.142-6.193-8.341-11.021-11.061-5.916-3.274-13.108-4.698-20.06-3.778-5.035.654-14.303 5.945-17.986 10.197Zm22.037 5.265c6.102.034 9.716 1.69 13.481 6.23 13.947 16.907.878 43.634-17.105 34.815-17.029-8.292-14.165-40.912 3.624-41.045Zm-110.488 58.684c-3.548 5.114-5.405 15.144-4.227 22.332.906 5.465 1.627 6.994 6.63 14.136 5.171 7.382 6.193 8.341 11.953 11.724 12.854 7.506 27.795 7.812 39.09.743 7.653-4.758 11.413-9.902 13.25-18.124 4.321-19.528-10.337-39.285-32.148-43.393-10.098-1.901-17.543-.517-25.711 4.842-4.269 2.749-7.203 5.401-8.837 7.74Zm24.455 2.376c8.713-1.076 17.154 2.464 23.121 9.648 14.172 17.228-5.956 34.545-26.031 22.406-8.139-4.946-12.732-15.007-10.063-22.376 1.843-4.877 7.299-8.935 12.973-9.678Zm145.959-43.086c-8.363 9.919-11.576 21.017-9.469 33.535 1.167 7.674 1.629 8.666 6.351 15.407 4.215 6.018 5.878 7.725 9.504 9.731 5.782 3.248 12.704 4.622 19.635 3.837 4.956-.599 6.458-1.292 13.125-5.958 7.058-4.94 7.651-5.595 11.252-12.301 14.325-26.769-3.605-58.707-30.551-54.795-7.884 1.093-15.112 4.957-19.847 10.544Zm23.482 4.491c7.796.284 13.165 4.778 15.691 13.056 3.901 12.577-4.464 27.999-16.104 29.569-11.371 1.62-19.825-10.281-17.279-24.501 1.734-9.704 10.244-18.412 17.692-18.124Zm-198.73 122.591c-4.712 6.287-6.685 14.484-5.314 22.614.872 5.25 1.682 7.074 5.842 13.012 4.384 6.26 5.35 7.138 12.03 10.834 26.943 15.105 58.69-2.811 54.91-30.9-.591-4.848-1.311-6.377-6.033-13.117-4.744-6.606-6.047-7.966-10.818-10.606-11.103-6.34-25.484-7.516-36.379-2.88-6.569 2.804-9.907 5.38-14.238 11.043Zm25.957 1.683c12.11-1.899 24.932 6.227 26.407 16.676.614 4.713-2.64 11.415-7.031 14.489-9.412 6.587-26.41 3.177-33.211-6.533-3.092-4.413-3.126-11.804-.027-16.723 1.823-3.07 9.018-7.149 13.862-7.909Zm72.001-43.217c-8.384 10.055-12.453 25.938-9.986 39.638 1.303 7.699 1.258 7.97-2.421 14.731-2.751 4.915-4.258 9.438-5.224 15.735-5.939 38.24 30.832 68.71 66.938 55.516 12.398-4.492 24.111-16.637 28.476-29.259l1.92-5.769 6.08.169c13.202.327 27.806-6.188 36.83-16.331 15.182-17.204 16.274-42.843 2.727-62.182-10.511-15.006-30.299-23.4-48.319-20.593-7.827 1.173-7.962 1.148-14.676-2.764-12.204-7.244-29.457-8.681-42.313-3.509-5.863 2.309-15.968 9.741-20.032 14.618Zm29.901-1.196c9.788-2.546 22.333.513 30.453 7.267 4.706 3.882 6.972 4.448 12.264 2.658 7.253-2.327 12.434-2.605 19.469-1.071 9.975 2.227 14.354 5.141 20.481 13.888 4.272 6.099 5.195 8.084 6.168 13.143 1.539 8.371.418 15.613-3.485 22.889-3.02 5.701-4.027 6.766-10.458 11.267-6.117 4.282-7.832 5.004-12.968 5.848-3.331.417-9.332.193-13.449-.513-10.042-1.821-11.846-.558-13.725 9.607-.688 4.189-2.608 9.958-4.118 12.808-2.472 4.481-3.737 5.845-9.854 10.126-5.96 4.172-7.989 5.114-12.912 5.929-8.275 1.367-15.489.078-22.798-4.015-5.781-3.248-6.804-4.207-11.413-10.787-6.048-8.802-7.347-13.992-6.05-23.988.964-7.133 2.998-11.905 7.665-17.923 3.493-4.358 3.736-6.681 1.696-12.429-3.515-9.857-2.1-22.687 3.349-30.926 4.051-6.064 12.465-12.073 19.685-13.778Z" fill="#fff"/></svg>