<svg width="1081" height="137" fill="none" xmlns="http://www.w3.org/2000/svg"><g clip-path="url(#a)"><path opacity=".14" d="M166.956 34.423c-7.287-4.24-16.01-5.473-24.421-4.97-8.411.502-16.633 2.648-24.763 4.802a10.916 10.916 0 0 0-2.712-12.81 10.852 10.852 0 0 0-13.061-.336C98.503 12.18 93.23 2.512 83.945.39 76.97-1.203 69.562 2.283 64.821 7.612c-4.742 5.328-7.234 12.331-8.913 19.29a16.232 16.232 0 0 0-16.7-3.19 16.262 16.262 0 0 0-7.102 5.26 16.307 16.307 0 0 0-3.309 8.206c-4.156-3.99-9.041-7.757-14.725-8.382C6.915 28.014.98 33.648.107 40.52c-.98 7.742 5.075 15.415 11.595 18.765.493.259.995.495 1.52.715h151.424a71.05 71.05 0 0 1 8.646-2.466c.503-.442.969-.926 1.391-1.446 2.743-3.388 2.933-8.374 1.185-12.393-1.747-4.02-5.144-7.08-8.912-9.272Z" fill="url(#b)"/></g><g clip-path="url(#c)"><path opacity=".14" d="M650.837 51.212c-3.746-2.12-8.231-2.737-12.555-2.485-4.325.25-8.552 1.324-12.731 2.401a5.327 5.327 0 0 0 .4-3.43 5.429 5.429 0 0 0-1.795-2.975 5.677 5.677 0 0 0-3.329-1.177 5.689 5.689 0 0 0-3.386 1.01c-1.797-4.465-4.508-9.3-9.282-10.361-3.586-.796-7.395.947-9.832 3.612-2.438 2.664-3.719 6.166-4.582 9.645a8.446 8.446 0 0 0-4.063-1.978 8.567 8.567 0 0 0-4.524.383 8.349 8.349 0 0 0-3.651 2.63 8.04 8.04 0 0 0-1.701 4.103c-2.136-1.995-4.648-3.879-7.57-4.19-3.68-.393-6.731 2.424-7.18 5.86-.504 3.872 2.609 7.708 5.961 9.383.254.13.512.247.781.358h77.851a37.377 37.377 0 0 1 4.446-1.234c.258-.22.498-.463.715-.723 1.41-1.693 1.508-4.186.609-6.196-.898-2.01-2.645-3.54-4.582-4.636Z" fill="url(#d)"/></g><g clip-path="url(#e)"><path opacity=".14" d="M1069.42 108.013c-8.4-4.806-18.45-6.203-28.14-5.634-9.7.569-19.17 3.002-28.54 5.444a12.184 12.184 0 0 0 .89-7.774 12.276 12.276 0 0 0-4.02-6.746 12.65 12.65 0 0 0-7.46-2.668 12.658 12.658 0 0 0-7.593 2.288c-4.028-10.12-10.106-21.076-20.807-23.483-8.039-1.803-16.577 2.148-22.042 8.187-5.464 6.04-8.337 13.977-10.272 21.862a18.848 18.848 0 0 0-9.106-4.484 19.006 19.006 0 0 0-10.142.868 18.716 18.716 0 0 0-8.185 5.964 18.308 18.308 0 0 0-3.813 9.299c-4.79-4.521-10.421-8.792-16.972-9.499-8.249-.889-15.088 5.496-16.095 13.286-1.13 8.774 5.85 17.47 13.363 21.266.569.294 1.147.561 1.752.811h174.522a82.994 82.994 0 0 1 9.97-2.795c.58-.501 1.11-1.05 1.6-1.639 3.16-3.839 3.38-9.49 1.37-14.045-2.02-4.556-5.93-8.024-10.28-10.508Z" fill="url(#f)"/></g><g clip-path="url(#g)"><path opacity=".14" d="M504.758 77.228c-4.528-2.615-9.949-3.375-15.176-3.065-5.228.31-10.337 1.633-15.389 2.962a6.686 6.686 0 0 0 .483-4.23 6.713 6.713 0 0 0-2.169-3.67 6.78 6.78 0 0 0-8.117-.207c-2.172-5.507-5.45-11.468-11.22-12.778-4.335-.981-8.939 1.169-11.885 4.455-2.947 3.286-4.496 7.604-5.539 11.895a10.13 10.13 0 0 0-4.91-2.44 10.163 10.163 0 0 0-5.469.473 10.105 10.105 0 0 0-4.414 3.245 10.024 10.024 0 0 0-2.056 5.06c-2.582-2.46-5.619-4.784-9.151-5.17-4.448-.483-8.136 2.991-8.679 7.23-.609 4.774 3.154 9.506 7.206 11.571.307.16.618.306.944.442h94.106a44.423 44.423 0 0 1 5.374-1.521c.312-.273.601-.571.864-.892 1.704-2.09 1.822-5.164.736-7.642-1.086-2.479-3.196-4.366-5.539-5.718Z" fill="url(#h)"/></g><defs><linearGradient id="b" x1="0" y1="30" x2="177" y2="30" gradientUnits="userSpaceOnUse"><stop stop-color="#81CCE3"/><stop offset=".23" stop-color="#68C1D7"/><stop offset=".72" stop-color="#27A4B9"/><stop offset="1" stop-color="#0093A7"/></linearGradient><linearGradient id="d" x1="565.001" y1="49.001" x2="656.001" y2="49.001" gradientUnits="userSpaceOnUse"><stop stop-color="#81CCE3"/><stop offset=".23" stop-color="#68C1D7"/><stop offset=".72" stop-color="#27A4B9"/><stop offset="1" stop-color="#0093A7"/></linearGradient><linearGradient id="f" x1="877" y1="103" x2="1081" y2="103" gradientUnits="userSpaceOnUse"><stop stop-color="#81CCE3"/><stop offset=".23" stop-color="#68C1D7"/><stop offset=".72" stop-color="#27A4B9"/><stop offset="1" stop-color="#0093A7"/></linearGradient><linearGradient id="h" x1="401.001" y1="74.501" x2="511.001" y2="74.501" gradientUnits="userSpaceOnUse"><stop stop-color="#81CCE3"/><stop offset=".23" stop-color="#68C1D7"/><stop offset=".72" stop-color="#27A4B9"/><stop offset="1" stop-color="#0093A7"/></linearGradient><clipPath id="a"><path fill="#fff" d="M0 0h177v60H0z"/></clipPath><clipPath id="c"><path fill="#fff" transform="translate(565 34)" d="M0 0h91v30H0z"/></clipPath><clipPath id="e"><path fill="#fff" transform="translate(877 69)" d="M0 0h204v68H0z"/></clipPath><clipPath id="g"><path fill="#fff" transform="translate(401 56)" d="M0 0h110v37H0z"/></clipPath></defs></svg>