<svg width="15" height="19" fill="none" xmlns="http://www.w3.org/2000/svg"><path fill-rule="evenodd" clip-rule="evenodd" d="M3.082 3.008a6.23 6.23 0 0 1 4.419-1.841c1.656 0 3.245.661 4.418 1.84a6.311 6.311 0 0 1 1.832 4.45c0 2.878-1.596 5.483-3.259 7.407a21.562 21.562 0 0 1-2.991 2.84 21.564 21.564 0 0 1-2.992-2.84c-1.663-1.924-3.258-4.53-3.258-7.407 0-1.67.659-3.27 1.831-4.45ZM7.201 18.78l.3-.426.3.426a.522.522 0 0 1-.6 0Zm0 0 .3-.426.3.426.002-.001.005-.004.016-.012.061-.044c.052-.039.128-.095.224-.169.192-.147.464-.363.788-.64a22.6 22.6 0 0 0 2.383-2.365c1.723-1.993 3.512-4.837 3.512-8.089a7.353 7.353 0 0 0-2.134-5.182A7.272 7.272 0 0 0 7.5.125a7.272 7.272 0 0 0-5.158 2.148A7.353 7.353 0 0 0 .21 7.457c0 3.25 1.79 6.095 3.512 8.088a22.606 22.606 0 0 0 3.171 3.005c.094.072.19.144.285.213l.017.012.005.004ZM5.417 7.417a2.083 2.083 0 1 1 4.167 0 2.083 2.083 0 0 1-4.167 0Zm2.084-3.125a3.125 3.125 0 1 0 0 6.25 3.125 3.125 0 0 0 0-6.25Z" fill="#F6A6BF"/></svg>