<svg width="71" height="58" fill="none" xmlns="http://www.w3.org/2000/svg"><path d="M47.4.6c-5.6 1.4-9 8.4-6.6 13.7 3 6.6 12 5.8 15.4-1.5.7-1.5.7-1.9.7-4.1 0-2.3 0-2.7-.6-4-.8-1.5-2-2.8-3.7-3.6a9.8 9.8 0 0 0-5.2-.5ZM19.6 1a9 9 0 0 0-4.1 4c-.6 1.3-.7 1.7-.7 3.9 0 2.3 0 2.6.8 4.2a9.6 9.6 0 0 0 8 5.8c2.3.1 3.8-.4 5.4-1.8 3.8-3.5 3.6-9.7-.3-13.7A8.1 8.1 0 0 0 22.6.7c-1.3 0-2.3 0-3 .3ZM61 17.3a10 10 0 0 0-6.8 5.6c-.9 1.7-1 2-1 4.1 0 1.9.2 2.5.6 3.4.8 1.5 2 2.8 3.6 3.6 1.1.6 1.5.7 3.6.7 2.2 0 2.4 0 4.1-.9 7-3.5 7.9-12.7 1.7-15.8a8.2 8.2 0 0 0-5.7-.7Zm-55 .9a7.5 7.5 0 0 0-5.1 7.5c0 2 0 2.2 1 4 3.3 7 12.6 8 15.9 1.5.6-1 .6-1.5.6-3.6 0-2 0-2.5-.7-3.7-1.4-3-4.2-5.3-7.1-6a7.8 7.8 0 0 0-4.6.3Zm18.6 12.4a13 13 0 0 1 7.9-6.8c1.5-.4 4.7-.5 6.3-.1 3.4.8 6.8 3.6 8.3 6.9.8 1.8.9 1.8 2.7 2.7A12.7 12.7 0 0 1 47.2 57c-3.4.8-7.4 0-10-2l-1.3-.9-1.3 1A13 13 0 0 1 24.4 57 12.7 12.7 0 0 1 22 33.3c1.7-.9 1.8-1 2.6-2.7Z" opacity=".7" fill="#F6A6BF"/></svg>