<svg width="541" height="405" fill="none" xmlns="http://www.w3.org/2000/svg"><g clip-path="url(#a)"><path d="M359.3 72.2 136.7 91.5A131.3 131.3 0 1 0 159.4 353l222.5-19.3a131.3 131.3 0 1 0-22.6-261.6Z" fill="#FAF7F5"/><path d="M156.1 367.4c4.2 10.2-.8 22-11.2 26.3a20.2 20.2 0 0 1-26.4-10.7c-4.3-10.2.8-22 11.1-26.3 10.4-4.3 22.3.5 26.5 10.7Z" fill="#FFFEF1"/><path d="M135.2 380.6a20.7 20.7 0 0 1-22.7-20.6 21 21 0 0 1 40.3-8 20.8 20.8 0 0 1-17.6 28.6Zm-2.7-32.6a12.5 12.5 0 0 0-11.3 12c0 1.7.3 3.2 1 4.7a12.3 12.3 0 1 0 10.3-16.6Z" fill="#28AFC9"/><path d="M460.6 87.4c18-11.9 41.4-8.2 52.2 8.2 10.7 16.4 4.7 39.2-13.4 51-18 12-41.4 8.2-52.2-8.1-10.7-16.4-4.7-39.3 13.4-51.1Z" fill="#FFFEF1"/><path d="M469 163.8a36 36 0 0 1-33.9-15.5c-11-16.8-5-40.2 13.3-52.2 8.6-5.8 19-8 29.2-6.6 10.1 1.6 18.7 7 24 15.2 5.4 8.2 7 18.2 4.4 28.2-2.7 10-9 18.5-17.7 24a42.3 42.3 0 0 1-19.3 6.9Zm-15.8-60.5c-14.3 9.4-19.2 27.4-10.8 40.2 8.4 12.8 26.8 15.6 41.2 6.2a32.8 32.8 0 0 0 14-19c2-7.6.8-15-3.2-21.2A26.1 26.1 0 0 0 476.3 98c-8.1-1.2-16.3.7-23.1 5.2Z" fill="#28AFC9"/><path d="m80.6 94.8-17.6 4A14.5 14.5 0 0 0 52 116.1l5.2 22.6a14.5 14.5 0 0 0 17.3 10.9l17.6-4c4.2-1 8.5-1.1 12.8-.5l62.8 10-23.2-101.6-52.3 36.1a33.8 33.8 0 0 1-11.7 5.2Z" fill="#FFFEF1"/><path d="m173.5 160.3-69.2-10.9c-3.7-.6-7.5-.4-11.2.4l-17.6 4A18.8 18.8 0 0 1 53 139.7L48 117A18.8 18.8 0 0 1 62 94.6l17.6-4c3.7-.9 7.2-2.4 10.3-4.5l57.5-39.9 26 114Zm-77.3-19.8c3.2-.3 6.4-.2 9.5.3l56.5 9-20.4-89.1-47 32.5a38 38 0 0 1-13.2 5.9l-17.7 4a10.2 10.2 0 0 0-7.6 12l5.2 22.6a10.1 10.1 0 0 0 12.1 7.7l17.6-4c1.7-.4 3.3-.7 5-.9Z" fill="#EB4D86"/><path d="m51.8 114.7-4.3 1A8.7 8.7 0 0 0 41 126l2 8.5a8.7 8.7 0 0 0 10.3 6.5l4.3-1-5.8-25.4Z" fill="#FAF7F5"/><path d="M52.6 145.6a13 13 0 0 1-13.9-10l-2-8.5a13 13 0 0 1 9.9-15.6l8.4-2 7.8 33.9-8.5 2-1.7.2Zm-4-25.7a4.4 4.4 0 0 0-3.4 5.2l2 8.5a4.4 4.4 0 0 0 5.2 3.3l-3.9-17Z" fill="#28AFC9"/><path d="m73.2 150 5.8 25.3a13 13 0 0 0 25.4-5.8l-5.8-25.4-25.4 5.8Z" fill="#fff"/><path d="M93.2 189.7a17.4 17.4 0 0 1-18.5-13.4L68 146.6l33.8-7.7 6.8 29.6a17.4 17.4 0 0 1-15.4 21.2Zm-14.8-36.5 4.8 21.1a8.7 8.7 0 0 0 17-3.8l-5-21.2-16.8 3.9Z" fill="#F6A6BF"/><path d="M92.8 118.7a85.3 85.3 0 0 1-2-28.2c-3.1 2-6.6 3.4-10.2 4.3l-17.6 4A14.5 14.5 0 0 0 52 116.1l5.2 22.6a14.5 14.5 0 0 0 17.3 10.9l17.6-4a34 34 0 0 1 11.1-.7c-5-8-8.5-17-10.5-26.2Z" fill="#FAF7F5"/><path d="M73 154.2a18.8 18.8 0 0 1-20-14.5L47.8 117A18.8 18.8 0 0 1 62 94.6l17.6-4c3.2-.8 6.2-2 9-3.8l7.6-4.7-1 9c-1 8.9-.3 18 1.7 26.7 2 8.8 5.4 17.2 10 24.8l4.8 7.6-8.9-1c-3.2-.3-6.5-.1-9.7.6l-17.6 4-2.5.4Zm13.1-56.5c-1.5.5-3 1-4.5 1.3l-17.7 4a10.2 10.2 0 0 0-7.6 12.2l5.2 22.5a10.1 10.1 0 0 0 12.1 7.7l17.6-4c1.6-.4 3.1-.7 4.7-.8a96.5 96.5 0 0 1-9.8-43Z" fill="#F6A6BF"/><path d="M188.8 96.8c7 30.4-1 58-17.6 61.9-16.6 3.8-35.7-17.8-42.7-48.1-6.9-30.4 1-58.1 17.6-62 16.6-3.7 35.8 17.8 42.7 48.2Z" fill="#fff"/><path d="M169.3 163.4c-18.4 1.7-37.8-20.3-45-51.9a88.2 88.2 0 0 1 0-43c3.8-13.3 11.2-21.8 20.8-24 19.3-4.4 40.4 18.1 48 51.4a88.4 88.4 0 0 1 0 43c-3.8 13.3-11.2 21.8-21 24-.8.3-1.8.4-2.8.5ZM148.8 52.6c-.6 0-1.2.2-1.7.3-6.5 1.5-11.6 7.8-14.5 18-3 11-3 24.7.1 38.7 6.3 27.5 23.5 48 37.6 44.9 6.4-1.5 11.5-7.9 14.4-18 3.1-11 3-24.7-.1-38.7-6-26.5-22.1-46.4-35.8-45.2Z" fill="#F6A6BF"/><path d="M174.8 100c4.6 20.2 1.2 38.3-7.8 40.3-8.9 2-19.9-12.7-24.5-33-4.6-20.2-1.1-38.3 7.8-40.3s19.9 12.7 24.5 33Z" fill="#F6A6BF"/><path d="M166.4 144.8c-5.6.5-11.5-3-16.7-10-5-6.7-9-16-11.4-26.5a72.9 72.9 0 0 1-1.3-28.8c1.9-9.4 6.2-15.3 12.3-16.7 6.1-1.4 12.6 2 18.3 9.8 5 6.7 9 16 11.4 26.4 5.4 23.3.6 43-11 45.6l-1.6.2Zm-14.7-73.6h-.4c-2.5.6-4.7 4.4-5.7 10-1.4 7-1 16 1.1 25.2a63.5 63.5 0 0 0 10 23.2c3.3 4.6 7 7 9.4 6.5 4.8-1.1 9-15.4 4.5-35.2a63.7 63.7 0 0 0-10-23.2c-3.1-4.3-6.5-6.7-9-6.5Z" fill="#F6A6BF"/><path d="M169.6 99.9a19.7 19.7 0 0 0-29-12.7 78.5 78.5 0 0 0 7.6 36.6 19.7 19.7 0 0 0 21.5-24Z" fill="#fff"/><path d="M152.7 128.2c-1.7.1-3.4 0-5-.1l-2.4-.3-1-2.1a82.2 82.2 0 0 1-8.1-38.7l.1-2.3 2-1.3a24 24 0 1 1 14.4 44.8Zm-1.7-8.6a15.3 15.3 0 1 0-6.2-29.6 73.7 73.7 0 0 0 6.2 29.6Z" fill="#F6A6BF"/><path d="m338.8 365.1-86.4 7.5a4.3 4.3 0 1 1-.8-8.6l86.4-7.5a4.3 4.3 0 1 1 .8 8.6Z" fill="#EB4D86"/><path d="M93.2 357.3c-1 .1-2-.1-2.8-.7A135.7 135.7 0 0 1 48 177a4.3 4.3 0 1 1 7.5 4.3 127 127 0 0 0 39.7 168.2 4.3 4.3 0 0 1-2 8Z" fill="#F6A6BF"/><path d="m417 100.8-1.3-.1a126.7 126.7 0 0 0-38.2-2.5 4.3 4.3 0 0 1-.8-8.6c13.7-1.2 27.4-.3 40.8 2.6a4.3 4.3 0 0 1-.4 8.6Z" fill="#FFFEF1"/><path d="m401 359.7-.9.1-27.2 2.4a4.3 4.3 0 0 1-.8-8.7l27.2-2.3h.7A127 127 0 0 0 501 165.7a4.3 4.3 0 0 1 7.7-4 135.8 135.8 0 0 1-107.7 198Z" fill="#F6A6BF"/><path fill-rule="evenodd" clip-rule="evenodd" d="M292.3 163.2v.3a.2.2 0 0 1 0-.3ZM292.3 163.5c1.4 2 35.9-4 35.9-4s19 32.8 2.9 67.9c-11 22.8-20.2 37.7-18.8 63.4 10.4 2.2 9.5 9.7 3 9.4h-8.1c-8-.7-2.9-33.5-1-43.8l.5-3-.5 3c-1.6 7.6-7 27.1-20.7 34.2 1-.5 6.4-.2 10 1.5 6.9 3.2 11.6 9.2-3.4 8.1-18.7.4-36.7 0-36.7 0s-49.5-26.6-7-70.2c21.6-22.1 48.8-9.7 44-66.5ZM306.2 256.5l.5-3-.5 3Z" fill="#241D50"/><path d="M200 174.4c23 7.1 29.7 41.5 34.2 91 .7 7 4 28.3 26 33.9l-.2.5c-30.6 2.9-43.9-25.9-45.8-51-3.4-37.6-8.1-62.6-28.4-56-8.8 3.8-13.5-26.5 14.2-18.4Z" fill="#2A2460"/><path fill-rule="evenodd" clip-rule="evenodd" d="M269.1 136c6 .6 16.2 2 17.3 3.3C295.3 129 313 128 318.1 128l21.9-18.4a2.6 2.6 0 0 1 4.2 1.5c1.5 7.5 4.4 22.4 4.2 22.9 25.2 36.7-24.1 53.8-43.5 52-22.7-4.4-28-11.9-30.7-19.3-3-8.5-1.8-10-1.8-10l-6-17.2a2.7 2.7 0 0 1 2.7-3.5Z" fill="#2A2460"/><path d="M306 168.8c2 .9 3.4 1 4 .3.7-.8.4-2.6.1-3.1v-.2a.7.7 0 0 1 0-.9.7.7 0 0 1 .8-.2c.2 0 .3.2.4.4 1.5 1.9 3 2.7 4.3 2.6 3.3-.4 5.7-5.8 5.7-5.9a.7.7 0 0 1 .4-.4.7.7 0 0 1 1 .7l-.1.3c-.1.2-2.7 6.2-6.8 6.7a5.2 5.2 0 0 1-4-1.3 3.4 3.4 0 0 1-1.1 2.6 3.6 3.6 0 0 1-2.9.5 10.7 10.7 0 0 1-2.6-1 .7.7 0 0 1-.1-.8.7.7 0 0 1 .4-.3.7.7 0 0 1 .5 0Z" fill="#fff"/><path fill-rule="evenodd" clip-rule="evenodd" d="M309 160.3c-.2 0 8-6.7 1.3 5 0 0-11.5-5.7-1.4-5Z" fill="url(#b)"/><path fill-rule="evenodd" clip-rule="evenodd" d="M365.4 147.9a48 48 0 0 0-30.7 9.5s16.4-14.3 30.7-9.5ZM366.1 159c-.8-.4-13.1-5.6-30.7-.2 0 0 19-8.4 30.7.2ZM293.8 169.6a33.7 33.7 0 0 0-21.1 8.7c5.6-9.2 21-8.7 21-8.7ZM294 170.7a32.2 32.2 0 0 0-16.7 14c2.5-10 16.7-14 16.7-14Z" fill="#fff"/><path opacity=".2" fill-rule="evenodd" clip-rule="evenodd" d="M340.7 115.7c3.7.6 1.4 15.8 1.4 15.8a26.1 26.1 0 0 0-14.4-4.4s9.4-12.1 13-11.4ZM273.2 141c2.5-.8 10 2 10 2-4.8.9-7.6 6.7-7.6 6.7s-4.8-8-2.4-8.8Z" fill="#fff"/></g><defs><linearGradient id="b" x1="312.9" y1="161.8" x2="304.8" y2="161.8" gradientUnits="userSpaceOnUse"><stop stop-color="#EC6588"/><stop offset="1" stop-color="#E71A80"/></linearGradient><clipPath id="a"><path fill="#fff" transform="rotate(-5.3 508.8 23.4)" d="M0 0h509.9v359.6H0z"/></clipPath></defs></svg>
