<svg width="401" height="377" fill="none" xmlns="http://www.w3.org/2000/svg"><g opacity=".35"><path opacity=".35" d="M249.162 64.505C283.588 57.807 294.241 5.08 328.989.312c14.823-2.04 29.566 6.164 39.254 17.528 9.688 11.365 15.341 25.568 20.797 39.481 5.857 14.83 11.722 30.148 10.882 46.014-.841 15.866-10.403 32.438-25.853 36.171-14.516 3.514-31.985-4.29-43.659 5.012-9.719 7.733-8.926 22.995-3.839 34.32 5.088 11.325 13.472 21.175 16.746 33.151a41.654 41.654 0 0 1-9.288 38.923 41.738 41.738 0 0 1-17.222 11.421 41.779 41.779 0 0 1-20.595 1.764c-6.139-1.02-12.302-3.412-18.394-2.157-10.042 2.063-15.624 13.286-16.181 23.528-.557 10.243 2.355 20.392 2.269 30.587-.244 25.521-20.326 48.257-44.616 56.163-24.291 7.905-51.447 2.768-74.034-9.153-22.587-11.921-41.232-30.077-58.26-49.104-23.805-26.602-45.928-57.331-49.665-92.796-3.737-35.465 17.358-75.659 52.545-81.777 18.057-3.137 39.757 1.788 52.53-11.372 16.864-17.356 2.356-50.978 19.627-68.005 10.803-10.658 28.593-8.854 43.031-4.18 14.438 4.674 29.197 11.615 44.098 8.674Z" fill="url(#a)"/><path opacity=".35" d="M336.502 67.085C334.932 69.203 197.786 254.952 0 334.588l2.269 6.031C201.939 260.238 340.16 73.015 341.723 70.874l-5.221-3.789Z" fill="#fff"/><path opacity=".35" d="m303.801 201.221-96.58 4.448.297 6.44 96.58-4.448-.297-6.44Zm-107.29-89.3-36.431 129.91 6.214 1.739 36.431-129.91-6.214-1.739Z" fill="#fff"/><path opacity=".35" d="m228.797 302.119-111.552-22.956-5.653-108.992-6.446.338 5.912 113.963 116.428 23.96 1.311-6.313Z" fill="#fff"/></g><defs><linearGradient id="a" x1="287.405" y1="342.19" x2="177.38" y2="46.393" gradientUnits="userSpaceOnUse"><stop stop-color="#F9C8C3"/><stop offset="1" stop-color="#FCE4E2"/></linearGradient></defs></svg>