<svg width="40" height="40" fill="none" xmlns="http://www.w3.org/2000/svg"><path d="M7.424 40h23.2a4.289 4.289 0 0 0 4.288-4.29V16.685c4.025-.16 6.432-4.625 4.282-8.095L37.94 6.565a5.3 5.3 0 0 0-4.505-2.51h-3.587v-1.59A2.464 2.464 0 0 0 27.382 0a6.112 6.112 0 0 0-6.11 6.115v8.64c-3.195.315-5.608 1.825-7.38 3.955-1.955 2.35-3.108 5.412-3.793 8.355-.69 2.955-.932 5.895-1.007 8.08-.03.935-.03 1.74-.02 2.355H7.424a4.927 4.927 0 0 1-3.6-8.293l2.3-2.467a8.972 8.972 0 0 0-.215-12.46l-2.257-2.257a1.25 1.25 0 1 0-1.768 1.767l2.258 2.258a6.468 6.468 0 0 1 .155 8.987l-2.3 2.468A7.433 7.433 0 0 0 7.424 40ZM27.35 2.5v2.805a1.25 1.25 0 0 0 1.25 1.25h4.835c.97 0 1.87.5 2.38 1.325l1.258 2.028a2.804 2.804 0 0 1-2.383 4.282h-1.025a1.25 1.25 0 0 0-1.25 1.25v20.27c0 .987-.8 1.79-1.79 1.79h-1.79v-1.79a7.33 7.33 0 0 0-7.325-7.332h-2.535a1.25 1.25 0 0 0 0 2.5h2.533a4.83 4.83 0 0 1 4.83 4.832v1.79H11.572c-.013-.585-.013-1.36.017-2.273.07-2.09.3-4.85.943-7.594.642-2.76 1.675-5.398 3.28-7.325 1.567-1.878 3.695-3.113 6.71-3.113a1.25 1.25 0 0 0 1.25-1.25v-9.83A3.612 3.612 0 0 1 27.347 2.5h.002Z" fill="#F6A6BF"/></svg>