<svg width="225" height="160" fill="none" xmlns="http://www.w3.org/2000/svg"><g clip-path="url(#a)"><path d="m68.18 25.94 98.55-.58c32-.18 58.09 25.82 58.27 58.07.18 32.27-25.61 58.56-57.6 58.75l-98.58.56c-32 .18-58.08-25.82-58.27-58.08-.17-32.26 25.62-58.56 57.63-58.72Z" fill="#FAF7F5"/><path d="M169.4 148.4a9 9 0 0 0 5.97 11.19 8.88 8.88 0 0 0 11.2-5.83 9 9 0 0 0-5.98-11.17 8.89 8.89 0 0 0-11.2 5.81Z" fill="#FFFEF1"/><path d="M179.13 153.37a9.09 9.09 0 0 0 8.76-6.44 9.14 9.14 0 0 0-.7-7.02 9.3 9.3 0 0 0-8.98-4.88 9.22 9.22 0 0 0-7.98 6.4 9.33 9.33 0 0 0 .7 7.03 9.2 9.2 0 0 0 8.2 4.9Zm-.14-14.53a5.5 5.5 0 0 1 5.45 4.89c.07.7 0 1.4-.21 2.07a5.46 5.46 0 0 1-4.2 3.87 5.37 5.37 0 0 1-5.31-2.05 5.48 5.48 0 0 1 4.27-8.76v-.02Z" fill="#28AFC9"/><path d="M24.26 36.78c-8.43-4.5-18.54-1.93-22.59 5.77-4.05 7.7-.5 17.58 7.94 22.09 8.43 4.5 18.54 1.92 22.59-5.77 4.04-7.69.5-17.58-7.94-22.1Z" fill="#FFFEF1"/><path d="M23.65 70.97c5.94 0 11.5-2.96 14.27-8.24 4.15-7.9.58-18.03-7.97-22.6-4-2.19-8.66-2.79-13.07-1.7a15.33 15.33 0 0 0-9.96 7.72 15.55 15.55 0 0 0-.75 12.64c1.58 4.3 4.7 7.85 8.73 9.96 2.69 1.45 5.7 2.21 8.75 2.22Zm4.5-27.43c6.69 3.57 9.55 11.37 6.4 17.38-3.17 6-11.17 7.99-17.86 4.41a14.55 14.55 0 0 1-6.92-7.86 11.71 11.71 0 0 1 .54-9.51 11.54 11.54 0 0 1 7.5-5.78c3.5-.86 7.19-.37 10.35 1.36Z" fill="#28AFC9"/><path d="m191.53 24.54 7.9 1.06a6.35 6.35 0 0 1 5.32 4.73c.22.81.27 1.66.16 2.5l-1.35 10.2a6.47 6.47 0 0 1-4.68 5.38c-.81.22-1.66.27-2.49.16l-7.9-1.06c-1.88-.26-3.8-.14-5.64.33l-27.2 6.94 6.07-45.93 24.44 13.88c1.66.94 3.48 1.56 5.37 1.8Z" fill="#FFFEF1"/><path d="m153.38 57.35 29.94-7.64c1.6-.41 3.28-.51 4.93-.29l7.9 1.06c2.18.3 4.38-.3 6.13-1.65a8.4 8.4 0 0 0 3.19-5.53l1.35-10.21c.28-2.2-.3-4.42-1.64-6.19a8.3 8.3 0 0 0-5.5-3.21l-7.9-1.06a12.93 12.93 0 0 1-4.68-1.56l-26.9-15.3-6.82 51.58Zm33.13-11.9c-1.4 0-2.78.17-4.13.52l-24.46 6.25 5.32-40.3 21.99 12.5a16.67 16.67 0 0 0 6.05 2.05l7.9 1.04a4.47 4.47 0 0 1 3.84 5.07l-1.35 10.2a4.52 4.52 0 0 1-5.02 3.88l-7.9-1.07c-.74-.1-1.49-.15-2.24-.15Z" fill="#EA4385"/><path d="m205 32.19 1.9.25a3.82 3.82 0 0 1 3.2 2.83c.13.5.16 1 .1 1.5l-.51 3.85a3.8 3.8 0 0 1-4.3 3.3l-1.9-.24 1.51-11.5Z" fill="#FAF7F5"/><path d="M205.9 45.9a5.72 5.72 0 0 0 5.68-5.03l.5-3.83a5.83 5.83 0 0 0-2.8-5.77 5.7 5.7 0 0 0-2.13-.73l-3.8-.51-2.02 15.3 3.8.52c.25.03.5.05.76.05Zm.75-11.53a1.9 1.9 0 0 1 1.6 1.42c.06.25.07.5.04.75l-.5 3.83a1.94 1.94 0 0 1-2.16 1.66l1.02-7.66Z" fill="#28AFC9"/><path d="m197.03 48.65-1.52 11.49a5.83 5.83 0 0 1-4.22 4.83 5.7 5.7 0 0 1-6.05-2.08 5.8 5.8 0 0 1-1.13-4.28l1.53-11.49 11.4 1.53Z" fill="#fff"/><path d="M189.82 67.1a7.75 7.75 0 0 0 7.6-6.7l1.76-13.4L184 44.94l-1.76 13.4a7.78 7.78 0 0 0 1.51 5.71 7.65 7.65 0 0 0 6.08 3.04Zm5.06-16.79-1.27 9.57a3.87 3.87 0 0 1-4.29 3.25 3.89 3.89 0 0 1-3.3-4.27l1.26-9.57 7.6 1.02Z" fill="#F6A6BF"/><path d="M187.16 35.64c.59-4.18.48-8.43-.31-12.57 1.47.75 3.05 1.24 4.68 1.47l7.9 1.06a6.35 6.35 0 0 1 5.32 4.73c.22.81.27 1.66.16 2.5l-1.35 10.2a6.47 6.47 0 0 1-4.68 5.38c-.81.22-1.66.27-2.49.16l-7.9-1.06a14.9 14.9 0 0 0-4.91.17 38.29 38.29 0 0 0 3.58-12.04Z" fill="#FAF7F5"/><path d="M197.26 50.56c2 0 3.95-.74 5.46-2.08a8.4 8.4 0 0 0 2.75-5.19l1.35-10.2c.29-2.2-.3-4.43-1.64-6.19a8.3 8.3 0 0 0-5.49-3.21l-7.9-1.06c-1.42-.2-2.8-.64-4.1-1.29l-3.51-1.77.79 3.9c.75 3.92.86 7.95.3 11.92a36.4 36.4 0 0 1-3.38 11.42l-1.77 3.55 3.86-.78c1.4-.3 2.85-.34 4.28-.16l7.9 1.06c.37.05.73.08 1.1.08Zm-8.03-24.52c.67.18 1.36.32 2.05.41l7.9 1.06a4.47 4.47 0 0 1 3.84 5.07l-1.35 10.2a4.45 4.45 0 0 1-5.02 3.87l-7.9-1.06c-.7-.09-1.4-.14-2.09-.14a43.25 43.25 0 0 0 2.57-19.4Z" fill="#F6A6BF"/><path d="M144.06 29.85c-1.81 13.75 2.77 25.7 10.23 26.7 7.46 1 15-9.32 16.81-23.07 1.82-13.74-2.76-25.7-10.22-26.7-7.47-1-15 9.33-16.82 23.07Z" fill="#fff"/><path d="M155.32 58.55c8.18 0 15.8-10.52 17.7-24.81.92-6.96.3-13.75-1.76-19.06-2.2-5.73-5.8-9.21-10.13-9.8-8.66-1.16-16.98 9.7-18.97 24.73-.92 6.96-.3 13.75 1.75 19.08 2.2 5.73 5.8 9.2 10.13 9.79.43.05.85.07 1.28.07Zm4.54-49.9c.25 0 .51.01.76.05 2.9.39 5.4 3 7.07 7.35 1.82 4.75 2.36 10.85 1.53 17.19-1.65 12.45-8.37 22.24-14.67 21.4-2.89-.38-5.4-3-7.07-7.35-1.82-4.75-2.35-10.85-1.52-17.19 1.58-11.94 7.83-21.45 13.9-21.45Z" fill="#F6A6BF"/><path d="M150.34 30.7c-1.21 9.15 1.05 17.02 5.06 17.55 4 .54 8.22-6.45 9.44-15.62 1.2-9.17-1.06-17.02-5.06-17.56-4-.54-8.23 6.46-9.44 15.62Z" fill="#F6A6BF"/><path d="M155.84 50.22c2.48 0 4.94-1.8 6.96-5.13 1.92-3.17 3.31-7.5 3.93-12.19.62-4.69.4-9.24-.62-12.81-1.18-4.1-3.33-6.56-6.07-6.92-2.73-.36-5.45 1.44-7.65 5.08-1.92 3.17-3.32 7.5-3.94 12.18-1.4 10.55 1.49 19.03 6.7 19.74.23.03.46.04.7.05Zm3.51-33.24h.18c1.09.15 2.2 1.74 2.9 4.17.88 3.07 1.06 7.05.5 11.22-.54 4.17-1.75 7.97-3.4 10.7-1.3 2.16-2.8 3.4-3.88 3.26-2.17-.3-4.6-6.44-3.4-15.4.54-4.17 1.75-7.97 3.4-10.7 1.23-2.02 2.63-3.25 3.7-3.25Z" fill="#F6A6BF"/><path d="M152.6 30.42a8.8 8.8 0 0 1 4.44-6.53 8.63 8.63 0 0 1 7.83-.26c.39 3 .37 6.02-.05 9a35.2 35.2 0 0 1-1.8 7.5A8.6 8.6 0 0 1 155.3 38a8.76 8.76 0 0 1-2.7-7.58Z" fill="#fff"/><path d="M161.19 42.27c.75 0 1.5-.09 2.23-.24l1.03-.22.37-1a36.84 36.84 0 0 0 1.91-7.91 36 36 0 0 0 .05-9.54l-.14-1.04-.95-.45a10.54 10.54 0 0 0-13.22 3.66 10.75 10.75 0 0 0 .33 12.55 10.6 10.6 0 0 0 8.39 4.19Zm.41-3.88a6.73 6.73 0 0 1-6.68-4.3 6.89 6.89 0 0 1 1.93-7.74 6.76 6.76 0 0 1 6.27-1.33 34.55 34.55 0 0 1-1.52 13.37Z" fill="#F6A6BF"/><path d="m89.02 154.85 38.3-.22c.5 0 1-.2 1.35-.56a1.94 1.94 0 0 0-1.35-3.3l-38.3.22c-.51 0-1 .2-1.36.56a1.94 1.94 0 0 0 1.36 3.3Z" fill="#EA4385"/><path d="M196.64 141.37c.44 0 .86-.16 1.2-.43a60.48 60.48 0 0 0 21.53-38.44 60.75 60.75 0 0 0-10.18-42.93 1.92 1.92 0 0 0-1.99-.8 1.9 1.9 0 0 0-1.21.86 1.92 1.92 0 0 0 .06 2.16 56.84 56.84 0 0 1-10.62 76.15 1.93 1.93 0 0 0 1.21 3.44v-.01Z" fill="#F6A6BF"/><path d="M43.93 40.94c.2 0 .4-.04.59-.1A55.48 55.48 0 0 1 61.2 38.2a1.9 1.9 0 0 0 1.91-1.93 1.94 1.94 0 0 0-1.91-1.93 59.4 59.4 0 0 0-17.83 2.83 1.92 1.92 0 0 0-1.32 2.13 1.94 1.94 0 0 0 1.87 1.65Z" fill="#FFFEF1"/><path d="M61.52 155h.34l12.1-.06a1.94 1.94 0 0 0 0-3.86l-12.1.06h-.3C30.8 151.14 5.7 126.02 5.53 95a56.6 56.6 0 0 1 4.2-21.8 1.95 1.95 0 0 0-1.06-2.5 1.9 1.9 0 0 0-2.49 1.02A60.5 60.5 0 0 0 1.68 95c.17 33.17 27 60.02 59.84 60.02Z" fill="#F6A6BF"/><path fill-rule="evenodd" clip-rule="evenodd" d="m110.54 66.21.01.12a.11.11 0 0 0 0-.12Zm.02.14c-.52.95-15.93-.25-15.93-.25s-7.01 15.28 1.44 30.14c5.75 9.66 10.4 15.88 10.84 27.33-4.5 1.38-3.81 4.67-.93 4.27.54-.05 3.19-.25 3.56-.32 3.5-.64-.1-14.97-1.34-19.44 1 3.28 4.14 11.7 10.47 14.3-.47-.21-2.8.16-4.33 1.06-2.9 1.71-4.73 4.53 1.82 3.45 8.24-.58 16.14-1.53 16.14-1.53s20.71-13.8.22-31.38c-10.36-8.88-21.8-2.25-21.96-27.63Zm-2.34 41.75Z" fill="#241D50"/><path d="M151.6 67.4c-9.86 4.1-11.43 19.63-11.42 41.74 0 3.13-.57 12.65-10.05 16.04l.12.23c13.57 0 18.24-13.26 18.05-24.5 0-16.74 1.07-28.02 10.24-25.98 4.03 1.37 4.88-12.26-6.94-7.53Z" fill="#2A2460"/><path fill-rule="evenodd" clip-rule="evenodd" d="M119.64 53.19c-2.59.54-7.06 1.56-7.49 2.2-4.31-4.25-12.14-3.91-14.38-3.72L87.4 44.44a1.14 1.14 0 0 0-1.58.27c-.12.17-.19.36-.21.56-.36 3.4-1.04 10.12-.92 10.3-9.59 17.3 12.76 22.82 21.23 21.23 9.8-2.86 11.83-6.41 12.7-9.79.99-3.92.38-4.53.38-4.53l2-7.84a1.18 1.18 0 0 0-.79-1.42 1.16 1.16 0 0 0-.58-.03Z" fill="#2A2460"/><path d="M104.73 69.24c-.83.48-1.45.59-1.73.31-.35-.33-.27-1.14-.19-1.39l.05-.07a.32.32 0 0 0-.03-.38.32.32 0 0 0-.39-.09.46.46 0 0 0-.19.23c-.55.87-1.17 1.3-1.78 1.3-1.45-.03-2.71-2.33-2.71-2.36a.33.33 0 0 0-.2-.16.31.31 0 0 0-.24.03.32.32 0 0 0-.15.19.33.33 0 0 0 .02.24c.06.11 1.44 2.65 3.25 2.7a2.26 2.26 0 0 0 1.69-.75 1.5 1.5 0 0 0 .62 1.12 1.58 1.58 0 0 0 1.3.09 4.71 4.71 0 0 0 1.1-.53.32.32 0 0 0 .03-.36.32.32 0 0 0-.44-.12Z" fill="#fff"/><path fill-rule="evenodd" clip-rule="evenodd" d="M103.11 65.61c.06 0-3.8-2.62-.4 2.23 0 0 4.84-2.98.4-2.23Z" fill="url(#b)"/><path fill-rule="evenodd" clip-rule="evenodd" d="M77.82 62.42c.4-.12 6.44-1.21 13.85 2.96 0 0-7.78-5.68-13.85-2.96Zm.12 4.96c.32-.23 5.55-3.02 13.48-1.37 0 0-8.7-2.92-13.48 1.37Zm32.21 1.74c6.24-.04 9.66 2.95 9.62 2.96-2.85-3.82-9.62-2.96-9.62-2.96Zm-.05.48c5.7 1.78 7.96 5.54 7.92 5.53-1.52-4.35-7.92-5.53-7.92-5.53Z" fill="#fff"/><path opacity=".21" fill-rule="evenodd" clip-rule="evenodd" d="M87.33 47.13c-1.57.45.03 7.08.03 7.08a11.51 11.51 0 0 1 6.17-2.56s-4.63-4.96-6.2-4.52Zm30.69 8.42c-1.1-.21-4.3 1.36-4.3 1.36 2.13.18 3.6 2.64 3.6 2.64s1.8-3.79.7-4Z" fill="#fff"/></g><defs><linearGradient id="b" x1="101.42" y1="66.44" x2="105.01" y2="66.11" gradientUnits="userSpaceOnUse"><stop stop-color="#EC6588"/><stop offset="1" stop-color="#E71A80"/></linearGradient><clipPath id="a"><path fill="#fff" transform="matrix(-1 0 0 1 225 0)" d="M0 0h225v160H0z"/></clipPath></defs></svg>