<svg width="73" height="60" fill="none" xmlns="http://www.w3.org/2000/svg"><path d="M48.5.2a11 11 0 0 0-6.9 14.4c3.1 7 12.5 6.1 16-1.5.8-1.6.8-2 .8-4.4 0-2.3 0-2.8-.7-4.1-.8-1.6-2.1-3-3.8-4-1.1-.5-4-.8-5.4-.4Zm4 4.5c1.3 1 1.8 1.8 2 3.4.4 5.8-6.5 9.7-9 5-2.5-4.4 3-11.1 7-8.4ZM19.5.6a9.4 9.4 0 0 0-4.3 4.2c-.6 1.4-.7 1.8-.7 4.1 0 2.5 0 2.8.8 4.4a10 10 0 0 0 8.4 6.2 7 7 0 0 0 5.6-2c4-3.6 3.8-10.1-.4-14.4C27 1.1 25.2.4 22.6.3c-1.3 0-2.4 0-3 .3Zm5 4.3c2 1 3.3 3.1 3.5 5.6.5 6-6.5 6.7-9 1-1-2.4-.5-5.3 1.2-6.5 1.1-.8 3-.8 4.3-.1Zm38.3 12.9c-3.4.9-5.8 2.8-7.2 5.9a7 7 0 0 0-1 4.3c0 2 .1 2.6.6 3.6.8 1.6 2 3 3.7 3.8 1.2.6 1.6.7 3.8.7 2.2 0 2.5 0 4.3-1 7.2-3.6 8.1-13.3 1.7-16.6-1.9-1-4-1.2-6-.7Zm4.4 4.6c1.6 1.2 2.1 3 1.4 5.2-1 3.3-5.2 5.4-8 4-2.7-1.4-2.7-5.3 0-8 1.8-1.8 5-2.5 6.6-1.2ZM5.3 18.7a7.9 7.9 0 0 0-5.3 8c0 2 0 2.3 1 4.1 3.5 7.4 13.2 8.4 16.6 1.7.6-1.2.7-1.6.7-3.8 0-2.2-.1-2.7-.7-4-1.5-3-4.4-5.5-7.5-6.2a8 8 0 0 0-4.8.2Zm5.4 4.4c3 1.4 4.5 5.2 3.2 7.7-.6 1-2.3 2-3.7 2-3 0-6.3-3.3-6.3-6.5 0-1.4 1.2-3 2.6-3.6.8-.4 3-.2 4.2.4ZM33 24.7c-3.4.9-6.7 3.7-8.3 7-.9 2-1 2-2.7 3a13.5 13.5 0 0 0 2.6 25c3.3.9 7.7 0 10.6-2.1l1.3-1 1.3 1c2.8 2 7 2.9 10.5 2 5.9-1.4 10-6.8 10-13.1 0-4.9-3-9.8-7.4-11.9-1.8-1-1.9-1-2.7-2.8-1.6-3.5-5.1-6.4-8.7-7.3-1.6-.4-5-.3-6.6.2Zm6.6 4.3c2.5.9 4.8 3.5 5.5 6.2.5 1.6.9 2 2.3 2.5a9 9 0 0 1 4.4 2.7c1.8 2 2.3 3.3 2.3 6.2 0 2 0 2.5-.6 3.8-1 2-2.3 3.5-4.3 4.5-1.5.7-1.9.8-4 .8-2 0-2.4 0-3.7-.7-.8-.4-2-1.4-2.8-2.2-2-1.9-2.5-1.9-4.5 0-.8.9-2 1.8-2.8 2.2-1.2.6-1.7.7-3.7.7s-2.5 0-3.7-.7c-2-1-3.4-2.3-4.4-4.3-.7-1.6-.8-2-.8-4.1 0-2.9.5-4.2 2.3-6.2a9 9 0 0 1 4.4-2.7c1.5-.5 1.9-1 2.3-2.5a10 10 0 0 1 5.4-6.2c1.8-.7 4.6-.8 6.4 0Z" opacity=".3" fill="#F6A6BF"/></svg>