<svg width="283" height="206" fill="none" xmlns="http://www.w3.org/2000/svg"><g opacity=".8" clip-path="url(#a)"><path d="m25.99 53.58 9.32 132a9.8 9.8 0 0 0 2.82 6.24 9.23 9.23 0 0 0 6.13 2.72l206.06 9.16a9.2 9.2 0 0 0 6.35-2.2 9.75 9.75 0 0 0 3.32-5.99l22.9-152.6a9.98 9.98 0 0 0-2.3-7.94 9.12 9.12 0 0 0-7.4-3.2L34.89 43.22a9.14 9.14 0 0 0-6.57 3.24 9.74 9.74 0 0 0-2.33 7.12Z" fill="#FAF7F5"/><path d="M195.94 41.08a15.08 15.08 0 0 0 9.76-18.66 14.44 14.44 0 0 0-18.26-9.72 15.08 15.08 0 0 0-9.75 18.66 14.45 14.45 0 0 0 18.25 9.72ZM39.07 126.06c-3.03 12.06-14.08 19.53-24.66 16.7-10.57-2.85-16.68-14.94-13.65-27 3.04-12.05 14.09-19.53 24.66-16.69C36 101.92 42.12 114 39.07 126.06Z" fill="#FAF7F5"/><path d="M254.44 128.28a3.03 3.03 0 0 1-2.38-1.13 3.24 3.24 0 0 1-.7-2.6l14.05-93.74a11.89 11.89 0 0 0-2.72-9.46 11.17 11.17 0 0 0-4-2.93 10.85 10.85 0 0 0-4.83-.88l-41.2 1.98a3.04 3.04 0 0 1-2.25-.84 3.22 3.22 0 0 1-1.02-2.23 3.33 3.33 0 0 1 .82-2.32 3.14 3.14 0 0 1 2.16-1.05l41.2-1.98c2.58-.12 5.16.35 7.54 1.37a17.44 17.44 0 0 1 6.24 4.58 18.51 18.51 0 0 1 4.25 14.77l-14.07 93.73a3.24 3.24 0 0 1-1.05 1.95c-.57.5-1.3.78-2.04.78Zm-46.29 63.32H208l-172.97-7.7c-4.26-.19-8.31-1.99-11.37-5.06a18.22 18.22 0 0 1-5.24-11.58l-1.12-15.95a3.32 3.32 0 0 1 .7-2.4 3.14 3.14 0 0 1 2.17-1.16 3.05 3.05 0 0 1 2.31.82 3.23 3.23 0 0 1 1.04 2.28l1.13 15.92c.2 2.81 1.4 5.46 3.36 7.43a11 11 0 0 0 7.3 3.24l172.98 7.7a3.04 3.04 0 0 1 2.19 1 3.24 3.24 0 0 1 .86 2.3 3.3 3.3 0 0 1-.96 2.25 3.12 3.12 0 0 1-2.23.9ZM15.49 84.78c-.79 0-1.55-.31-2.13-.87a3.26 3.26 0 0 1-.98-2.12l-2.6-36.83c-.17-2.39.13-4.8.87-7.07a18.11 18.11 0 0 1 3.47-6.16 17.48 17.48 0 0 1 5.52-4.28 16.99 16.99 0 0 1 6.7-1.74L165.81 19a3.03 3.03 0 0 1 2.31.8 3.23 3.23 0 0 1 1.06 2.26 3.31 3.31 0 0 1-.85 2.36 3.13 3.13 0 0 1-2.23 1.02l-139.49 6.7A10.88 10.88 0 0 0 18.78 36 11.6 11.6 0 0 0 16 44.49l2.6 36.83c.06.85-.2 1.7-.75 2.34a3.1 3.1 0 0 1-2.13 1.1l-.23.02ZM189.82 30.7a14.6 14.6 0 0 1-8.85-2.96 15.37 15.37 0 0 1-5.43-7.8c-.82-2.92-.8-6.03.08-8.95.87-2.91 2.55-5.5 4.83-7.43a14.71 14.71 0 0 1 16.53-1.82c1.75.92 3.3 2.19 4.56 3.74a15.3 15.3 0 0 1 2.8 5.28 15.9 15.9 0 0 1-1.16 11.75 15.1 15.1 0 0 1-13.36 8.19Zm.27-24.25c-.91 0-1.82.14-2.68.42a8.79 8.79 0 0 0-5.2 4.32 9.27 9.27 0 0 0-.72 6.85 9.03 9.03 0 0 0 4.35 5.15 8.58 8.58 0 0 0 6.6.57 8.89 8.89 0 0 0 5.13-4.32 9.37 9.37 0 0 0 .78-6.78 8.77 8.77 0 0 0-4.25-5.22 8.61 8.61 0 0 0-4.01-1ZM22.97 136.6c-1.65 0-3.3-.2-4.9-.64a19.8 19.8 0 0 1-7.5-3.94c-2.2-1.85-3.99-4.16-5.26-6.78a25.91 25.91 0 0 1-1.81-17.63c1.49-5.9 5-11.06 9.9-14.5a19.45 19.45 0 0 1 16.2-2.91c11.24 3.04 17.77 15.75 14.59 28.36-2.75 10.79-11.68 18.06-21.23 18.06Zm1.74-40.57a14 14 0 0 0-7.87 2.5 18.79 18.79 0 0 0-7.28 10.73 19.32 19.32 0 0 0 1.28 13.03 14.28 14.28 0 0 0 3.63 4.7 13.76 13.76 0 0 0 5.18 2.75c7.89 2.13 16.18-3.62 18.5-12.79 2.31-9.17-2.22-18.36-10.11-20.48-1.09-.3-2.2-.44-3.33-.44Z" fill="#F6A6BF"/><path d="M272.35 180.61c-.08 14.08-10.16 25.46-22.53 25.39-12.36-.07-22.32-11.56-22.24-25.65.08-14.1 10.16-25.46 22.52-25.39 12.36.07 22.32 11.56 22.25 25.65Z" fill="#FAF7F5"/><path d="M249 197.07h-.12a21.72 21.72 0 0 1-9.12-2.12 22.37 22.37 0 0 1-7.48-5.8 27.94 27.94 0 0 1-6.63-18.53c.07-14.46 10.56-26.17 23.4-26.17h.12c3.15.03 6.26.76 9.12 2.12a22.34 22.34 0 0 1 7.47 5.8 27.95 27.95 0 0 1 6.64 18.53c-.08 14.45-10.56 26.17-23.4 26.17Zm.04-46.18c-9.4 0-17.09 8.86-17.15 19.76a21.41 21.41 0 0 0 5.05 14.2 16.2 16.2 0 0 0 5.4 4.21c2.06 1 4.3 1.53 6.58 1.56h.09c9.4 0 17.09-8.87 17.15-19.77a21.39 21.39 0 0 0-5.06-14.19 16.17 16.17 0 0 0-5.38-4.2c-2.07-1-4.31-1.53-6.59-1.57h-.09Z" fill="#F6A6BF"/></g><path d="M233.57 11.16a7.1 7.1 0 0 0-3.8 2.05 9.12 9.12 0 0 0-2.48 4.35c-.22.9-.2 3.23.04 4.34.1.48.23 1.18.27 1.55l.08.65-.56.08a21.42 21.42 0 0 0-8.83 3.23c-1.2.8-2.94 2.4-3.6 3.29-.29.4-.46.55-.56.47-.31-.27-2.05-.85-3.03-1.03-1.27-.23-1.71-.17-2.45.3-.62.4-1.16 1.35-1.4 2.45-.22 1.08-.07 4.43.3 6.42a66.18 66.18 0 0 0 1.32 5.56c.1.24-.02.56-.67 1.81l-.76 1.53-.64-.09c-.86-.09-2.98-.11-3.23-.02-.29.12-.55.73-.47 1.1.15.65.4.74 2.07.84.84.04 1.56.1 1.58.14.03.02 0 .2-.07.38-.21.53-.59 2.94-.59 3.7 0 .69 0 .7-.37.83-.21.08-.84.36-1.4.63-1 .51-1.27.8-1.27 1.35 0 .3.6.92.91.92.14 0 .68-.2 1.2-.47 1.04-.49 1.16-.48 1.17.12.01.16.2.87.44 1.58l.44 1.28-1.01 1a6.4 6.4 0 0 0-1.37 1.78c-1.43 2.96-.72 5.32 2.02 6.68 1.46.72 2.83.96 5.4.97 2.46 0 3.24-.16 5.07-1.06l1.1-.52 1.36.35c3.5.9 6.24 1.23 10.28 1.23 4.04 0 6.77-.33 10.28-1.23l1.35-.35 1.1.53c1.84.89 2.62 1.05 5.08 1.05 2.56-.01 3.88-.25 5.37-.96 2.75-1.35 3.48-3.72 2.05-6.7a6.42 6.42 0 0 0-1.38-1.77l-1.02-1.02.23-.57c.12-.31.35-1.06.5-1.67.16-.61.31-1.13.33-1.15.03-.04.47.16 1 .42a4.7 4.7 0 0 0 1.2.48c.3 0 .92-.6.92-.92 0-.55-.27-.84-1.28-1.35-.55-.27-1.18-.55-1.38-.63-.38-.13-.39-.14-.39-.82 0-.77-.37-3.18-.58-3.7-.07-.2-.1-.37-.07-.4.02-.03.73-.09 1.58-.13 1.66-.1 1.92-.2 2.06-.84.08-.37-.17-.98-.47-1.1-.24-.1-2.36-.07-3.22.02l-.64.09-.75-1.51-.74-1.52.42-1.53c1.8-6.61 1.91-11.25.26-12.9-.68-.68-1.33-.85-2.55-.66-.98.15-2.21.53-3 .93l-.49.25-.4-.57c-.68-.9-2.45-2.52-3.63-3.3-2-1.33-4.65-2.43-7.02-2.9l-1.09-.22-.13-1.28c-.08-.7-.22-1.72-.34-2.27-.22-1.1-.17-1.76.17-2.44.3-.61.96-1.16 1.47-1.27.73-.13 1.98.32 3.2 1.15.75.52 1.3.7 2.03.7 2.23 0 3.6-2.28 2.63-4.3-.25-.51-.5-.8-1.1-1.24-1-.74-2.88-1.67-4-1.98a10.4 10.4 0 0 0-4.05-.19Zm3.92 2.25c1.02.34 2.63 1.23 3.2 1.77.4.39.43.93.08 1.37-.35.45-.95.43-1.64-.08-.8-.56-2.3-1.23-3.1-1.38a3.89 3.89 0 0 0-4.32 2.1c-.69 1.29-.78 2.2-.43 4.06.13.65.27 1.53.3 1.96l.08.8h-1.99l-.07-.68c-.04-.37-.19-1.26-.33-1.96-.42-2.28-.1-4.04 1.03-5.72 1.64-2.4 4.25-3.2 7.19-2.24Zm-4.76 12.77c4.51.58 8.45 2.56 10.88 5.46l.45.55-.85.5c-.46.27-1.47.92-2.23 1.42l-1.38.93-.85-.34a22.2 22.2 0 0 0-9.45-1.63c-2.86.08-5.29.57-7.75 1.55l-1.02.4-1.09-.73c-.6-.41-1.62-1.06-2.24-1.43l-1.13-.68.34-.43c.9-1.13 2.32-2.3 3.86-3.22 3.44-2.04 8.14-2.92 12.46-2.35Zm-21.51 6.03c.53.13 1.3.38 1.7.56 1.12.52 3.66 2 5.53 3.25a8.05 8.05 0 0 0 1.96 1.11c.17 0 .7-.16 1.16-.36a20.32 20.32 0 0 1 9.13-1.71c2.9.1 4.82.5 7.45 1.56.7.28 1.44.51 1.62.51.21 0 .75-.29 1.57-.86 4.18-2.88 8.09-4.7 9.04-4.19.6.33.83 2.81.5 5.4a48.07 48.07 0 0 1-1.28 5.9c-.62 2.12-.62 2.1.08 3.32.31.57.66 1.23.76 1.46l.17.41-1.36.4c-1.56.44-4.13 1.67-4.77 2.26-.44.42-.51.74-.28 1.17.38.72.87.72 2.16-.02 1.6-.93 4.74-2.06 4.98-1.8.2.23.82 3.7.68 3.84a7.5 7.5 0 0 1-1.16-.13c-1.4-.2-3.74-.34-4.14-.24-.32.09-.66.6-.66 1.01 0 .14.13.4.32.58.3.3.4.32 1.72.4 1.4.08 3.67.37 3.8.49.08.1-.19 1.37-.49 2.26-.27.83-.15.8-1.43.44a9.76 9.76 0 0 0-3.87 0c-3.49.9-6.26 4.16-6 7.07.05.42.1.91.14 1.08.09.3.06.3-1.3.6-3.22.75-5.23.96-8.9.96-3.65 0-5.66-.21-8.87-.95-1.38-.3-1.4-.32-1.32-.61.04-.17.1-.66.14-1.08.26-2.94-2.46-6.14-6-7.08a9.76 9.76 0 0 0-3.86.01c-1.24.34-1.16.37-1.37-.27-.26-.73-.57-1.94-.57-2.22 0-.2.13-.26.8-.37a25.3 25.3 0 0 1 3.63-.37c.67 0 .79-.04 1.1-.34.18-.19.33-.46.33-.6 0-.4-.34-.92-.66-1-.4-.11-2.75.03-4.14.23a7.5 7.5 0 0 1-1.16.13c-.14-.14.48-3.61.68-3.85.23-.25 3.37.88 4.98 1.8 1.29.75 1.78.75 2.15.03.4-.71-.02-1.2-1.81-2.1a19.14 19.14 0 0 0-3.99-1.57l-.6-.14.17-.42c.1-.24.43-.89.75-1.45.33-.58.59-1.17.59-1.35 0-.19-.22-1.07-.49-1.97a47.7 47.7 0 0 1-1.28-6.17c-.2-1.62-.1-4.14.17-4.67.37-.68.4-.69 1.8-.35Zm2.5 29.02c2.56.75 4.64 3.29 4.28 5.23-.15.81-1.43 1.83-2.65 2.11l-.3.07v-1.5c0-1.44 0-1.53-.27-1.81a.96.96 0 0 0-1.43 0c-.25.27-.28.4-.32 1.55-.05 1.65-.07 1.75-.55 1.98-.34.16-.44.16-.77.03-.54-.22-.7-.7-.7-2.13 0-1.07-.02-1.22-.25-1.47-.36-.38-1.02-.36-1.4.04-.27.28-.28.37-.28 1.8v1.51l-.3-.07c-1.23-.28-2.47-1.26-2.64-2.08-.21-1.14.3-2.42 1.4-3.53a6.03 6.03 0 0 1 4.48-1.92c.64 0 1.32.07 1.7.19Zm35.98 0c2.14.63 4.1 2.6 4.29 4.32.1.82-.05 1.33-.56 1.88-.43.45-1.39.98-2.1 1.14l-.3.07v-1.5c0-1.44 0-1.53-.28-1.81a1 1 0 0 0-1.38-.05c-.25.24-.27.35-.27 1.47 0 1.44-.15 1.92-.69 2.14-.33.13-.43.13-.77-.03-.48-.23-.5-.33-.55-1.98-.04-1.14-.07-1.28-.32-1.55a.97.97 0 0 0-1.43 0c-.27.28-.28.37-.28 1.8l.01 1.51-.3-.07a4.9 4.9 0 0 1-2.16-1.23c-.67-.77-.7-1.74-.12-2.94a6.55 6.55 0 0 1 3.65-3.08 6.94 6.94 0 0 1 3.56-.1Z" fill="#241D50"/><path d="M218.06 46.29c-1.13.29-1.66.56-1.88.93-.31.57.17 1.4.81 1.4.18 0 .62-.1 1.01-.25a7.35 7.35 0 0 1 1.71-.3c1.71-.1 2.56.36 3.22 1.8.22.47.5.9.63.97.4.21.81.13 1.19-.23.43-.43.41-.79-.1-1.82a4.85 4.85 0 0 0-2.96-2.56 8.13 8.13 0 0 0-3.63.06Zm19.36-.07c-1.6.49-3.13 2.17-3.3 3.63-.04.43 0 .55.25.8.59.6 1.42.29 1.72-.63.22-.63.99-1.5 1.59-1.77.65-.3 1.99-.29 3.04.03 1.34.4 1.64.4 1.98.06.3-.3.39-.77.24-1.19-.1-.27-.81-.6-1.88-.88a8.73 8.73 0 0 0-3.64-.05Zm-9.94 5.96c-1.04.5-1.58 1.51-1.32 2.5.09.4.35.77 1.06 1.54.53.55 1.15 1.14 1.38 1.3l.45.3.01 1.75c0 1.6-.02 1.82-.25 2.29-.16.28-.41.6-.58.74-.64.47-1.69.47-2.32 0-.62-.47-.75-.79-.83-1.98-.07-1-.1-1.16-.34-1.35-.45-.36-1.02-.33-1.39.08-.23.26-.26.42-.26 1.34 0 1.33.29 2.17 1.04 2.96a3.95 3.95 0 0 0 5.55.32l.4-.34.26.27a3.95 3.95 0 0 0 5.65-.25c.75-.8 1.04-1.63 1.04-2.96 0-.92-.03-1.08-.26-1.34a.98.98 0 0 0-1.4-.08c-.22.19-.26.35-.33 1.35-.08 1.2-.21 1.5-.83 1.98-.64.47-1.68.47-2.32 0a2.6 2.6 0 0 1-.57-.74c-.24-.47-.26-.68-.26-2.29v-1.75l.45-.3c.24-.16.86-.75 1.39-1.3.7-.77.97-1.13 1.06-1.53.22-.86-.15-1.74-.96-2.3-.46-.32-.46-.32-2.81-.34-1.84-.02-2.44 0-2.71.13Zm4.47 1.96c.1.17-1.61 1.86-1.9 1.86-.27 0-1.98-1.69-1.88-1.86.06-.09.66-.13 1.89-.13s1.83.04 1.88.13Z" fill="#241D50"/><defs><clipPath id="a"><path fill="#fff" d="M0 0h283v206H0z"/></clipPath></defs></svg>