<svg width="211" height="211" fill="none" xmlns="http://www.w3.org/2000/svg"><path d="M192.014 92.053a15.033 15.033 0 0 1-3.519-14.27 15.048 15.048 0 0 0-8.284-17.674 15.014 15.014 0 0 1-8.705-11.847 15.039 15.039 0 0 0-14.42-13.18 15.053 15.053 0 0 1-12.599-7.639 15.05 15.05 0 0 0-18.371-6.661 15.063 15.063 0 0 1-14.529-2.21 15.005 15.005 0 0 0-19.517.877A15.055 15.055 0 0 1 77.8 22.96a15.033 15.033 0 0 0-17.694 8.28 15.04 15.04 0 0 1-11.853 8.733A15.047 15.047 0 0 0 35.07 54.401a15.041 15.041 0 0 1-7.638 12.6 15.047 15.047 0 0 0-6.655 18.371 15.056 15.056 0 0 1-2.156 14.488 15.07 15.07 0 0 0 .85 19.534 15.029 15.029 0 0 1 3.513 14.27 15.056 15.056 0 0 0 8.278 17.702 15.012 15.012 0 0 1 8.715 11.834 15.04 15.04 0 0 0 14.42 13.181 15.05 15.05 0 0 1 12.6 7.637 15.047 15.047 0 0 0 18.372 6.648 14.853 14.853 0 0 1 4.63-.938 15.036 15.036 0 0 1 9.92 3.158 15.04 15.04 0 0 0 19.518-.883 15.055 15.055 0 0 1 14.27-3.512 15.014 15.014 0 0 0 17.694-8.28 15.055 15.055 0 0 1 11.848-8.705 15.063 15.063 0 0 0 9.246-4.787 15.06 15.06 0 0 0 3.935-9.64 15.019 15.019 0 0 1 7.631-12.563 15.046 15.046 0 0 0 6.662-18.371 15.015 15.015 0 0 1 2.223-14.526 15.068 15.068 0 0 0-.933-19.566Zm-82.83 89.818a76.212 76.212 0 1 1 72.712-79.561 76.3 76.3 0 0 1-72.712 79.561Z" fill="#F6A6BF"/><circle cx="105.728" cy="105.726" r="71.308" transform="rotate(11 105.728 105.726)" fill="#F6A6BF"/><path d="m103.7 49.26 2.761 7.187 7.856-.359-6.149 4.8 2.761 7.188-6.562-4.22-6.15 4.8 2.095-7.408-6.562-4.22 7.856-.359 2.094-7.408Zm10.776 91.334-2.035 7.425 6.541 4.366-7.798.223-2.034 7.426-2.786-7.288-7.798.223 6.077-4.726-2.785-7.288 6.541 4.366 6.077-4.727Zm9.672-87.291 1.931 5.024 5.491-.251-4.299 3.356 1.931 5.023-4.587-2.95-4.299 3.357 1.464-5.18-4.587-2.949 5.492-.25 1.463-5.18Zm-40.375 1.789 1.93 5.023 5.492-.251-4.298 3.356 1.93 5.023-4.587-2.95-4.299 3.357 1.464-5.18-4.587-2.949 5.492-.25 1.463-5.18Zm8.409 88.139-1.42 5.191 4.573 3.051-5.451.158-1.42 5.191-1.95-5.094-5.45.158 4.246-3.306-1.948-5.093 4.573 3.05 4.247-3.306Zm40.302-1.903-1.42 5.191 4.574 3.05-5.451.158-1.42 5.191-1.949-5.094-5.452.159 4.247-3.306-1.949-5.094 4.574 3.051 4.246-3.306Z" fill="#fff"/></svg>