<svg width="627" height="596" fill="none" xmlns="http://www.w3.org/2000/svg"><path fill-rule="evenodd" clip-rule="evenodd" d="M313.172 509.933c-56.16-5.787-103.096 57.683-158.956 49.497-60.465-8.86-141.552-35.184-153.001-95.212-13.103-68.701 83.76-112.198 100.49-180.108 11.126-45.162-48.328-96.373-22.797-135.252 26.071-39.702 94.69-11.523 135.327-36.112 41.992-25.41 52.291-90.372 98.937-105.64C360.65-8.436 418.856 2.119 458.218 32.882c38.985 30.47 32.414 91.68 58.796 133.54 27.869 44.22 83.882 67.818 99.538 117.688 17.273 55.018 12.172 116.271-9.282 169.797-22.896 57.122-54.58 128.839-115.032 140.355-65.934 12.56-112.3-77.449-179.066-84.329Z" fill="#F9EAEF" fill-opacity=".3"/><path d="M434.647 252.468c-21.351-7.893-48.02 7.165-52.329 29.507-5.417 28.264 25.563 45.769 52.795 29.909 5.758-3.384 6.78-4.343 11.951-11.727 5.001-7.143 5.722-8.673 6.628-14.139 1.053-6.678-.068-13.922-3.31-20.14-2.337-4.507-10.478-11.404-15.735-13.41Zm2.588 22.506c2.055 5.744 1.734 9.707-1.246 14.797-11.121 18.887-40.711 15.752-38.571-4.161 1.97-18.835 33.609-27.304 39.817-10.636Zm-92.94-83.734c-6.019-1.584-16.081.103-22.434 3.669-4.827 2.72-6.018 3.92-11.02 11.064-5.17 7.384-5.722 8.672-6.932 15.241-2.659 14.645 2.163 28.787 12.669 36.981 7.09 5.562 13.21 7.336 21.566 6.249 19.832-2.621 33.389-23.151 29.791-45.049-1.666-10.138-5.513-16.659-13.343-22.5-4.043-3.071-7.539-4.921-10.297-5.655Zm6.13 23.789c3.991 7.819 3.55 16.96-1.162 25.024-11.346 19.208-34.505 6.221-29.96-16.792 1.865-9.34 9.75-17.096 17.589-17.109 5.215.062 10.895 3.8 13.533 8.877Zm90.409 122.394c-12.182-4.464-23.712-3.685-34.757 2.576-6.813 3.722-7.588 4.495-12.309 11.237-4.215 6.02-5.251 8.166-5.896 12.259-1.076 6.543 0 13.517 3.108 19.76 2.258 4.452 3.422 5.626 10.088 10.293 7.057 4.942 7.875 5.275 15.409 6.364 30.059 4.302 53.946-23.47 41.054-47.449-3.723-7.033-9.826-12.502-16.697-15.04Zm3.809 23.599c2.399 7.422.011 14.003-6.905 19.208-10.487 7.968-27.843 5.385-33.299-5.015-5.412-10.128 2.884-22.143 17.119-24.615 9.715-1.691 20.809 3.326 23.085 10.422ZM261.462 216.246c-7.521-2.276-15.899-1.324-23.072 2.744-4.636 2.615-6.074 4.001-10.232 9.941-4.384 6.26-4.879 7.468-6.069 15.008-4.983 30.482 22.712 54.181 47.82 41.02 4.354-2.214 5.545-3.414 10.266-10.156 4.586-6.717 5.419-8.406 6.269-13.792 2.162-12.601-1.651-26.515-9.734-35.165-4.881-5.212-8.444-7.467-15.248-9.6Zm7.295 24.964c5.926 10.729 2.672 25.556-6.644 30.516-4.22 2.188-11.631 1.424-16.022-1.65-9.41-6.589-12.018-23.726-5.217-33.438 3.091-4.414 10.025-6.975 15.709-5.746 3.509.663 9.803 6.027 12.174 10.318Zm65.24 52.863c-12.317-4.438-28.637-2.827-40.67 4.178-6.791 3.857-7.06 3.908-14.673 2.764-5.561-.903-10.327-.772-16.576.475-37.973 7.501-54.037 52.473-29.289 81.883 8.462 10.111 23.882 16.961 37.239 16.745l6.078-.17 1.92 5.77c4.208 12.515 15.325 24.008 27.944 29.017 21.362 8.378 45.833.633 59.377-18.711 10.51-15.009 11.632-36.472 2.832-52.442-3.779-6.953-3.801-7.088-2.421-14.734 2.636-13.944-1.913-30.645-11.171-40.956-4.175-4.717-14.616-11.669-20.59-13.819Zm11.35 27.684c5.739 8.325 7.154 21.158 3.583 31.097-2.039 5.75-1.796 8.073 1.696 12.432 4.667 6.019 6.7 10.792 7.664 17.926 1.318 10.134.077 15.245-6.049 23.994-4.272 6.1-5.822 7.646-10.244 10.291-7.342 4.309-14.532 5.733-22.706 4.555-6.391-.886-7.735-1.469-14.165-5.971-6.116-4.283-7.382-5.647-9.931-10.183-1.532-2.987-3.373-8.702-4.118-12.812-1.722-10.057-3.525-11.32-13.722-9.608-4.173.786-10.251.956-13.447.513-5.056-.79-6.771-1.512-12.887-5.795-5.96-4.172-7.538-5.756-9.987-10.103-4.115-7.307-5.371-14.526-4.023-22.793 1.076-6.543 1.627-7.831 6.236-14.413 6.204-8.694 10.639-11.689 20.477-13.891 7.034-1.534 12.215-1.256 19.467 1.071 5.29 1.791 7.556 1.224 12.261-2.658 8.063-6.675 20.606-9.734 30.213-7.433 7.085 1.731 15.609 7.58 19.682 13.781Z" fill="#fff"/></svg>