<svg width="18" height="18" viewBox="0 0 18 18" fill="none" xmlns="http://www.w3.org/2000/svg">
<path d="M5.18926 0.328696C4.04526 0.0382957 2.84626 0.161496 1.90686 0.687296C0.94986 1.2219 0.278859 2.1701 0.245859 3.4384C0.195259 5.42059 0.653959 8.08039 2.47556 11.2022C4.27406 14.2855 6.25956 16.1335 7.90736 17.2313C8.94796 17.9254 10.0975 17.9441 11.0798 17.492C12.0478 17.0465 12.8332 16.1566 13.2413 15.0533C13.3428 14.7789 13.3836 14.4857 13.3608 14.194C13.338 13.9023 13.2522 13.619 13.1093 13.3637L12.0599 11.4904C11.7371 10.9144 11.2179 10.4737 10.597 10.2489C9.97618 10.0241 9.29518 10.0302 8.67846 10.2661L7.94586 10.5466C7.59056 10.6819 7.26386 10.6192 7.07906 10.4366C6.45756 9.82609 6.01316 8.9978 5.81186 8.1046C5.74806 7.823 5.87786 7.4908 6.18806 7.25649L6.84916 6.7571C7.38362 6.3538 7.75259 5.76936 7.88685 5.11341C8.02112 4.45746 7.91147 3.77506 7.57846 3.1942L6.50926 1.3297C6.36761 1.08285 6.17775 0.867021 5.95098 0.695054C5.72421 0.523087 5.46517 0.398496 5.18926 0.328696ZM1.34586 3.467C1.36786 2.6156 1.79906 2.0073 2.44366 1.6465C3.10586 1.2758 4.01006 1.1625 4.91866 1.3935C5.18816 1.4617 5.41696 1.6355 5.55556 1.8764L6.62366 3.7409C6.82343 4.08927 6.8893 4.49855 6.8089 4.89201C6.72851 5.28547 6.50738 5.63611 6.18696 5.8782L5.52586 6.3776C4.95386 6.8088 4.55786 7.54799 4.73826 8.3455C4.98246 9.42569 5.52256 10.4498 6.30796 11.2209C6.88216 11.7841 7.70056 11.8171 8.33856 11.5729L9.07116 11.2924C9.4413 11.1507 9.85007 11.147 10.2227 11.2819C10.5954 11.4168 10.907 11.6814 11.1007 12.0272L12.149 13.9005C12.281 14.1359 12.303 14.4175 12.2095 14.6705C11.8905 15.534 11.291 16.1819 10.62 16.491C9.96326 16.7935 9.22076 16.7847 8.51786 16.315C7.00976 15.3096 5.14086 13.5848 3.42486 10.6467C1.70776 7.69979 1.30076 5.2424 1.34696 3.4681L1.34586 3.467Z" fill="#F6A6BF"/>
<path d="M12.0185 0.269303C11.891 0.19841 11.7406 0.181067 11.6003 0.221087C11.46 0.261107 11.3414 0.355213 11.2705 0.482703C11.1996 0.610192 11.1823 0.760622 11.2223 0.900899C11.2623 1.04118 11.3564 1.15981 11.4839 1.2307L11.9063 1.4661C13.2259 2.19915 14.3483 3.24079 15.1778 4.502C16.0072 5.76321 16.519 7.20649 16.6693 8.7085L16.7045 9.055C16.7086 9.12916 16.7278 9.20172 16.7607 9.26829C16.7937 9.33485 16.8398 9.39405 16.8963 9.44232C16.9527 9.49059 17.0184 9.52691 17.0893 9.54911C17.1601 9.57131 17.2348 9.57893 17.3087 9.57149C17.3826 9.56406 17.4542 9.54173 17.5193 9.50585C17.5843 9.46998 17.6414 9.4213 17.6871 9.36275C17.7328 9.30421 17.7662 9.23701 17.7853 9.16521C17.8043 9.09342 17.8086 9.01851 17.7979 8.945L17.7638 8.5996C17.596 6.92055 17.024 5.30712 16.0969 3.89723C15.1697 2.48735 13.9149 1.32296 12.4398 0.503603L12.0185 0.269303Z" fill="#F6A6BF"/>
<path d="M10.7286 3.21728C10.8038 3.09229 10.9255 3.00226 11.067 2.96698C11.2085 2.93171 11.3582 2.95408 11.4832 3.02918L11.6196 3.11058C12.5073 3.64305 13.2689 4.36192 13.8515 5.21751C14.4342 6.07311 14.8242 7.04502 14.9944 8.06608L15.0428 8.35978C15.0567 8.4318 15.056 8.50587 15.0408 8.57761C15.0256 8.64936 14.9962 8.71734 14.9543 8.77756C14.9124 8.83778 14.8589 8.88901 14.797 8.92825C14.735 8.96749 14.6658 8.99394 14.5935 9.00604C14.5212 9.01815 14.4471 9.01566 14.3758 8.99873C14.3044 8.98181 14.2372 8.95078 14.178 8.90747C14.1188 8.86417 14.0688 8.80946 14.0311 8.74657C13.9934 8.68369 13.9686 8.61389 13.9582 8.54128L13.9087 8.24758C13.7648 7.38369 13.435 6.56134 12.9422 5.83737C12.4493 5.1134 11.8052 4.50506 11.0542 4.05438L10.9178 3.97188C10.8558 3.93477 10.8018 3.8858 10.7587 3.82779C10.7157 3.76978 10.6845 3.70385 10.6669 3.63378C10.6493 3.5637 10.6457 3.49085 10.6563 3.41939C10.6669 3.34793 10.6915 3.27925 10.7286 3.21728Z" fill="#F6A6BF"/>
</svg>
