<svg width="417" height="396" fill="none" xmlns="http://www.w3.org/2000/svg"><path fill-rule="evenodd" clip-rule="evenodd" d="M208.7 56.88c37.35 3.85 68.57-38.36 105.72-32.92 40.22 5.9 94.16 23.4 101.77 63.32 8.72 45.69-55.71 74.62-66.84 119.78-7.4 30.03 32.15 64.09 15.16 89.94-17.34 26.4-62.98 7.67-90 24.02-27.94 16.9-34.79 60.1-65.81 70.25-31.58 10.34-70.3 3.32-96.48-17.14-25.93-20.26-21.56-60.97-39.11-88.8-18.54-29.41-55.8-45.1-66.2-78.27-11.5-36.6-8.1-77.32 6.17-112.92C28.3 56.15 49.38 8.46 89.59.8c43.86-8.35 74.7 51.5 119.1 56.08Z" fill="#F9EAEF" fill-opacity=".2"/><g opacity=".2" fill="#F6A6BF"><path d="M201.41 129.43c-4.35 1.02-7.06 2.47-10 5.4a24.01 24.01 0 0 0-6.54 11.45c-.59 2.35-.52 8.49.1 11.42.27 1.27.61 3.12.7 4.07l.22 1.73-1.48.22c-8.61 1.2-16.76 4.16-23.24 8.48-3.15 2.1-7.74 6.33-9.47 8.68-.77 1.04-1.24 1.44-1.48 1.23-.84-.71-5.4-2.22-8-2.72-3.33-.58-4.5-.43-6.45.8-1.63 1.06-3.05 3.56-3.67 6.46-.58 2.83-.18 11.66.77 16.9.71 3.9 2.78 12.6 3.5 14.63.24.65-.07 1.48-1.77 4.79l-2 4-1.7-.2c-2.25-.25-7.84-.32-8.49-.07-.77.3-1.45 1.91-1.23 2.9.37 1.7 1.05 1.95 5.43 2.2 2.22.12 4.1.27 4.17.36.09.06 0 .53-.19 1.02-.56 1.39-1.54 7.75-1.54 9.75 0 1.8-.03 1.82-1 2.16-.55.22-2.21.96-3.66 1.67-2.66 1.36-3.37 2.1-3.37 3.55 0 .8 1.6 2.44 2.41 2.44.37 0 1.79-.56 3.18-1.24 2.71-1.3 3.02-1.26 3.05.31.03.43.56 2.28 1.18 4.17l1.14 3.36-2.66 2.65c-1.88 1.89-2.9 3.18-3.6 4.66-3.77 7.81-1.89 14.01 5.33 17.6 3.83 1.9 7.44 2.52 14.2 2.56 6.48 0 8.55-.44 13.36-2.78l2.9-1.4 3.58.94c9.23 2.37 16.42 3.24 27.06 3.24 10.65 0 17.84-.87 27.07-3.25l3.58-.92 2.9 1.39c4.81 2.34 6.88 2.77 13.36 2.77 6.73-.03 10.22-.64 14.13-2.53 7.26-3.54 9.17-9.78 5.4-17.62-.7-1.48-1.72-2.77-3.64-4.69l-2.68-2.68.62-1.48c.3-.84.92-2.81 1.32-4.42.4-1.6.8-2.96.87-3.02.06-.1 1.23.43 2.62 1.11 1.36.71 2.78 1.27 3.15 1.27.8 0 2.44-1.6 2.44-2.44 0-1.45-.72-2.2-3.37-3.55a81.03 81.03 0 0 0-3.64-1.67c-.99-.34-1.02-.37-1.02-2.16 0-2-.99-8.36-1.54-9.75-.19-.5-.28-.96-.19-1.02.06-.09 1.95-.24 4.17-.37 4.38-.24 5.06-.5 5.43-2.19.22-.99-.46-2.6-1.23-2.9-.65-.25-6.24-.18-8.49.06l-1.7.22-1.97-3.98-1.95-3.98 1.12-4.05c4.75-17.4 5.03-29.62.67-33.97-1.79-1.8-3.48-2.22-6.7-1.73-2.59.4-5.82 1.39-7.9 2.44l-1.29.68-1.08-1.51c-1.76-2.38-6.42-6.64-9.54-8.68a54.35 54.35 0 0 0-18.48-7.65l-2.87-.59-.34-3.36a80.68 80.68 0 0 0-.9-5.99c-.58-2.9-.46-4.63.44-6.42.8-1.6 2.53-3.05 3.89-3.33 1.91-.34 5.21.83 8.42 3.03 1.98 1.35 3.4 1.85 5.34 1.85 5.86 0 9.5-6.02 6.91-11.36-.65-1.33-1.32-2.07-2.9-3.24a39.38 39.38 0 0 0-10.52-5.21c-3-.84-8.15-1.08-10.65-.5Zm10.3 5.93c2.7.9 6.95 3.24 8.47 4.66a2.6 2.6 0 0 1 .18 3.6c-.93 1.18-2.5 1.12-4.32-.2-2.1-1.49-6.05-3.25-8.15-3.65-4.84-.9-8.95 1.11-11.38 5.55-1.82 3.37-2.07 5.78-1.15 10.68.34 1.7.71 4.01.8 5.16l.22 2.1h-5.24l-.19-1.8c-.12-.95-.5-3.3-.86-5.15-1.11-6.02-.28-10.65 2.71-15.06 4.32-6.32 11.17-8.45 18.92-5.9Zm-12.52 33.6c11.88 1.55 22.25 6.76 28.64 14.38l1.2 1.45-2.25 1.33c-1.2.71-3.86 2.4-5.87 3.73l-3.64 2.44-2.22-.9c-7.78-3.2-15.68-4.56-24.9-4.28a57.33 57.33 0 0 0-20.4 4.1l-2.68 1.05-2.87-1.94c-1.6-1.08-4.26-2.78-5.9-3.77l-3-1.79.9-1.1c2.38-3 6.11-6.09 10.19-8.5 9.04-5.36 21.41-7.68 32.8-6.2Zm-56.66 15.9c1.42.33 3.43.98 4.48 1.48 2.96 1.35 9.66 5.27 14.56 8.54 2.72 1.83 4.7 2.94 5.19 2.94.43 0 1.82-.44 3.05-.96 8-3.43 15.3-4.78 24.04-4.5 7.62.24 12.69 1.29 19.6 4.1 1.88.74 3.8 1.36 4.29 1.36.55 0 1.97-.78 4.13-2.29 10.99-7.56 21.3-12.34 23.8-11.01 1.57.86 2.19 7.4 1.3 14.22-.6 4.32-2.08 11.2-3.34 15.52-1.64 5.59-1.64 5.53.18 8.74a56.96 56.96 0 0 1 2 3.85l.47 1.09-3.58 1.04c-4.1 1.18-10.9 4.42-12.56 5.96-1.17 1.11-1.36 1.94-.74 3.09.99 1.88 2.28 1.88 5.68-.06 4.23-2.44 12.5-5.44 13.11-4.76.53.62 2.16 9.75 1.8 10.12-.07.07-1.46-.09-3.06-.34-3.67-.52-9.84-.89-10.9-.61-.86.21-1.75 1.57-1.75 2.65 0 .37.37 1.05.86 1.51.8.8 1.05.87 4.54 1.05 3.67.22 9.66.99 10 1.3.21.25-.5 3.6-1.3 5.96-.71 2.19-.4 2.1-3.76 1.17-2.41-.68-7.66-.71-10.19-.03-9.2 2.37-16.48 10.98-15.8 18.63.13 1.12.28 2.41.37 2.84.22.78.16.8-3.45 1.6-8.46 1.95-13.77 2.5-23.4 2.5-9.62 0-14.93-.55-23.39-2.5-3.6-.8-3.67-.82-3.45-1.6.09-.43.24-1.72.37-2.83.68-7.75-6.48-16.18-15.8-18.64-2.5-.68-7.75-.65-10.19.03-3.27.9-3.05.95-3.6-.71-.69-1.95-1.49-5.13-1.49-5.87 0-.52.34-.68 2.1-.95 3.09-.56 7.38-.99 9.57-.99 1.75 0 2.06-.1 2.87-.9.49-.49.9-1.2.9-1.57 0-1.08-.9-2.44-1.77-2.65-1.05-.28-7.22.09-10.9.62-1.6.24-2.98.4-3.05.33-.37-.37 1.27-9.5 1.8-10.12.61-.68 8.88 2.32 13.1 4.75 3.4 1.95 4.7 1.95 5.69.07 1.02-1.89-.06-3.15-4.79-5.56a50.4 50.4 0 0 0-10.49-4.1l-1.6-.37.46-1.11c.25-.65 1.14-2.35 1.97-3.83.87-1.51 1.55-3.09 1.55-3.55 0-.5-.56-2.8-1.27-5.18a125.5 125.5 0 0 1-3.4-16.27c-.49-4.25-.24-10.89.47-12.28.96-1.79 1.05-1.82 4.72-.92Zm6.6 76.4c6.73 1.98 12.23 8.68 11.27 13.8-.4 2.13-3.77 4.81-6.97 5.55l-.78.19v-3.98c0-3.77-.03-4.01-.74-4.76a2.54 2.54 0 0 0-3.76 0c-.65.71-.74 1.08-.83 4.08-.13 4.35-.19 4.63-1.45 5.21-.9.44-1.18.44-2.04.1-1.42-.6-1.82-1.86-1.82-5.62 0-2.8-.06-3.21-.68-3.86-.96-1.02-2.69-.96-3.67.1-.71.74-.74.98-.74 4.75v3.98l-.77-.19c-3.28-.74-6.55-3.33-6.98-5.5-.55-2.98.8-6.35 3.7-9.28 3.46-3.46 7.16-5.03 11.8-5.06 1.66 0 3.45.19 4.47.5Zm94.75 0c5.64 1.67 10.8 6.85 11.29 11.39.25 2.16-.12 3.49-1.48 4.94a12.8 12.8 0 0 1-5.53 3.02l-.77.19v-3.98c0-3.77-.03-4.01-.74-4.76a2.6 2.6 0 0 0-3.64-.12c-.65.62-.7.93-.7 3.86 0 3.8-.41 5.06-1.83 5.64-.86.35-1.14.35-2.04-.09-1.26-.58-1.32-.86-1.45-5.21-.09-3-.18-3.37-.83-4.08a2.54 2.54 0 0 0-3.76 0c-.72.75-.75 1-.75 4.76l.03 3.98-.8-.19c-1.82-.4-4.66-2-5.67-3.24-1.76-2.04-1.86-4.6-.31-7.74 1.66-3.5 5.55-6.76 9.6-8.12 2.59-.9 6.81-.99 9.38-.25Z"/><path d="M160.55 221.92c-2.96.77-4.38 1.48-4.93 2.47-.84 1.48.43 3.67 2.13 3.67.46 0 1.63-.28 2.65-.65s3-.7 4.5-.8c4.51-.28 6.73.95 8.5 4.75.55 1.23 1.29 2.38 1.63 2.56 1.05.56 2.16.34 3.15-.61 1.14-1.15 1.07-2.07-.25-4.79a12.76 12.76 0 0 0-7.81-6.76c-2.31-.67-6.7-.61-9.57.16ZM211.53 221.73c-4.22 1.3-8.24 5.74-8.67 9.57-.12 1.14-.03 1.45.65 2.13 1.54 1.54 3.74.74 4.54-1.67a9.59 9.59 0 0 1 4.16-4.66c1.73-.8 5.25-.77 8.03.06 3.51 1.05 4.32 1.08 5.21.16.8-.77 1.02-2 .62-3.12-.28-.7-2.13-1.57-4.94-2.31-2.8-.71-7.56-.8-9.6-.16ZM185.37 237.44c-2.75 1.33-4.17 3.98-3.5 6.6.25 1.05.93 2.01 2.82 4.05 1.38 1.45 3.02 2.99 3.64 3.42l1.17.77.03 4.63c0 4.23-.06 4.78-.68 6.02-.4.74-1.08 1.6-1.51 1.94a5.5 5.5 0 0 1-6.11 0c-1.63-1.23-1.97-2.06-2.2-5.21-.18-2.62-.27-3.06-.89-3.55-1.17-.96-2.68-.86-3.64.22-.61.68-.7 1.1-.7 3.51 0 3.52.76 5.71 2.74 7.81a10.39 10.39 0 0 0 14.63.84l1.05-.9.68.7c1.01 1.09 3.36 2.26 5.33 2.66 3.37.68 7-.58 9.54-3.3 1.97-2.1 2.75-4.29 2.75-7.8 0-2.41-.1-2.85-.68-3.52a2.59 2.59 0 0 0-3.68-.22c-.61.5-.7.93-.89 3.55-.22 3.15-.56 3.98-2.2 5.21a5.5 5.5 0 0 1-6.1 0 6.82 6.82 0 0 1-1.48-1.94c-.65-1.24-.71-1.79-.71-6.02l.03-4.63 1.17-.77c.62-.43 2.25-1.97 3.64-3.42 1.88-2.04 2.56-3 2.81-4.05.59-2.25-.4-4.56-2.53-6.04-1.2-.84-1.2-.84-7.4-.9-4.85-.06-6.43 0-7.13.34Zm11.75 5.15c.28.47-4.22 4.91-4.97 4.91-.74 0-5.24-4.44-4.96-4.9.15-.22 1.72-.35 4.96-.35 3.25 0 4.82.13 4.97.34Z"/></g></svg>
