<svg width="249" height="237" fill="none" xmlns="http://www.w3.org/2000/svg"><path d="M112.385 33.13c-11.465 11.365-9.753 33.065 3.335 42.566 16.567 11.997 37.098-2.672 35.037-24.976-.455-4.725-.766-5.672-3.972-11.223-3.1-5.37-3.869-6.295-7.115-8.524-3.982-2.689-8.979-4.148-13.95-3.934-3.599.147-10.472 3.31-13.335 6.09Zm15.256 5.11c4.311.408 6.765 1.807 9.149 5.258 8.827 12.845-2.041 30.947-14.214 23.573-11.531-6.94-7.517-29.854 5.065-28.83ZM45.963 72.849c-2.82 3.398-4.744 10.382-4.35 15.545.308 3.926.724 5.053 3.824 10.424 3.205 5.551 3.87 6.294 7.734 9.051 8.629 6.122 19.171 7.276 27.586 2.981 5.7-2.889 8.671-6.294 10.472-12 4.245-13.554-4.911-28.462-20.078-32.74-7.022-1.98-12.369-1.467-18.47 1.814-3.185 1.678-5.42 3.371-6.718 4.925Zm17.141 3.218c6.225-.215 11.975 2.821 15.755 8.282 8.967 13.087-6.317 24.083-19.766 14.228-5.452-4.013-8.085-11.424-5.749-16.473 1.6-3.338 5.704-5.868 9.76-6.037Zm105.797-21.339c-6.516 6.498-9.464 14.154-8.738 23.148.357 5.506.623 6.238 3.549 11.307 2.613 4.525 3.684 5.838 6.125 7.486 3.889 2.663 8.698 4.07 13.645 3.949 3.54-.113 4.644-.509 9.641-3.393 5.29-3.055 5.749-3.481 8.704-8.003 11.758-18.052 1.032-41.79-18.254-40.712-5.639.28-10.984 2.56-14.672 6.218Zm16.325 4.655c5.493.69 9.014 4.21 10.295 10.228 1.99 9.15-4.863 19.543-13.187 19.923-8.136.434-13.386-8.523-10.719-18.43 1.817-6.762 8.364-12.392 13.611-11.72ZM37.279 133.696c-3.715 4.156-5.609 9.835-5.136 15.677.297 3.771.758 5.114 3.336 9.579 2.718 4.707 3.347 5.389 7.843 8.425 18.124 12.386 41.657 1.696 40.698-18.428-.122-3.469-.538-4.597-3.464-9.666-2.95-4.974-3.789-6.019-7-8.188-7.462-5.185-17.556-6.921-25.54-4.323-4.813 1.573-7.33 3.187-10.737 6.924Zm18.245 2.822c8.676-.585 17.244 5.974 17.65 13.464.145 3.375-2.563 7.916-5.855 9.816-7.054 4.073-18.861.592-23.077-6.71-1.916-3.319-1.49-8.553 1.001-11.842 1.476-2.059 6.81-4.495 10.28-4.728Zm53.528-26.076c-6.54 6.592-10.385 17.581-9.476 27.436.451 5.532.403 5.721-2.61 10.276-2.245 3.308-3.586 6.415-4.652 10.812-6.53 26.701 17.603 50.582 43.929 43.508 9.038-2.402 18.058-10.264 21.913-18.927l1.709-3.963 4.287.501c9.312 1.061 20.033-2.635 27.03-9.249 11.781-11.227 14.116-29.31 5.72-43.853-6.515-11.284-19.99-18.469-32.899-17.613-5.604.339-5.698.313-10.205-2.878-8.184-5.895-20.292-7.996-29.695-5.142-4.285 1.267-11.881 5.894-15.051 9.092Zm21.208 1.031c7.074-1.188 15.755 1.765 21.083 7.057 3.09 3.043 4.657 3.586 8.507 2.651 5.268-1.191 8.948-1.063 13.827.465 6.915 2.203 9.833 4.541 13.63 11.118 2.648 4.586 3.179 6.05 3.558 9.693.577 6.022-.657 11.08-3.859 15.986-2.482 3.847-3.259 4.537-8.08 7.32-4.585 2.647-5.841 3.05-9.523 3.326-2.379.086-6.608-.45-9.475-1.208-6.987-1.92-8.339-1.139-10.287 5.94-.742 2.922-2.451 6.886-3.692 8.809-2.021 3.017-2.998 3.903-7.583 6.55-4.468 2.58-5.959 3.119-9.489 3.387-5.932.448-10.953-.917-15.87-4.274-3.888-2.663-4.552-3.406-7.409-8.354-3.739-6.611-4.34-10.367-2.814-17.363 1.117-4.989 2.845-8.24 6.512-12.207 2.734-2.866 3.047-4.495 1.956-8.693-1.883-7.199-.1-16.194 4.254-21.685 3.233-4.039 9.547-7.764 14.754-8.518Z" opacity=".5" fill="#fff"/></svg>