<svg width="18" height="18" fill="none" xmlns="http://www.w3.org/2000/svg"><path d="M5.19.329C4.044.039 2.845.16 1.906.687.95 1.222.279 2.17.246 3.438c-.05 1.983.408 4.642 2.23 7.764 1.798 3.084 3.784 4.932 5.431 6.03 1.041.693 2.19.712 3.173.26.968-.445 1.753-1.335 2.161-2.439a2.023 2.023 0 0 0-.132-1.69l-1.05-1.873a2.75 2.75 0 0 0-3.38-1.224l-.733.28c-.355.136-.682.073-.867-.11-.621-.61-1.066-1.438-1.267-2.331-.064-.282.066-.614.376-.849l.661-.499a2.75 2.75 0 0 0 .73-3.563L6.508 1.33A2.122 2.122 0 0 0 5.19.329ZM1.345 3.467c.022-.851.453-1.46 1.098-1.82.662-.371 1.566-.484 2.475-.254.27.069.498.242.637.483l1.068 1.865a1.65 1.65 0 0 1-.437 2.137l-.661.5c-.572.43-.968 1.17-.788 1.967.244 1.08.785 2.105 1.57 2.876.574.563 1.393.596 2.03.352l.733-.28a1.65 1.65 0 0 1 2.03.734l1.048 1.873a.922.922 0 0 1 .06.77c-.319.864-.918 1.512-1.589 1.821-.657.303-1.4.294-2.102-.176-1.508-1.005-3.377-2.73-5.093-5.668C1.708 7.7 1.3 5.242 1.347 3.468l-.001-.001ZM12.018.27a.55.55 0 1 0-.534.96l.422.236A9.35 9.35 0 0 1 16.67 8.71l.035.346a.55.55 0 1 0 1.094-.11l-.034-.345A10.45 10.45 0 0 0 12.44.504l-.421-.235Z" fill="#F6A6BF"/><path d="M10.729 3.217a.55.55 0 0 1 .754-.188l.137.082a7.15 7.15 0 0 1 3.374 4.955l.049.294a.549.549 0 1 1-1.085.181l-.05-.293a6.05 6.05 0 0 0-2.854-4.194l-.136-.082a.55.55 0 0 1-.19-.755Z" fill="#F6A6BF"/></svg>