<svg width="381" height="379" fill="none" xmlns="http://www.w3.org/2000/svg"><path fill-rule="evenodd" clip-rule="evenodd" d="M380.231 157.596c-3.259 36.718-35.197 64.395-60.523 62.146-25.326-2.25-50.91-33.84-47.651-70.56 3.26-36.719 34.129-64.662 59.455-62.412 25.325 2.25 51.979 34.107 48.719 70.826Zm-143.621-24.06c-25.377 1.537-55.472-27.046-57.725-63.843-2.253-36.796 24.19-67.872 49.567-69.408 25.377-1.538 55.472 27.045 57.725 63.842 2.253 36.796-24.19 67.872-49.567 69.409Zm-100.54 17.976c-24.261 7.579-58.271-8.647-69.318-43.828-11.047-35.181 5.054-75.995 29.314-83.575 24.261-7.579 56.732 8.647 67.779 43.827 11.046 35.182-3.514 75.997-27.775 83.576Zm-36.462 27.589c15.451 33.485 5.93 73.535-17.164 84.144-23.094 10.61-59.957-3.338-75.409-36.823-15.451-33.486-3.64-73.829 19.454-84.439s57.667 3.632 73.12 37.118Zm29.931 67.487c34.611-102.805 82.093-109.127 140.241-35.481 6.71 8.498 14.796 15.866 24.173 21.295 74.249 42.99 60.97 113.438.93 115.671-7.189.267-14.347-.821-21.313-2.615-23.759-6.115-46.866-4.507-68.85 10.423-75.805 63.609-152.257-20.736-88.877-86.295 6.278-6.493 10.816-14.444 13.696-22.998Z" fill="#28AFC9"/></svg>