<svg width="18" height="18" viewBox="0 0 18 18" fill="none" xmlns="http://www.w3.org/2000/svg">
<path d="M9 0.25C4.16797 0.25 0.25 4.16797 0.25 9C0.25 13.832 4.16797 17.75 9 17.75C13.832 17.75 17.75 13.832 17.75 9C17.75 4.16797 13.832 0.25 9 0.25ZM9 16.2656C4.98828 16.2656 1.73438 13.0117 1.73438 9C1.73438 4.98828 4.98828 1.73438 9 1.73438C13.0117 1.73438 16.2656 4.98828 16.2656 9C16.2656 13.0117 13.0117 16.2656 9 16.2656Z" fill="#F6A6BF"/>
<path d="M12.4121 11.4726L9.62695 9.45897V4.625C9.62695 4.53906 9.55664 4.46875 9.4707 4.46875H8.53125C8.44531 4.46875 8.375 4.53906 8.375 4.625V10.0039C8.375 10.0547 8.39844 10.1015 8.43945 10.1308L11.6699 12.4863C11.7402 12.5371 11.8379 12.5215 11.8887 12.4531L12.4473 11.6914C12.498 11.6191 12.4824 11.5215 12.4121 11.4726Z" fill="#F6A6BF"/>
</svg>
